<svg width="56" height="55" viewBox="0 0 56 55" fill="none" xmlns="http://www.w3.org/2000/svg">
<path d="M9.74297 4.43308e-06H45.2762C46.556 -0.00123229 47.8235 0.256305 49.0061 0.757877C50.1887 1.25945 51.2632 1.99521 52.1682 2.92305C53.0731 3.85089 53.7908 4.95259 54.28 6.16511C54.7692 7.37763 55.0204 8.67716 55.0191 9.98932V45.0107C55.0204 46.3228 54.7692 47.6224 54.28 48.8349C53.7908 50.0474 53.0731 51.1491 52.1682 52.077C51.2632 53.0048 50.1887 53.7406 49.0061 54.2421C47.8235 54.7437 46.556 55.0012 45.2762 55H9.74297C8.46316 55.0012 7.19568 54.7437 6.01306 54.2421C4.83045 53.7406 3.75591 53.0048 2.85095 52.077C1.94599 51.1491 1.22838 50.0474 0.739172 48.8349C0.249969 47.6224 -0.00121716 46.3228 -1.0935e-05 45.0107V9.98932C-0.00121716 8.67716 0.249969 7.37763 0.739172 6.16511C1.22838 4.95259 1.94599 3.85089 2.85095 2.92305C3.75591 1.99521 4.83045 1.25945 6.01306 0.757877C7.19568 0.256305 8.46316 -0.00123229 9.74297 4.43308e-06Z" fill="#330000"/>
<path d="M26.6614 33H18.1334L16.3911 38.5235C16.3717 38.6242 16.3162 38.7138 16.2356 38.7747C16.155 38.8356 16.0551 38.8634 15.9556 38.8526H11.6457C11.3936 38.8526 11.3248 38.7116 11.3936 38.4295L18.7753 16.6411C18.8441 16.406 18.9128 16.1475 19.0045 15.8654C19.0968 15.3617 19.1428 14.8502 19.1421 14.3376C19.1352 14.2788 19.1503 14.2194 19.1843 14.1715C19.2183 14.1235 19.2687 14.0905 19.3255 14.0791H25.263C25.4464 14.0791 25.5381 14.1496 25.561 14.2671L33.9285 38.4765C33.9973 38.7351 33.9285 38.8526 33.6992 38.8526H28.908C28.827 38.8606 28.7458 38.8391 28.6787 38.7918C28.6116 38.7445 28.5629 38.6745 28.5412 38.5941L26.6614 33ZM19.463 28.2287H25.2859C25.1483 27.7351 24.9649 27.1475 24.7586 26.5364C24.5523 25.9253 24.346 25.2201 24.1397 24.515C23.9333 23.8099 23.7041 23.0812 23.4748 22.3526C23.2456 21.624 23.0393 20.9423 22.8559 20.2607C22.6725 19.5791 22.512 18.9915 22.3515 18.4274H22.3057C22.0997 19.4518 21.8395 20.464 21.5262 21.4594C21.1824 22.5876 20.8385 23.7629 20.4717 24.9381C20.1508 26.1368 19.8069 27.2415 19.463 28.2287Z" fill="#FF9A00"/>
<path d="M38.9261 18.0983C38.5498 18.1067 38.1756 18.0383 37.8253 17.8971C37.475 17.7559 37.1557 17.5446 36.8858 17.2756C36.3605 16.6868 36.0808 15.9107 36.1063 15.1132C36.0928 14.7247 36.1593 14.3375 36.3015 13.9771C36.4437 13.6167 36.6584 13.291 36.9316 13.0214C37.4826 12.4874 38.2137 12.1926 38.9719 12.1987C39.866 12.1987 40.5537 12.4808 41.0581 13.0214C41.5659 13.5913 41.8373 14.3416 41.8146 15.1132C41.8286 15.5104 41.7648 15.9063 41.6269 16.2777C41.4891 16.6491 41.2801 16.9885 41.0122 17.2756C40.7421 17.5577 40.4161 17.7771 40.0562 17.919C39.6963 18.061 39.3109 18.1221 38.9261 18.0983ZM36.3585 38.5V20.4017C36.3585 20.1666 36.4502 20.0726 36.6565 20.0726H41.1956C41.4019 20.0726 41.4936 20.1902 41.4936 20.4017V38.5C41.4936 38.7585 41.4019 38.876 41.1956 38.876H36.7024C36.6542 38.8801 36.6057 38.873 36.5606 38.8552C36.5155 38.8373 36.4749 38.8093 36.4419 38.7732C36.4088 38.737 36.3841 38.6936 36.3697 38.6463C36.3553 38.599 36.3514 38.549 36.3585 38.5Z" fill="#FF9A00"/>
</svg>
