<svg width="12" height="20" viewBox="0 0 12 20" fill="none" xmlns="http://www.w3.org/2000/svg">
<path d="M11.4414 19.4388C11.7992 19.0833 12 18.6025 12 18.1012C12 17.6 11.7992 17.1192 11.4414 16.7637L4.64086 9.95257L11.4414 3.23632C11.7992 2.88085 12 2.39999 12 1.89876C12 1.39753 11.7992 0.916675 11.4414 0.561202C11.2628 0.383376 11.0503 0.242232 10.8162 0.145911C10.5821 0.0495902 10.331 1.99023e-08 10.0774 2.29264e-08C9.82383 2.59506e-08 9.57274 0.0495902 9.33864 0.145911C9.10454 0.242232 8.89207 0.383376 8.71349 0.561202L0.568243 8.60552C0.388186 8.7819 0.245272 8.99173 0.147743 9.22293C0.0502134 9.45413 1.71806e-07 9.70211 1.74793e-07 9.95257C1.7778e-07 10.203 0.0502135 10.451 0.147743 10.6822C0.245272 10.9134 0.388186 11.1232 0.568243 11.2996L8.71349 19.4388C8.89207 19.6166 9.10454 19.7578 9.33864 19.8541C9.57274 19.9504 9.82383 20 10.0774 20C10.331 20 10.5821 19.9504 10.8162 19.8541C11.0503 19.7578 11.2628 19.6166 11.4414 19.4388Z" fill="#663AAE"/>
</svg>
