<svg width="22" height="16" viewBox="0 0 22 16" fill="none" xmlns="http://www.w3.org/2000/svg">
<path d="M21.1167 10.6783C20.9894 10.6454 20.8569 10.6381 20.7268 10.6568C20.5967 10.6755 20.4715 10.7198 20.3586 10.7871C20.2456 10.8545 20.147 10.9435 20.0684 11.0492C19.9899 11.1549 19.933 11.2751 19.9009 11.4029C19.7178 12.1112 19.2834 12.7282 18.6792 13.1383C18.0749 13.5485 17.3422 13.7236 16.6184 13.6309C15.8946 13.5382 15.2293 13.1839 14.7473 12.6346C14.2653 12.0853 13.9996 11.3786 14 10.6469V9.64421H21C21.1313 9.64424 21.2614 9.61833 21.3827 9.56795C21.5041 9.51757 21.6143 9.44371 21.7072 9.35059C21.8 9.25747 21.8737 9.14692 21.924 9.02525C21.9742 8.90358 22 8.77317 22 8.64148C22 7.98309 21.8707 7.33114 21.6194 6.72286C21.3681 6.11458 20.9998 5.56188 20.5355 5.09633C20.0712 4.63077 19.52 4.26147 18.9134 4.00951C18.3068 3.75756 17.6566 3.62788 17 3.62788C16.3434 3.62788 15.6932 3.75756 15.0866 4.00951C14.48 4.26147 13.9288 4.63077 13.4645 5.09633C13.0002 5.56188 12.6319 6.11458 12.3806 6.72286C12.1293 7.33114 12 7.98309 12 8.64148V10.6469C11.9996 11.8674 12.4433 13.0461 13.248 13.9619C14.0526 14.8776 15.1628 15.4675 16.3704 15.6208C17.5779 15.7742 18.7997 15.4804 19.8066 14.7947C20.8135 14.109 21.5363 13.0785 21.8394 11.8964C21.8717 11.7688 21.8787 11.6361 21.8599 11.5058C21.8411 11.3756 21.7969 11.2503 21.7298 11.1372C21.6627 11.024 21.574 10.9253 21.4688 10.8465C21.3636 10.7678 21.244 10.7106 21.1167 10.6783ZM17 5.63332C17.7934 5.63362 18.5546 5.94786 19.1182 6.50776C19.4311 6.82867 19.6697 7.21484 19.8168 7.63876H14.1843C14.3897 7.05392 14.7707 6.54718 15.2748 6.1881C15.779 5.82903 16.3816 5.63524 17 5.63332ZM15 2.62516H19C19.2652 2.62516 19.5196 2.51951 19.7071 2.33147C19.8946 2.14342 20 1.88837 20 1.62243C20 1.3565 19.8946 1.10145 19.7071 0.913403C19.5196 0.725356 19.2652 0.619713 19 0.619713H15C14.7348 0.619713 14.4804 0.725356 14.2929 0.913403C14.1054 1.10145 14 1.3565 14 1.62243C14 1.88837 14.1054 2.14342 14.2929 2.33147C14.4804 2.51951 14.7348 2.62516 15 2.62516ZM8.918 7.35515C9.45169 6.78594 9.80734 6.0724 9.94098 5.30271C10.0746 4.53302 9.9804 3.74093 9.66995 3.02436C9.35951 2.30779 8.84646 1.69814 8.19422 1.27077C7.54198 0.843408 6.77914 0.617062 6 0.619713H1C0.868668 0.619677 0.738616 0.645589 0.617275 0.695968C0.495933 0.746347 0.38568 0.820205 0.292814 0.913324C0.199948 1.00644 0.12629 1.117 0.0760482 1.23867C0.0258061 1.36034 -3.54375e-05 1.49075 3.64731e-08 1.62243V14.6578C-3.4123e-05 14.7895 0.0258084 14.9199 0.076051 15.0416C0.126294 15.1632 0.199952 15.2738 0.292817 15.3669C0.385682 15.46 0.495935 15.5339 0.617276 15.5843C0.738617 15.6347 0.868669 15.6606 1 15.6605H6.5C7.47314 15.6623 8.42053 15.3471 9.19963 14.7625C9.97874 14.1778 10.5474 13.3552 10.8201 12.4185C11.0928 11.4819 11.0548 10.4817 10.7118 9.56855C10.3687 8.6554 9.73924 7.87864 8.918 7.35515ZM2 2.62516H6C6.53043 2.62516 7.03914 2.83644 7.41421 3.21254C7.78929 3.58863 8 4.09872 8 4.6306C8 5.16247 7.78929 5.67257 7.41421 6.04866C7.03914 6.42475 6.53043 6.63604 6 6.63604H2V2.62516ZM6.5 13.6551H2V8.64148H6.5C7.16304 8.64148 7.79893 8.90559 8.26777 9.37571C8.73661 9.84583 9 10.4834 9 11.1483C9 11.8131 8.73661 12.4507 8.26777 12.9209C7.79893 13.391 7.16304 13.6551 6.5 13.6551Z" fill="white"/>
</svg>
