<svg width="21" height="21" viewBox="0 0 21 21" fill="none" xmlns="http://www.w3.org/2000/svg">
<path d="M21 10.5C21 8.42345 20.3843 6.39348 19.2306 4.66681C18.077 2.94014 16.4373 1.59432 14.5188 0.799524C12.6003 0.00472261 10.4892 -0.203366 8.45251 0.201569C6.41577 0.606505 4.54485 1.60628 3.07629 3.07448C1.60773 4.54267 0.607502 6.41336 0.20207 8.44999C-0.203363 10.4866 0.00421006 12.5978 0.798543 14.5164C1.59288 16.4351 2.9383 18.0751 4.66468 19.2292C6.39107 20.3833 8.42089 20.9995 10.4975 21L10.5 21.0001L10.5025 21C13.2859 20.9962 15.9541 19.8887 17.922 17.9203C19.8899 15.9519 20.9969 13.2834 21 10.5ZM11.6667 18.582V13.2224H13.6111C13.9205 13.2224 14.2173 13.0995 14.4361 12.8807C14.6549 12.6619 14.7778 12.3651 14.7778 12.0557C14.7778 11.7463 14.6549 11.4495 14.4361 11.2307C14.2173 11.012 13.9205 10.889 13.6111 10.889H11.6667V8.94459C11.667 8.63528 11.7901 8.33874 12.0088 8.12002C12.2275 7.90131 12.524 7.77828 12.8333 7.77793H14.3889C14.6983 7.77793 14.9951 7.65501 15.2138 7.43622C15.4326 7.21742 15.5556 6.92068 15.5556 6.61126C15.5556 6.30184 15.4326 6.00509 15.2138 5.7863C14.9951 5.56751 14.6983 5.44459 14.3889 5.44459H12.8333C11.9054 5.44564 11.0158 5.81472 10.3596 6.47087C9.70347 7.12702 9.33438 8.01665 9.33334 8.94459V10.889H7.38889C7.07947 10.889 6.78273 11.012 6.56393 11.2307C6.34514 11.4495 6.22223 11.7463 6.22223 12.0557C6.22223 12.3651 6.34514 12.6619 6.56393 12.8807C6.78273 13.0995 7.07947 13.2224 7.38889 13.2224H9.33334V18.582C7.28982 18.2871 5.43386 17.229 4.13899 15.6208C2.84412 14.0127 2.20645 11.9737 2.35431 9.91429C2.50216 7.8549 3.42458 5.92794 4.93591 4.52123C6.44724 3.11451 8.43531 2.33246 10.5 2.33246C12.5647 2.33246 14.5528 3.11451 16.0641 4.52123C17.5754 5.92794 18.4978 7.8549 18.6457 9.91429C18.7936 11.9737 18.1559 14.0127 16.861 15.6208C15.5661 17.229 13.7102 18.2871 11.6667 18.582Z" fill="white"/>
</svg>
