<svg width="47" height="47" viewBox="0 0 47 47" fill="none" xmlns="http://www.w3.org/2000/svg">
<path d="M18.794 42.5972C22.311 42.5972 25.162 39.7472 25.162 36.2314V29.8656H18.794C15.277 29.8656 12.426 32.7158 12.426 36.2314C12.426 39.7472 15.277 42.5972 18.794 42.5972Z" fill="#0ACF83"/>
<path d="M12.426 23.5C12.426 19.9842 15.277 17.1342 18.794 17.1342H25.162V29.8658H18.794C15.277 29.8658 12.426 27.0156 12.426 23.5Z" fill="#A259FF"/>
<path d="M12.4258 10.7687C12.4258 7.25288 15.2768 4.40283 18.7938 4.40283H25.1618V17.1345H18.7938C15.2768 17.1345 12.4258 14.2843 12.4258 10.7687Z" fill="#F24E1E"/>
<path d="M25.1615 4.40271H31.5295C35.0465 4.40271 37.8975 7.25276 37.8975 10.7685C37.8975 14.2842 35.0465 17.1343 31.5295 17.1343H25.1615V4.40271Z" fill="#FF7262"/>
<path d="M37.8975 23.5C37.8975 27.0156 35.0465 29.8658 31.5295 29.8658C28.0125 29.8658 25.1615 27.0156 25.1615 23.5C25.1615 19.9842 28.0125 17.1342 31.5295 17.1342C35.0465 17.1342 37.8975 19.9842 37.8975 23.5Z" fill="#1ABCFE"/>
</svg>
