<svg width="30" height="34" viewBox="0 0 30 34" fill="none" xmlns="http://www.w3.org/2000/svg">
<path d="M26.6684 17.9945L15.8761 28.707C14.4612 29.9531 12.6194 30.6164 10.7274 30.5612C8.83537 30.506 7.03612 29.7365 5.69768 28.4101C4.35924 27.0837 3.58276 25.3007 3.52707 23.4257C3.47137 21.5507 4.14067 19.7255 5.39806 18.3233L19.3687 4.47841C20.2028 3.69322 21.3093 3.25543 22.4598 3.25543C23.6102 3.25543 24.7167 3.69322 25.5508 4.47841C26.3634 5.29455 26.8191 6.39501 26.8191 7.5416C26.8191 8.68818 26.3634 9.78865 25.5508 10.6048L13.5011 22.5287C13.3818 22.656 13.2384 22.7588 13.0791 22.8311C12.9198 22.9035 12.7476 22.944 12.5725 22.9504C12.3974 22.9569 12.2227 22.9291 12.0584 22.8686C11.8941 22.8081 11.7434 22.7161 11.615 22.598C11.4866 22.4798 11.3829 22.3377 11.3099 22.1798C11.2369 22.0219 11.196 21.8513 11.1895 21.6778C11.183 21.5042 11.2111 21.3311 11.2721 21.1683C11.3331 21.0055 11.4259 20.8562 11.5452 20.7289L20.5039 11.8681C20.8327 11.5423 21.0174 11.1003 21.0174 10.6394C21.0174 10.1785 20.8327 9.73655 20.5039 9.41066C20.175 9.08478 19.729 8.9017 19.264 8.9017C18.7989 8.9017 18.3529 9.08478 18.0241 9.41066L9.06536 18.306C8.61709 18.7468 8.26129 19.2712 8.01849 19.8489C7.77569 20.4266 7.65069 21.0463 7.65069 21.6721C7.65069 22.2979 7.77569 22.9175 8.01849 23.4953C8.26129 24.073 8.61709 24.5973 9.06536 25.0381C9.9811 25.9026 11.1973 26.3847 12.462 26.3847C13.7267 26.3847 14.9429 25.9026 15.8586 25.0381L27.8909 13.0969C29.279 11.6206 30.0347 9.66796 29.9988 7.65039C29.9629 5.63283 29.1381 3.70784 27.6983 2.28099C26.2585 0.854132 24.316 0.0368109 22.2801 0.0012133C20.2442 -0.0343843 18.2739 0.714522 16.7842 2.09015L2.81348 15.9351C0.929535 18.0029 -0.0766534 20.7113 0.0045601 23.4961C0.0857736 26.2809 1.24813 28.9272 3.24944 30.8838C5.25075 32.8403 7.93667 33.9561 10.7476 33.9987C13.5585 34.0414 16.2776 33.0075 18.3384 31.1126L29.1482 20.4174C29.3111 20.256 29.4402 20.0645 29.5283 19.8536C29.6165 19.6428 29.6618 19.4168 29.6618 19.1886C29.6618 18.9605 29.6165 18.7345 29.5283 18.5237C29.4402 18.3128 29.3111 18.1213 29.1482 17.9599C28.9854 17.7985 28.7921 17.6706 28.5794 17.5832C28.3666 17.4959 28.1386 17.451 27.9083 17.451C27.6781 17.451 27.45 17.4959 27.2373 17.5832C27.0246 17.6706 26.8313 17.7985 26.6684 17.9599V17.9945Z" fill="white"/>
</svg>
