<svg width="1440" height="4726" viewBox="0 0 1440 4726" fill="none" xmlns="http://www.w3.org/2000/svg">
<rect x="-16" y="19" width="1457" height="5183" fill="#130033"/>
<g filter="url(#filter0_d_647_82)">
<path d="M205 4106.9C227.973 4048.39 287.757 3921.42 336.448 3895.43C397.313 3862.94 421.032 3734.34 477.869 3703.21C534.705 3672.07 602.73 3618.38 645.246 3617.02C687.762 3615.67 692.685 3677.49 749.969 3673.43C807.253 3669.37 852.901 3750.14 861.852 3792.1C870.803 3834.06 833.657 3885.96 861.852 3972.59" stroke="#7246EC" stroke-opacity="0.39" shape-rendering="crispEdges"/>
</g>
<g filter="url(#filter1_d_647_82)">
<path d="M1440 1865C1399.73 1849.04 1308.51 1805.85 1290.62 1772.01C1268.27 1729.72 1179.76 1713.24 1158.33 1673.74C1136.9 1634.24 1099.95 1586.97 1099.02 1557.43C1098.08 1527.88 1140.63 1524.46 1137.83 1484.65C1135.04 1444.85 1190.63 1413.13 1219.51 1406.91C1248.39 1400.69 1284.1 1426.5 1343.73 1406.91C1391.43 1391.23 1418.88 1359.53 1426.65 1345.64L1440 1336" stroke="#7246EC" stroke-opacity="0.39" shape-rendering="crispEdges"/>
</g>
<g filter="url(#filter2_d_647_82)">
<path d="M3.5 1187C40.2255 1201.58 119.919 1239.51 136.233 1270.4C156.626 1309.02 237.346 1324.07 256.889 1360.13C276.432 1396.19 310.137 1439.35 310.986 1466.33C311.836 1493.3 273.033 1496.43 275.583 1532.77C278.132 1569.12 227.433 1598.08 201.093 1603.76C174.753 1609.44 142.181 1585.87 87.8012 1603.76C44.2971 1618.07 19.2596 1647.01 12.1789 1659.7L0 1668.5" stroke="#7246EC" stroke-opacity="0.39" shape-rendering="crispEdges"/>
</g>
<g filter="url(#filter3_d_647_82)">
<path d="M1336 19C1320.04 59.2681 1276.85 150.487 1243.01 168.375C1200.72 190.735 1184.24 279.242 1144.74 300.67C1105.24 322.098 1057.97 359.053 1028.43 359.985C998.883 360.917 995.462 318.371 955.655 321.166C915.848 323.961 884.126 268.372 877.907 239.491C871.687 210.61 897.499 174.897 877.907 115.271C862.232 67.5702 830.532 40.1175 816.641 32.3537L807 19" stroke="#7246EC" stroke-opacity="0.39" shape-rendering="crispEdges"/>
</g>
<g filter="url(#filter4_d_647_82)">
<path d="M452 2434.2C467.106 2394.28 506.416 2307.67 538.432 2289.94C578.453 2267.78 594.05 2180.05 631.422 2158.81C668.794 2137.57 713.524 2100.94 741.479 2100.01C769.435 2099.09 772.672 2141.26 810.339 2138.49C848.005 2135.72 878.021 2190.82 883.906 2219.45C889.792 2248.08 865.367 2283.47 883.906 2342.58C898.738 2389.86 928.733 2417.07 941.878 2424.76L951 2438" stroke="#7246EC" stroke-opacity="0.39" shape-rendering="crispEdges"/>
</g>
<g filter="url(#filter5_d_647_82)">
<path d="M1292.38 3192.55C1291.31 3222.74 1284.62 3289.72 1267.18 3308.87C1245.38 3332.81 1254.83 3395.16 1234.6 3417.88C1214.36 3440.6 1192.69 3475.31 1174.16 3482.27C1155.63 3489.24 1143.89 3461.7 1119.27 3472.1C1094.64 3482.51 1062.02 3452.38 1051.58 3434.53C1041.13 3416.67 1049.47 3387.4 1023.63 3351.99C1002.96 3323.66 976.677 3312.22 966.119 3310.05L957 3303.24" stroke="#7246EC" stroke-opacity="0.39" shape-rendering="crispEdges"/>
</g>
<defs>
<filter id="filter0_d_647_82" x="182.535" y="3598.5" width="703.247" height="534.581" filterUnits="userSpaceOnUse" color-interpolation-filters="sRGB">
<feFlood flood-opacity="0" result="BackgroundImageFix"/>
<feColorMatrix in="SourceAlpha" type="matrix" values="0 0 0 0 0 0 0 0 0 0 0 0 0 0 0 0 0 0 127 0" result="hardAlpha"/>
<feOffset dy="4"/>
<feGaussianBlur stdDeviation="11"/>
<feComposite in2="hardAlpha" operator="out"/>
<feColorMatrix type="matrix" values="0 0 0 0 0.537601 0 0 0 0 0.370833 0 0 0 0 1 0 0 0 1 0"/>
<feBlend mode="normal" in2="BackgroundImageFix" result="effect1_dropShadow_647_82"/>
<feBlend mode="normal" in="SourceGraphic" in2="effect1_dropShadow_647_82" result="shape"/>
</filter>
<filter id="filter1_d_647_82" x="1076.5" y="1317.59" width="385.793" height="573.87" filterUnits="userSpaceOnUse" color-interpolation-filters="sRGB">
<feFlood flood-opacity="0" result="BackgroundImageFix"/>
<feColorMatrix in="SourceAlpha" type="matrix" values="0 0 0 0 0 0 0 0 0 0 0 0 0 0 0 0 0 0 127 0" result="hardAlpha"/>
<feOffset dy="4"/>
<feGaussianBlur stdDeviation="11"/>
<feComposite in2="hardAlpha" operator="out"/>
<feColorMatrix type="matrix" values="0 0 0 0 0.537601 0 0 0 0 0.370833 0 0 0 0 1 0 0 0 1 0"/>
<feBlend mode="normal" in2="BackgroundImageFix" result="effect1_dropShadow_647_82"/>
<feBlend mode="normal" in="SourceGraphic" in2="effect1_dropShadow_647_82" result="shape"/>
</filter>
<filter id="filter2_d_647_82" x="-22.293" y="1168.54" width="355.793" height="526.37" filterUnits="userSpaceOnUse" color-interpolation-filters="sRGB">
<feFlood flood-opacity="0" result="BackgroundImageFix"/>
<feColorMatrix in="SourceAlpha" type="matrix" values="0 0 0 0 0 0 0 0 0 0 0 0 0 0 0 0 0 0 127 0" result="hardAlpha"/>
<feOffset dy="4"/>
<feGaussianBlur stdDeviation="11"/>
<feComposite in2="hardAlpha" operator="out"/>
<feColorMatrix type="matrix" values="0 0 0 0 0.537601 0 0 0 0 0.370833 0 0 0 0 1 0 0 0 1 0"/>
<feBlend mode="normal" in2="BackgroundImageFix" result="effect1_dropShadow_647_82"/>
<feBlend mode="normal" in="SourceGraphic" in2="effect1_dropShadow_647_82" result="shape"/>
</filter>
<filter id="filter3_d_647_82" x="784.594" y="0.707325" width="573.87" height="385.793" filterUnits="userSpaceOnUse" color-interpolation-filters="sRGB">
<feFlood flood-opacity="0" result="BackgroundImageFix"/>
<feColorMatrix in="SourceAlpha" type="matrix" values="0 0 0 0 0 0 0 0 0 0 0 0 0 0 0 0 0 0 127 0" result="hardAlpha"/>
<feOffset dy="4"/>
<feGaussianBlur stdDeviation="11"/>
<feComposite in2="hardAlpha" operator="out"/>
<feColorMatrix type="matrix" values="0 0 0 0 0.537601 0 0 0 0 0.370833 0 0 0 0 1 0 0 0 1 0"/>
<feBlend mode="normal" in2="BackgroundImageFix" result="effect1_dropShadow_647_82"/>
<feBlend mode="normal" in="SourceGraphic" in2="effect1_dropShadow_647_82" result="shape"/>
</filter>
<filter id="filter4_d_647_82" x="429.532" y="2081.5" width="543.879" height="382.784" filterUnits="userSpaceOnUse" color-interpolation-filters="sRGB">
<feFlood flood-opacity="0" result="BackgroundImageFix"/>
<feColorMatrix in="SourceAlpha" type="matrix" values="0 0 0 0 0 0 0 0 0 0 0 0 0 0 0 0 0 0 127 0" result="hardAlpha"/>
<feOffset dy="4"/>
<feGaussianBlur stdDeviation="11"/>
<feComposite in2="hardAlpha" operator="out"/>
<feColorMatrix type="matrix" values="0 0 0 0 0.537601 0 0 0 0 0.370833 0 0 0 0 1 0 0 0 1 0"/>
<feBlend mode="normal" in2="BackgroundImageFix" result="effect1_dropShadow_647_82"/>
<feBlend mode="normal" in="SourceGraphic" in2="effect1_dropShadow_647_82" result="shape"/>
</filter>
<filter id="filter5_d_647_82" x="934.701" y="3174.53" width="380.181" height="335.384" filterUnits="userSpaceOnUse" color-interpolation-filters="sRGB">
<feFlood flood-opacity="0" result="BackgroundImageFix"/>
<feColorMatrix in="SourceAlpha" type="matrix" values="0 0 0 0 0 0 0 0 0 0 0 0 0 0 0 0 0 0 127 0" result="hardAlpha"/>
<feOffset dy="4"/>
<feGaussianBlur stdDeviation="11"/>
<feComposite in2="hardAlpha" operator="out"/>
<feColorMatrix type="matrix" values="0 0 0 0 0.537601 0 0 0 0 0.370833 0 0 0 0 1 0 0 0 1 0"/>
<feBlend mode="normal" in2="BackgroundImageFix" result="effect1_dropShadow_647_82"/>
<feBlend mode="normal" in="SourceGraphic" in2="effect1_dropShadow_647_82" result="shape"/>
</filter>
</defs>
</svg>
