<svg width="56" height="55" viewBox="0 0 56 55" fill="none" xmlns="http://www.w3.org/2000/svg">
<path d="M9.7813 4.43308e-06H45.3145C46.5943 -0.00123229 47.8618 0.256305 49.0444 0.757877C50.227 1.25945 51.3016 1.99521 52.2065 2.92305C53.1115 3.85089 53.8291 4.95259 54.3183 6.16511C54.8075 7.37763 55.0587 8.67716 55.0575 9.98932V45.0107C55.0587 46.3228 54.8075 47.6224 54.3183 48.8349C53.8291 50.0474 53.1115 51.1491 52.2065 52.077C51.3016 53.0048 50.227 53.7406 49.0444 54.2421C47.8618 54.7437 46.5943 55.0012 45.3145 55H9.7813C8.50149 55.0012 7.23401 54.7437 6.05139 54.2421C4.86878 53.7406 3.79424 53.0048 2.88928 52.077C1.98432 51.1491 1.26671 50.0474 0.777502 48.8349C0.288299 47.6224 0.0371129 46.3228 0.0383191 45.0107V9.98932C0.0371129 8.67716 0.288299 7.37763 0.777502 6.16511C1.26671 4.95259 1.98432 3.85089 2.88928 2.92305C3.79424 1.99521 4.86878 1.25945 6.05139 0.757877C7.23401 0.256305 8.50149 -0.00123229 9.7813 4.43308e-06Z" fill="#49021F"/>
<path d="M20.0286 14.3846V38.5C20.0286 38.7585 19.914 38.876 19.7076 38.876H15.2144C15.0081 38.876 14.9164 38.7585 14.9164 38.5V14.3846C14.9164 14.1731 15.031 14.079 15.2373 14.079H19.7076C19.7424 14.0734 19.7779 14.0751 19.812 14.084C19.8461 14.093 19.878 14.1089 19.9059 14.1309C19.9338 14.1529 19.957 14.1805 19.9742 14.212C19.9913 14.2435 20.002 14.2782 20.0057 14.3141C20.0143 14.3234 20.0209 14.3345 20.0248 14.3467C20.0288 14.3589 20.0301 14.3718 20.0286 14.3846Z" fill="#FF3366"/>
<path d="M33.2332 39.2521C31.5339 39.2807 29.8499 38.9193 28.3044 38.1944C26.8665 37.505 25.6614 36.3922 24.8428 34.9979C23.9946 33.5641 23.582 31.7778 23.582 29.6389C23.5587 27.8995 23.9944 26.1859 24.8428 24.6795C25.7128 23.1484 26.9728 21.889 28.4878 21.0363C30.0926 20.1197 32.0182 19.6731 34.2878 19.6731C34.4485 19.6712 34.6093 19.6791 34.7692 19.6966C34.9755 19.7201 35.2048 19.7201 35.4798 19.7436V12.3162C35.4798 12.1517 35.5486 12.0577 35.7091 12.0577H40.3628C40.4142 12.0506 40.4663 12.0635 40.5088 12.094C40.5513 12.1245 40.581 12.1703 40.592 12.2222V34.6453C40.592 35.0684 40.615 35.5385 40.6379 36.0556C40.6608 36.5726 40.7067 37.0192 40.7296 37.4188C40.7345 37.4982 40.715 37.5771 40.6739 37.6446C40.6328 37.712 40.5721 37.7646 40.5003 37.7949C39.2996 38.3123 38.0463 38.6907 36.7636 38.9231C35.5986 39.1396 34.4172 39.2497 33.2332 39.2521ZM35.4798 34.5513V24.2094C35.2757 24.1589 35.0691 24.1197 34.8609 24.0919C34.6087 24.0684 34.3565 24.0449 34.1044 24.0449C33.2058 24.0345 32.3177 24.244 31.5139 24.656C30.7305 25.0562 30.0598 25.6549 29.5653 26.3953C29.0609 27.1474 28.8088 28.1581 28.8088 29.3803C28.7888 30.2053 28.921 31.0267 29.1985 31.8013C29.4202 32.4277 29.7722 32.9971 30.2301 33.4701C30.6721 33.9025 31.2056 34.2243 31.789 34.4103C32.403 34.6165 33.0456 34.7196 33.6917 34.7158C34.0356 34.7158 34.3565 34.6923 34.6546 34.6688C34.9347 34.6909 35.2162 34.6509 35.4798 34.5513Z" fill="#FF3366"/>
</svg>
