<svg width="18" height="19" viewBox="0 0 18 19" fill="none" xmlns="http://www.w3.org/2000/svg">
<path fill-rule="evenodd" clip-rule="evenodd" d="M5 9.04088C5 6.83174 6.79086 5.04088 9 5.04088C11.2091 5.04088 13 6.83174 13 9.04088C13 11.25 11.2091 13.0409 9 13.0409C6.79086 13.0409 5 11.25 5 9.04088ZM9 7.04088C7.89543 7.04088 7 7.93631 7 9.04088C7 10.1455 7.89543 11.0409 9 11.0409C10.1046 11.0409 11 10.1455 11 9.04088C11 7.93631 10.1046 7.04088 9 7.04088Z" fill="white"/>
<path d="M13.5 5.54088C14.0523 5.54088 14.5 5.09317 14.5 4.54088C14.5 3.9886 14.0523 3.54088 13.5 3.54088C12.9477 3.54088 12.5 3.9886 12.5 4.54088C12.5 5.09317 12.9477 5.54088 13.5 5.54088Z" fill="white"/>
<path fill-rule="evenodd" clip-rule="evenodd" d="M0 5.04088C0 2.27946 2.23858 0.0408821 5 0.0408821H13C15.7614 0.0408821 18 2.27946 18 5.04088V13.0409C18 15.8023 15.7614 18.0409 13 18.0409H5C2.23858 18.0409 0 15.8023 0 13.0409V5.04088ZM5 2.04088C3.34315 2.04088 2 3.38403 2 5.04088V13.0409C2 14.6977 3.34315 16.0409 5 16.0409H13C14.6569 16.0409 16 14.6977 16 13.0409V5.04088C16 3.38403 14.6569 2.04088 13 2.04088H5Z" fill="white"/>
</svg>
