<svg width="43" height="43" viewBox="0 0 43 43" fill="none" xmlns="http://www.w3.org/2000/svg">
<path d="M40.0146 36.9615C41.3613 35.1563 42.2854 33.0718 42.7188 30.8617C43.1522 28.6516 43.0839 26.3723 42.5187 24.1922C41.9536 22.012 40.9062 19.9866 39.4538 18.2654C38.0013 16.5442 36.1809 15.1711 34.1269 14.2475C33.6795 11.6733 32.6513 9.23494 31.1204 7.11772C29.5894 5.0005 27.5961 3.26011 25.2918 2.02878C22.9875 0.797452 20.4328 0.107588 17.8219 0.0116051C15.2111 -0.0843777 12.6126 0.416046 10.2241 1.47485C7.83565 2.53366 5.7199 4.12299 4.03766 6.12209C2.35542 8.12118 1.15095 10.4774 0.515768 13.0118C-0.119411 15.5462 -0.168587 18.1921 0.371976 20.7483C0.912539 23.3045 2.02862 25.7039 3.63541 27.7642L0.648577 30.7297C0.350414 31.0319 0.148435 31.4156 0.068125 31.8325C-0.0121846 32.2493 0.0327741 32.6807 0.197328 33.072C0.358532 33.4644 0.632284 33.8004 0.984087 34.0375C1.33589 34.2746 1.75 34.4022 2.17423 34.4043H14.4009C15.6185 36.9714 17.5382 39.1412 19.9378 40.6624C22.3374 42.1836 25.1188 42.9941 27.9599 43H40.8527C41.2769 42.9979 41.691 42.8702 42.0428 42.6331C42.3946 42.396 42.6684 42.0601 42.8296 41.6677C42.9941 41.2763 43.0391 40.845 42.9588 40.4281C42.8785 40.0113 42.6765 39.6275 42.3783 39.3254L40.0146 36.9615ZM12.9182 27.9576C12.9212 28.6772 12.9787 29.3956 13.0901 30.1065H7.35284L8.10492 29.3759C8.30633 29.1761 8.46618 28.9384 8.57528 28.6765C8.68437 28.4147 8.74053 28.1338 8.74053 27.8501C8.74053 27.5664 8.68437 27.2856 8.57528 27.0237C8.46618 26.7618 8.30633 26.5242 8.10492 26.3244C6.90065 25.1333 5.94591 23.714 5.29655 22.1495C4.64719 20.5851 4.31623 18.9068 4.32303 17.213C4.32303 13.7934 5.68138 10.5139 8.09925 8.09588C10.5171 5.67788 13.7965 4.31946 17.2158 4.31946C19.884 4.30343 22.4901 5.12398 24.6677 6.66579C26.8454 8.20759 28.4852 10.3931 29.3566 12.9151C28.8838 12.9151 28.4326 12.9151 27.9599 12.9151C23.9706 12.9151 20.1447 14.5 17.3238 17.321C14.503 20.142 12.9182 23.9681 12.9182 27.9576ZM35.5666 38.7022L35.6741 38.8096H27.9599C25.4744 38.8052 23.0674 37.9391 21.1488 36.359C19.2303 34.7788 17.9189 32.5824 17.438 30.1438C16.9572 27.7051 17.3366 25.1752 18.5117 22.985C19.6868 20.7948 21.5849 19.0798 23.8826 18.1321C26.1803 17.1844 28.7355 17.0627 31.1129 17.7877C33.4902 18.5127 35.5427 20.0395 36.9207 22.1081C38.2986 24.1767 38.9168 26.6591 38.6699 29.1324C38.423 31.6057 37.3263 33.9168 35.5666 35.6722C35.1618 36.0689 34.9301 36.6096 34.922 37.1764C34.9232 37.4608 34.9807 37.742 35.0914 38.0039C35.2021 38.2658 35.3636 38.5031 35.5666 38.7022Z" fill="white"/>
</svg>
