<svg width="33" height="45" viewBox="0 0 33 45" fill="none" xmlns="http://www.w3.org/2000/svg">
<path d="M27.0005 3.72515C25.1034 2.17802 22.8819 1.07036 20.4982 0.482971C18.1144 -0.104419 15.6285 -0.156718 13.2217 0.32989C10.0171 0.971761 7.07693 2.54309 4.77435 4.84452C2.47176 7.14594 0.910498 10.0737 0.288656 13.2564C-0.165451 15.6427 -0.0829329 18.099 0.530325 20.4501C1.14358 22.8012 2.27247 24.9891 3.83648 26.8579C5.28796 28.482 6.11994 30.5589 6.18794 32.728V38.864C6.18794 40.4914 6.8399 42.0521 8.00038 43.2028C9.16087 44.3535 10.7348 45 12.376 45H20.6268C22.2679 45 23.8419 44.3535 25.0024 43.2028C26.1629 42.0521 26.8148 40.4914 26.8148 38.864V33.1166C26.884 30.7219 27.7713 28.4214 29.3313 26.592C32.0646 23.2392 33.353 18.9523 32.9166 14.6628C32.4801 10.3734 30.3541 6.42803 27.0005 3.68424V3.72515ZM22.6894 38.864C22.6894 39.4065 22.4721 39.9267 22.0853 40.3103C21.6985 40.6938 21.1738 40.9093 20.6268 40.9093H12.376C11.8289 40.9093 11.3043 40.6938 10.9175 40.3103C10.5306 39.9267 10.3133 39.4065 10.3133 38.864V36.8187H22.6894V38.864ZM26.1341 24.0558C24.0601 26.495 22.85 29.5414 22.6894 32.728H18.5641V26.592C18.5641 26.0495 18.3467 25.5293 17.9599 25.1457C17.5731 24.7621 17.0484 24.5467 16.5014 24.5467C15.9543 24.5467 15.4297 24.7621 15.0428 25.1457C14.656 25.5293 14.4387 26.0495 14.4387 26.592V32.728H10.3133C10.2589 29.5947 9.09003 26.5813 7.01302 24.2194C5.64265 22.5913 4.72115 20.6389 4.33835 18.5525C3.95556 16.4661 4.12453 14.3169 4.82881 12.3146C5.53309 10.3122 6.74863 8.52502 8.3569 7.1272C9.96518 5.72939 11.9113 4.76867 14.0055 4.33875C15.8053 3.97129 17.6651 4.00585 19.4497 4.43993C21.2344 4.874 22.8991 5.69669 24.3232 6.84827C25.7472 7.99986 26.8948 9.45142 27.6825 11.0976C28.4703 12.7438 28.8785 14.5432 28.8775 16.3653C28.8928 19.1671 27.9227 21.8866 26.1341 24.0558Z" fill="white"/>
</svg>
