<svg width="275" height="223" viewBox="0 0 275 223" fill="none" xmlns="http://www.w3.org/2000/svg">
<path fill-rule="evenodd" clip-rule="evenodd" d="M12.4101 75.2388L12.2457 75.3498C4.59528 80.5197 0 89.2232 0 98.5432V209.062C0 216.76 6.15609 223 13.75 223H27.5C35.0939 223 41.25 216.76 41.25 209.062V195.125H233.75V209.062C233.75 216.76 239.906 223 247.5 223H261.25C268.844 223 275 216.76 275 209.062V98.5433C275 89.2232 270.405 80.5197 262.754 75.3498L262.59 75.2388C267.601 72.305 272.14 69.4232 273.022 68.1389C275.148 65.0417 276.126 55.75 273.022 55.75H247.5L231.401 23.1134C224.414 8.94797 210.13 0 194.506 0H80.4939C64.8696 0 50.5862 8.94797 43.5988 23.1134L27.5 55.75H1.97837C-1.12561 55.75 -0.148433 65.0417 1.97837 68.1389C2.86026 69.4232 7.39891 72.305 12.4101 75.2388ZM56.402 28.6948L32.8922 73.3768C30.4498 78.0188 33.7683 83.625 38.9583 83.625H236.042C241.232 83.625 244.55 78.0188 242.108 73.3768L218.598 28.6948C213.819 19.6114 204.489 13.9375 194.333 13.9375H80.6667C70.5106 13.9375 61.1813 19.6114 56.402 28.6948ZM13.75 126.551V109.695C13.75 104.317 19.5058 100.966 24.0891 103.676L69.998 130.821C76.3249 134.562 73.2624 144.402 65.963 143.785L26.3581 140.44C19.2316 139.838 13.75 133.799 13.75 126.551ZM261.25 109.695V126.551C261.25 133.799 255.768 139.838 248.642 140.44L209.037 143.785C201.738 144.402 198.675 134.562 205.002 130.821L250.911 103.676C255.494 100.966 261.25 104.317 261.25 109.695Z" fill="white" fill-opacity="0.14"/>
</svg>
