<svg width="27" height="34" viewBox="0 0 27 34" fill="none" xmlns="http://www.w3.org/2000/svg">
<path d="M13.5 0C9.91958 0 6.4858 1.43285 3.95406 3.98334C1.42232 6.53382 0 9.99302 0 13.6C0 22.7799 11.8969 33.1499 12.4031 33.5919C12.7088 33.8553 13.0978 34 13.5 34C13.9022 34 14.2912 33.8553 14.5969 33.5919C15.1875 33.1499 27 22.7799 27 13.6C27 9.99302 25.5777 6.53382 23.0459 3.98334C20.5142 1.43285 17.0804 0 13.5 0ZM13.5 30.0049C9.90562 26.6049 3.375 19.2779 3.375 13.6C3.375 10.8948 4.44174 8.30035 6.34054 6.38749C8.23935 4.47463 10.8147 3.39999 13.5 3.39999C16.1853 3.39999 18.7607 4.47463 20.6595 6.38749C22.5583 8.30035 23.625 10.8948 23.625 13.6C23.625 19.2779 17.0944 26.6219 13.5 30.0049ZM13.5 6.79998C12.165 6.79998 10.8599 7.19879 9.7499 7.94598C8.63987 8.69317 7.7747 9.75518 7.26381 10.9977C6.75292 12.2402 6.61925 13.6075 6.8797 14.9266C7.14015 16.2456 7.78302 17.4573 8.72703 18.4083C9.67103 19.3593 10.8738 20.0069 12.1831 20.2693C13.4925 20.5317 14.8497 20.397 16.0831 19.8823C17.3165 19.3676 18.3707 18.4961 19.1124 17.3778C19.8541 16.2596 20.25 14.9449 20.25 13.6C20.25 11.7965 19.5388 10.0669 18.273 8.79165C17.0071 7.5164 15.2902 6.79998 13.5 6.79998ZM13.5 16.9999C12.8325 16.9999 12.18 16.8005 11.625 16.4269C11.0699 16.0533 10.6374 15.5223 10.3819 14.9011C10.1265 14.2798 10.0596 13.5962 10.1898 12.9367C10.3201 12.2771 10.6415 11.6713 11.1135 11.1958C11.5855 10.7203 12.1869 10.3965 12.8416 10.2653C13.4963 10.1341 14.1749 10.2014 14.7916 10.4588C15.4083 10.7161 15.9354 11.1519 16.3062 11.711C16.6771 12.2701 16.875 12.9275 16.875 13.6C16.875 14.5017 16.5194 15.3665 15.8865 16.0041C15.2535 16.6417 14.3951 16.9999 13.5 16.9999Z" fill="white"/>
</svg>
