<svg width="279" height="36" viewBox="0 0 279 36" fill="none" xmlns="http://www.w3.org/2000/svg">
<g clip-path="url(#clip0_76_3300)">
<path d="M25.669 0.303223H35.6975V8.1591" stroke="#7931ED" stroke-width="1.5" stroke-miterlimit="10"/>
<path d="M9.57255 0.387756H0.386856V8.07455" stroke="white" stroke-width="1.5" stroke-miterlimit="10"/>
<path d="M9.57255 35.6968H0.302513V26.5738" stroke="#7931ED" stroke-width="1.5" stroke-miterlimit="10"/>
<path d="M25.669 35.6968H35.6135V26.5738" stroke="white" stroke-width="1.5" stroke-miterlimit="10"/>
<path d="M17.79 19.82C17.8833 19.98 17.9633 20.15 18.03 20.33C18.1033 20.5033 18.1733 20.68 18.24 20.86C18.3067 20.6733 18.3767 20.4967 18.45 20.33C18.5233 20.1567 18.6067 19.9833 18.7 19.81L23.55 11C23.6367 10.8467 23.7267 10.7533 23.82 10.72C23.9133 10.6867 24.0467 10.67 24.22 10.67H25.65V25H23.95V14.47C23.95 14.33 23.9533 14.18 23.96 14.02C23.9667 13.86 23.9767 13.6967 23.99 13.53L19.08 22.49C18.9133 22.79 18.68 22.94 18.38 22.94H18.1C17.8 22.94 17.5667 22.79 17.4 22.49L12.38 13.5C12.4 13.6733 12.4133 13.8433 12.42 14.01C12.4333 14.1767 12.44 14.33 12.44 14.47V25H10.74V10.67H12.17C12.3433 10.67 12.4767 10.6867 12.57 10.72C12.6633 10.7533 12.7533 10.8467 12.84 11L17.79 19.82Z" fill="white"/>
</g>
<path d="M58.7578 11.5H61.6875L66.7813 23.9375H66.9688L72.0625 11.5H74.9922V27.5H72.6953V15.9219H72.5469L67.8281 27.4766H65.9219L61.2031 15.9141H61.0547V27.5H58.7578V11.5ZM78.3145 27.5V15.5H80.6504V27.5H78.3145ZM79.4941 13.6484C79.0879 13.6484 78.7389 13.513 78.4473 13.2422C78.1608 12.9661 78.0176 12.638 78.0176 12.2578C78.0176 11.8724 78.1608 11.5443 78.4473 11.2734C78.7389 10.9974 79.0879 10.8594 79.4941 10.8594C79.9004 10.8594 80.2467 10.9974 80.5332 11.2734C80.8249 11.5443 80.9707 11.8724 80.9707 12.2578C80.9707 12.638 80.8249 12.9661 80.5332 13.2422C80.2467 13.513 79.9004 13.6484 79.4941 13.6484ZM88.8477 27.7422C87.6862 27.7422 86.6862 27.4792 85.8477 26.9531C85.0143 26.4219 84.3737 25.6901 83.9258 24.7578C83.4779 23.8255 83.2539 22.7578 83.2539 21.5547C83.2539 20.3359 83.4831 19.2604 83.9414 18.3281C84.3997 17.3906 85.0456 16.6589 85.8789 16.1328C86.7122 15.6068 87.694 15.3438 88.8242 15.3438C89.7357 15.3438 90.5482 15.513 91.2617 15.8516C91.9753 16.1849 92.5508 16.6536 92.9883 17.2578C93.431 17.862 93.694 18.5677 93.7773 19.375H91.5039C91.3789 18.8125 91.0924 18.3281 90.6445 17.9219C90.2018 17.5156 89.6081 17.3125 88.8633 17.3125C88.2122 17.3125 87.6419 17.4844 87.1523 17.8281C86.668 18.1667 86.2904 18.651 86.0195 19.2812C85.7487 19.9062 85.6133 20.6458 85.6133 21.5C85.6133 22.375 85.7461 23.1302 86.0117 23.7656C86.2773 24.401 86.6523 24.8932 87.1367 25.2422C87.6263 25.5911 88.2018 25.7656 88.8633 25.7656C89.306 25.7656 89.707 25.6849 90.0664 25.5234C90.431 25.3568 90.7357 25.1198 90.9805 24.8125C91.2305 24.5052 91.4049 24.1354 91.5039 23.7031H93.7773C93.694 24.4792 93.4414 25.1719 93.0195 25.7812C92.5977 26.3906 92.0326 26.8698 91.3242 27.2187C90.6211 27.5677 89.7956 27.7422 88.8477 27.7422ZM98.6113 20.375V27.5H96.2754V11.5H98.5801V17.4531H98.7285C99.0098 16.8073 99.4395 16.2943 100.018 15.9141C100.596 15.5339 101.351 15.3438 102.283 15.3438C103.106 15.3438 103.825 15.513 104.439 15.8516C105.059 16.1901 105.538 16.6953 105.877 17.3672C106.221 18.0339 106.393 18.8672 106.393 19.8672V27.5H104.057V20.1484C104.057 19.2682 103.83 18.5859 103.377 18.1016C102.924 17.612 102.294 17.3672 101.486 17.3672C100.934 17.3672 100.439 17.4844 100.002 17.7187C99.5697 17.9531 99.2285 18.2969 98.9785 18.75C98.7337 19.1979 98.6113 19.7396 98.6113 20.375ZM113.002 27.7656C112.242 27.7656 111.554 27.625 110.939 27.3437C110.325 27.0573 109.838 26.6432 109.479 26.1016C109.124 25.5599 108.947 24.8958 108.947 24.1094C108.947 23.4323 109.077 22.875 109.338 22.4375C109.598 22 109.95 21.6536 110.393 21.3984C110.835 21.1432 111.33 20.9505 111.877 20.8203C112.424 20.6901 112.981 20.5911 113.549 20.5234C114.268 20.4401 114.851 20.3724 115.299 20.3203C115.747 20.263 116.072 20.1719 116.275 20.0469C116.479 19.9219 116.58 19.7187 116.58 19.4375V19.3828C116.58 18.7005 116.387 18.1719 116.002 17.7969C115.622 17.4219 115.054 17.2344 114.299 17.2344C113.512 17.2344 112.893 17.4089 112.439 17.7578C111.992 18.1016 111.682 18.4844 111.51 18.9062L109.314 18.4062C109.575 17.6771 109.955 17.0885 110.455 16.6406C110.96 16.1875 111.541 15.8594 112.197 15.6562C112.854 15.4479 113.544 15.3438 114.268 15.3438C114.747 15.3438 115.255 15.401 115.791 15.5156C116.333 15.625 116.838 15.8281 117.307 16.125C117.781 16.4219 118.169 16.8464 118.471 17.3984C118.773 17.9453 118.924 18.6563 118.924 19.5313V27.5H116.643V25.8594H116.549C116.398 26.1615 116.171 26.4583 115.869 26.75C115.567 27.0417 115.179 27.2839 114.705 27.4766C114.231 27.6693 113.663 27.7656 113.002 27.7656ZM113.51 25.8906C114.156 25.8906 114.708 25.763 115.166 25.5078C115.63 25.2526 115.981 24.9193 116.221 24.5078C116.465 24.0911 116.588 23.6458 116.588 23.1719V21.625C116.505 21.7083 116.343 21.7865 116.104 21.8594C115.869 21.9271 115.601 21.987 115.299 22.0391C114.997 22.0859 114.702 22.1302 114.416 22.1719C114.13 22.2083 113.89 22.2396 113.697 22.2656C113.244 22.3229 112.83 22.4193 112.455 22.5547C112.085 22.6901 111.788 22.8854 111.564 23.1406C111.346 23.3906 111.236 23.724 111.236 24.1406C111.236 24.7187 111.45 25.1562 111.877 25.4531C112.304 25.7448 112.848 25.8906 113.51 25.8906ZM127.207 27.7422C126.025 27.7422 125.007 27.4896 124.152 26.9844C123.303 26.474 122.647 25.7578 122.184 24.8359C121.725 23.9089 121.496 22.8229 121.496 21.5781C121.496 20.349 121.725 19.2656 122.184 18.3281C122.647 17.3906 123.293 16.6589 124.121 16.1328C124.954 15.6068 125.928 15.3438 127.043 15.3438C127.72 15.3438 128.376 15.4557 129.012 15.6797C129.647 15.9036 130.217 16.2552 130.723 16.7344C131.228 17.2135 131.626 17.8359 131.918 18.6016C132.21 19.362 132.355 20.2865 132.355 21.375V22.2031H122.816V20.4531H130.066C130.066 19.8385 129.941 19.2943 129.691 18.8203C129.441 18.3411 129.09 17.9635 128.637 17.6875C128.189 17.4115 127.663 17.2734 127.059 17.2734C126.402 17.2734 125.829 17.4349 125.34 17.7578C124.855 18.0755 124.48 18.4922 124.215 19.0078C123.954 19.5182 123.824 20.0729 123.824 20.6719V22.0391C123.824 22.8411 123.965 23.5234 124.246 24.0859C124.533 24.6484 124.931 25.0781 125.441 25.375C125.952 25.6667 126.548 25.8125 127.23 25.8125C127.673 25.8125 128.077 25.75 128.441 25.625C128.806 25.4948 129.121 25.3021 129.387 25.0469C129.652 24.7917 129.855 24.4766 129.996 24.1016L132.207 24.5C132.03 25.151 131.712 25.7214 131.254 26.2109C130.801 26.6953 130.23 27.0729 129.543 27.3437C128.861 27.6094 128.082 27.7422 127.207 27.7422ZM137.283 11.5V27.5H134.947V11.5H137.283ZM143.918 27.7656C143.158 27.7656 142.47 27.625 141.855 27.3437C141.241 27.0573 140.754 26.6432 140.395 26.1016C140.04 25.5599 139.863 24.8958 139.863 24.1094C139.863 23.4323 139.993 22.875 140.254 22.4375C140.514 22 140.866 21.6536 141.309 21.3984C141.751 21.1432 142.246 20.9505 142.793 20.8203C143.34 20.6901 143.897 20.5911 144.465 20.5234C145.184 20.4401 145.767 20.3724 146.215 20.3203C146.663 20.263 146.988 20.1719 147.191 20.0469C147.395 19.9219 147.496 19.7187 147.496 19.4375V19.3828C147.496 18.7005 147.303 18.1719 146.918 17.7969C146.538 17.4219 145.97 17.2344 145.215 17.2344C144.428 17.2344 143.809 17.4089 143.355 17.7578C142.908 18.1016 142.598 18.4844 142.426 18.9062L140.23 18.4062C140.491 17.6771 140.871 17.0885 141.371 16.6406C141.876 16.1875 142.457 15.8594 143.113 15.6562C143.77 15.4479 144.46 15.3438 145.184 15.3438C145.663 15.3438 146.171 15.401 146.707 15.5156C147.249 15.625 147.754 15.8281 148.223 16.125C148.697 16.4219 149.085 16.8464 149.387 17.3984C149.689 17.9453 149.84 18.6563 149.84 19.5313V27.5H147.559V25.8594H147.465C147.314 26.1615 147.087 26.4583 146.785 26.75C146.483 27.0417 146.095 27.2839 145.621 27.4766C145.147 27.6693 144.579 27.7656 143.918 27.7656ZM144.426 25.8906C145.072 25.8906 145.624 25.763 146.082 25.5078C146.546 25.2526 146.897 24.9193 147.137 24.5078C147.382 24.0911 147.504 23.6458 147.504 23.1719V21.625C147.421 21.7083 147.259 21.7865 147.02 21.8594C146.785 21.9271 146.517 21.987 146.215 22.0391C145.913 22.0859 145.618 22.1302 145.332 22.1719C145.046 22.2083 144.806 22.2396 144.613 22.2656C144.16 22.3229 143.746 22.4193 143.371 22.5547C143.001 22.6901 142.704 22.8854 142.48 23.1406C142.262 23.3906 142.152 23.724 142.152 24.1406C142.152 24.7187 142.366 25.1562 142.793 25.4531C143.22 25.7448 143.764 25.8906 144.426 25.8906ZM158.961 11.5H161.891L166.984 23.9375H167.172L172.266 11.5H175.195V27.5H172.898V15.9219H172.75L168.031 27.4766H166.125L161.406 15.9141H161.258V27.5H158.961V11.5ZM178.518 27.5V15.5H180.775V17.4062H180.9C181.119 16.7604 181.505 16.2526 182.057 15.8828C182.614 15.5078 183.244 15.3203 183.947 15.3203C184.093 15.3203 184.265 15.3255 184.463 15.3359C184.666 15.3464 184.825 15.3594 184.939 15.375V17.6094C184.846 17.5833 184.679 17.5547 184.439 17.5234C184.2 17.487 183.96 17.4687 183.721 17.4687C183.169 17.4687 182.676 17.5859 182.244 17.8203C181.817 18.0495 181.479 18.3698 181.229 18.7812C180.979 19.1875 180.854 19.651 180.854 20.1719V27.5H178.518ZM190.346 27.7656C189.585 27.7656 188.898 27.625 188.283 27.3437C187.669 27.0573 187.182 26.6432 186.822 26.1016C186.468 25.5599 186.291 24.8958 186.291 24.1094C186.291 23.4323 186.421 22.875 186.682 22.4375C186.942 22 187.294 21.6536 187.736 21.3984C188.179 21.1432 188.674 20.9505 189.221 20.8203C189.768 20.6901 190.325 20.5911 190.893 20.5234C191.611 20.4401 192.195 20.3724 192.643 20.3203C193.09 20.263 193.416 20.1719 193.619 20.0469C193.822 19.9219 193.924 19.7187 193.924 19.4375V19.3828C193.924 18.7005 193.731 18.1719 193.346 17.7969C192.965 17.4219 192.398 17.2344 191.643 17.2344C190.856 17.2344 190.236 17.4089 189.783 17.7578C189.335 18.1016 189.025 18.4844 188.854 18.9062L186.658 18.4062C186.919 17.6771 187.299 17.0885 187.799 16.6406C188.304 16.1875 188.885 15.8594 189.541 15.6562C190.197 15.4479 190.887 15.3438 191.611 15.3438C192.09 15.3438 192.598 15.401 193.135 15.5156C193.676 15.625 194.182 15.8281 194.65 16.125C195.124 16.4219 195.512 16.8464 195.814 17.3984C196.117 17.9453 196.268 18.6563 196.268 19.5313V27.5H193.986V25.8594H193.893C193.742 26.1615 193.515 26.4583 193.213 26.75C192.911 27.0417 192.523 27.2839 192.049 27.4766C191.575 27.6693 191.007 27.7656 190.346 27.7656ZM190.854 25.8906C191.499 25.8906 192.051 25.763 192.51 25.5078C192.973 25.2526 193.325 24.9193 193.564 24.5078C193.809 24.0911 193.932 23.6458 193.932 23.1719V21.625C193.848 21.7083 193.687 21.7865 193.447 21.8594C193.213 21.9271 192.945 21.987 192.643 22.0391C192.34 22.0859 192.046 22.1302 191.76 22.1719C191.473 22.2083 191.234 22.2396 191.041 22.2656C190.588 22.3229 190.174 22.4193 189.799 22.5547C189.429 22.6901 189.132 22.8854 188.908 23.1406C188.689 23.3906 188.58 23.724 188.58 24.1406C188.58 24.7187 188.794 25.1562 189.221 25.4531C189.648 25.7448 190.192 25.8906 190.854 25.8906ZM190.768 13.8984L192.596 10.2969H195.057L192.635 13.8984H190.768ZM199.129 27.5V25.8984L205.629 17.6406V17.5312H199.34V15.5H208.543V17.2031L202.293 25.3594V25.4687H208.762V27.5H199.129ZM213.666 23.4297L213.65 20.5781H214.057L218.838 15.5H221.635L216.182 21.2812H215.814L213.666 23.4297ZM211.518 27.5V11.5H213.854V27.5H211.518ZM219.096 27.5L214.799 21.7969L216.408 20.1641L221.963 27.5H219.096ZM228.324 27.7422C227.199 27.7422 226.217 27.4844 225.379 26.9687C224.54 26.4531 223.889 25.7318 223.426 24.8047C222.962 23.8776 222.73 22.7943 222.73 21.5547C222.73 20.3099 222.962 19.2214 223.426 18.2891C223.889 17.3568 224.54 16.6328 225.379 16.1172C226.217 15.6016 227.199 15.3438 228.324 15.3438C229.449 15.3438 230.431 15.6016 231.27 16.1172C232.108 16.6328 232.759 17.3568 233.223 18.2891C233.686 19.2214 233.918 20.3099 233.918 21.5547C233.918 22.7943 233.686 23.8776 233.223 24.8047C232.759 25.7318 232.108 26.4531 231.27 26.9687C230.431 27.4844 229.449 27.7422 228.324 27.7422ZM228.332 25.7812C229.061 25.7812 229.665 25.5885 230.145 25.2031C230.624 24.8177 230.978 24.3047 231.207 23.6641C231.441 23.0234 231.559 22.3177 231.559 21.5469C231.559 20.7812 231.441 20.0781 231.207 19.4375C230.978 18.7917 230.624 18.2734 230.145 17.8828C229.665 17.4922 229.061 17.2969 228.332 17.2969C227.598 17.2969 226.988 17.4922 226.504 17.8828C226.025 18.2734 225.668 18.7917 225.434 19.4375C225.204 20.0781 225.09 20.7812 225.09 21.5469C225.09 22.3177 225.204 23.0234 225.434 23.6641C225.668 24.3047 226.025 24.8177 226.504 25.2031C226.988 25.5885 227.598 25.7812 228.332 25.7812ZM246.383 15.5L242.031 27.5H239.531L235.172 15.5H237.68L240.719 24.7344H240.844L243.875 15.5H246.383ZM251.727 27.7656C250.966 27.7656 250.279 27.625 249.664 27.3437C249.049 27.0573 248.563 26.6432 248.203 26.1016C247.849 25.5599 247.672 24.8958 247.672 24.1094C247.672 23.4323 247.802 22.875 248.063 22.4375C248.323 22 248.674 21.6536 249.117 21.3984C249.56 21.1432 250.055 20.9505 250.602 20.8203C251.148 20.6901 251.706 20.5911 252.273 20.5234C252.992 20.4401 253.576 20.3724 254.023 20.3203C254.471 20.263 254.797 20.1719 255 20.0469C255.203 19.9219 255.305 19.7187 255.305 19.4375V19.3828C255.305 18.7005 255.112 18.1719 254.727 17.7969C254.346 17.4219 253.779 17.2344 253.023 17.2344C252.237 17.2344 251.617 17.4089 251.164 17.7578C250.716 18.1016 250.406 18.4844 250.234 18.9062L248.039 18.4062C248.299 17.6771 248.68 17.0885 249.18 16.6406C249.685 16.1875 250.266 15.8594 250.922 15.6562C251.578 15.4479 252.268 15.3438 252.992 15.3438C253.471 15.3438 253.979 15.401 254.516 15.5156C255.057 15.625 255.563 15.8281 256.031 16.125C256.505 16.4219 256.893 16.8464 257.195 17.3984C257.497 17.9453 257.648 18.6563 257.648 19.5313V27.5H255.367V25.8594H255.273C255.122 26.1615 254.896 26.4583 254.594 26.75C254.292 27.0417 253.904 27.2839 253.43 27.4766C252.956 27.6693 252.388 27.7656 251.727 27.7656ZM252.234 25.8906C252.88 25.8906 253.432 25.763 253.891 25.5078C254.354 25.2526 254.706 24.9193 254.945 24.5078C255.19 24.0911 255.313 23.6458 255.313 23.1719V21.625C255.229 21.7083 255.068 21.7865 254.828 21.8594C254.594 21.9271 254.326 21.987 254.023 22.0391C253.721 22.0859 253.427 22.1302 253.141 22.1719C252.854 22.2083 252.615 22.2396 252.422 22.2656C251.969 22.3229 251.555 22.4193 251.18 22.5547C250.81 22.6901 250.513 22.8854 250.289 23.1406C250.07 23.3906 249.961 23.724 249.961 24.1406C249.961 24.7187 250.174 25.1562 250.602 25.4531C251.029 25.7448 251.573 25.8906 252.234 25.8906ZM252.148 13.8984L253.977 10.2969H256.438L254.016 13.8984H252.148Z" fill="white"/>
<defs>
<clipPath id="clip0_76_3300">
<rect width="36" height="36" fill="white"/>
</clipPath>
</defs>
</svg>
