<svg width="51" height="29" viewBox="0 0 51 29" fill="none" xmlns="http://www.w3.org/2000/svg">
<path d="M4.72131 9.98266V28.3238L0.000457764 24.1749V5.76343L4.72131 9.98266Z" fill="white"/>
<path d="M28.9491 2.44345L18.3162 11.9481L14.475 15.3873L10.6333 11.9481L0 2.44345L0.0126734 0H4.85413L14.475 8.53809L24.0954 0H28.9369L28.9491 2.44345Z" fill="#583FC5"/>
<path fill-rule="evenodd" clip-rule="evenodd" d="M23.6488 9.92758V14.9512V28.1726H28.9373H37.7044C45.0168 28.1726 51 22.338 51 15.0251C51 15.0002 50.9991 14.9757 50.9991 14.9508C50.9991 14.9259 51 14.9014 51 14.8765C51 7.56366 45.0168 1.729 37.7044 1.729H34.2258V7.01746H37.7044C42.1084 7.01746 45.7115 10.472 45.7115 14.8761C45.7115 14.901 45.7107 14.9255 45.7107 14.9504C45.7111 14.9753 45.7115 14.9997 45.7115 15.0247C45.7115 19.4287 42.1084 22.8833 37.7044 22.8833H28.9373V20.8589V17.5944V17.091V12.3059V9.48319V7.01746L28.9491 5.7516L23.6488 9.92758Z" fill="white"/>
</svg>
