<svg width="246" height="30" viewBox="0 0 246 30" fill="none" xmlns="http://www.w3.org/2000/svg">
<path d="M4.72131 9.98266V28.3238L0.000457764 24.1749V5.76343L4.72131 9.98266Z" fill="white"/>
<path d="M28.9491 2.44345L18.3162 11.9481L14.475 15.3873L10.6333 11.9481L0 2.44345L0.0126734 0H4.85413L14.475 8.53809L24.0954 0H28.9369L28.9491 2.44345Z" fill="#583FC5"/>
<path fill-rule="evenodd" clip-rule="evenodd" d="M23.6488 9.92758V14.9512V28.1726H28.9373H37.7044C45.0168 28.1726 51 22.338 51 15.0251C51 15.0002 50.9991 14.9757 50.9991 14.9508C50.9991 14.9259 51 14.9014 51 14.8765C51 7.56366 45.0168 1.729 37.7044 1.729H34.2258V7.01746H37.7044C42.1084 7.01746 45.7115 10.472 45.7115 14.8761C45.7115 14.901 45.7107 14.9255 45.7107 14.9504C45.7111 14.9753 45.7115 14.9997 45.7115 15.0247C45.7115 19.4287 42.1084 22.8833 37.7044 22.8833H28.9373V20.8589V17.5944V17.091V12.3059V9.48319V7.01746L28.9491 5.7516L23.6488 9.92758Z" fill="white"/>
<path d="M72.848 23V7.49H74.762L80.504 18.204L86.224 7.49H88.094V23H86.048V11.626L81.186 20.624H79.8L74.916 11.67V23H72.848ZM91.5112 23V12.264H93.6672V14.178C94.2246 12.902 95.3832 12.1907 97.1432 12.044L97.8692 12L98.0232 13.892L96.6812 14.024C94.7306 14.2147 93.7552 15.2193 93.7552 17.038V23H91.5112ZM103.043 23.198C102.295 23.198 101.627 23.0513 101.041 22.758C100.454 22.4647 99.9848 22.0687 99.6328 21.57C99.2955 21.0713 99.1268 20.5067 99.1268 19.876C99.1268 19.084 99.3248 18.4607 99.7208 18.006C100.131 17.5513 100.799 17.2213 101.723 17.016C102.661 16.8107 103.923 16.708 105.507 16.708H106.255V16.136C106.255 15.3 106.079 14.6987 105.727 14.332C105.375 13.9653 104.795 13.782 103.989 13.782C103.373 13.782 102.757 13.8773 102.141 14.068C101.525 14.244 100.894 14.53 100.249 14.926L99.5668 13.364C100.124 12.968 100.821 12.6527 101.657 12.418C102.493 12.1833 103.292 12.066 104.055 12.066C105.521 12.066 106.607 12.418 107.311 13.122C108.015 13.8113 108.367 14.8967 108.367 16.378V23H106.277V21.218C106.013 21.834 105.602 22.318 105.045 22.67C104.487 23.022 103.82 23.198 103.043 23.198ZM103.483 21.614C104.275 21.614 104.935 21.3353 105.463 20.778C105.991 20.2207 106.255 19.5167 106.255 18.666V18.072H105.529C104.458 18.072 103.615 18.1233 102.999 18.226C102.397 18.3287 101.965 18.5047 101.701 18.754C101.451 18.9887 101.327 19.3187 101.327 19.744C101.327 20.3013 101.517 20.756 101.899 21.108C102.28 21.4453 102.808 21.614 103.483 21.614ZM103.329 10.834L105.595 6.39H107.861L104.869 10.834H103.329ZM111.009 23V21.548L116.861 13.98H111.009V12.264H119.303V13.738L113.451 21.306H119.545V23H111.009ZM121.718 23V7.49H123.94V16.95H123.984L128.648 12.264H131.398L126.25 17.434L131.794 23H129.022L123.984 18.094H123.94V23H121.718ZM137.49 23.198C136.404 23.198 135.466 22.9707 134.674 22.516C133.882 22.0613 133.266 21.4233 132.826 20.602C132.4 19.766 132.188 18.776 132.188 17.632C132.188 16.488 132.4 15.5053 132.826 14.684C133.266 13.848 133.882 13.2027 134.674 12.748C135.466 12.2933 136.404 12.066 137.49 12.066C138.546 12.066 139.47 12.2933 140.262 12.748C141.054 13.2027 141.67 13.848 142.11 14.684C142.55 15.5053 142.77 16.488 142.77 17.632C142.77 18.776 142.55 19.766 142.11 20.602C141.67 21.4233 141.054 22.0613 140.262 22.516C139.47 22.9707 138.546 23.198 137.49 23.198ZM137.49 21.482C138.399 21.482 139.132 21.152 139.69 20.492C140.247 19.832 140.526 18.8787 140.526 17.632C140.526 16.3853 140.247 15.4393 139.69 14.794C139.132 14.134 138.399 13.804 137.49 13.804C136.566 13.804 135.825 14.134 135.268 14.794C134.71 15.4393 134.432 16.3853 134.432 17.632C134.432 18.8787 134.71 19.832 135.268 20.492C135.825 21.152 136.566 21.482 137.49 21.482ZM148.218 23L143.598 12.264H145.996L149.274 20.426L152.64 12.264H154.906L150.22 23H148.218ZM159.719 23.198C158.971 23.198 158.303 23.0513 157.717 22.758C157.13 22.4647 156.661 22.0687 156.309 21.57C155.971 21.0713 155.803 20.5067 155.803 19.876C155.803 19.084 156.001 18.4607 156.397 18.006C156.807 17.5513 157.475 17.2213 158.399 17.016C159.337 16.8107 160.599 16.708 162.183 16.708H162.931V16.136C162.931 15.3 162.755 14.6987 162.403 14.332C162.051 13.9653 161.471 13.782 160.665 13.782C160.049 13.782 159.433 13.8773 158.817 14.068C158.201 14.244 157.57 14.53 156.925 14.926L156.243 13.364C156.8 12.968 157.497 12.6527 158.333 12.418C159.169 12.1833 159.968 12.066 160.731 12.066C162.197 12.066 163.283 12.418 163.987 13.122C164.691 13.8113 165.043 14.8967 165.043 16.378V23H162.953V21.218C162.689 21.834 162.278 22.318 161.721 22.67C161.163 23.022 160.496 23.198 159.719 23.198ZM160.159 21.614C160.951 21.614 161.611 21.3353 162.139 20.778C162.667 20.2207 162.931 19.5167 162.931 18.666V18.072H162.205C161.134 18.072 160.291 18.1233 159.675 18.226C159.073 18.3287 158.641 18.5047 158.377 18.754C158.127 18.9887 158.003 19.3187 158.003 19.744C158.003 20.3013 158.193 20.756 158.575 21.108C158.956 21.4453 159.484 21.614 160.159 21.614ZM160.005 10.834L162.271 6.39H164.537L161.545 10.834H160.005Z" fill="white"/>
<path d="M174.124 23V7.49H179.602C182.154 7.49 184.12 8.15733 185.498 9.492C186.892 10.8267 187.588 12.7407 187.588 15.234C187.588 17.7273 186.892 19.6487 185.498 20.998C184.12 22.3327 182.154 23 179.602 23H174.124ZM176.412 21.086H179.47C183.298 21.086 185.212 19.1353 185.212 15.234C185.212 11.3473 183.298 9.404 179.47 9.404H176.412V21.086ZM195.442 23.198C193.682 23.198 192.296 22.7067 191.284 21.724C190.272 20.7267 189.766 19.37 189.766 17.654C189.766 16.554 189.986 15.586 190.426 14.75C190.88 13.8993 191.504 13.2393 192.296 12.77C193.088 12.3007 193.997 12.066 195.024 12.066C196.505 12.066 197.671 12.5427 198.522 13.496C199.372 14.4347 199.798 15.7327 199.798 17.39V18.138H191.922C192.083 20.3673 193.264 21.482 195.464 21.482C196.08 21.482 196.681 21.3867 197.268 21.196C197.869 21.0053 198.434 20.69 198.962 20.25L199.622 21.79C199.138 22.23 198.514 22.5747 197.752 22.824C196.989 23.0733 196.219 23.198 195.442 23.198ZM195.112 13.628C194.188 13.628 193.454 13.914 192.912 14.486C192.369 15.058 192.039 15.8207 191.922 16.774H197.928C197.884 15.7767 197.62 15.0067 197.136 14.464C196.652 13.9067 195.977 13.628 195.112 13.628ZM205.982 23.198C205.102 23.198 204.281 23.088 203.518 22.868C202.756 22.6333 202.118 22.3107 201.604 21.9L202.242 20.404C202.785 20.7853 203.379 21.0787 204.024 21.284C204.684 21.4893 205.344 21.592 206.004 21.592C206.782 21.592 207.368 21.4527 207.764 21.174C208.16 20.8953 208.358 20.5213 208.358 20.052C208.358 19.6707 208.226 19.3773 207.962 19.172C207.698 18.952 207.302 18.7833 206.774 18.666L204.684 18.248C202.836 17.8667 201.912 16.9133 201.912 15.388C201.912 14.376 202.316 13.5693 203.122 12.968C203.929 12.3667 204.985 12.066 206.29 12.066C207.038 12.066 207.75 12.176 208.424 12.396C209.114 12.616 209.686 12.946 210.14 13.386L209.502 14.882C209.062 14.5007 208.556 14.2073 207.984 14.002C207.412 13.7967 206.848 13.694 206.29 13.694C205.528 13.694 204.948 13.8407 204.552 14.134C204.156 14.4127 203.958 14.794 203.958 15.278C203.958 16.0113 204.442 16.4807 205.41 16.686L207.5 17.104C208.454 17.2947 209.172 17.6173 209.656 18.072C210.155 18.5267 210.404 19.1427 210.404 19.92C210.404 20.9467 210.001 21.7533 209.194 22.34C208.388 22.912 207.317 23.198 205.982 23.198ZM212.678 9.778V7.468H215.274V9.778H212.678ZM212.876 23V12.264H215.098V23H212.876ZM223.088 27.158C222.12 27.158 221.218 27.0407 220.382 26.806C219.546 26.586 218.805 26.234 218.16 25.75L218.842 24.166C219.487 24.606 220.147 24.9287 220.822 25.134C221.497 25.3393 222.201 25.442 222.934 25.442C224.987 25.442 226.014 24.4153 226.014 22.362V20.668C225.706 21.3133 225.222 21.8193 224.562 22.186C223.917 22.5527 223.191 22.736 222.384 22.736C221.416 22.736 220.573 22.516 219.854 22.076C219.135 21.6213 218.578 20.998 218.182 20.206C217.786 19.3993 217.588 18.4607 217.588 17.39C217.588 16.334 217.786 15.41 218.182 14.618C218.578 13.8113 219.135 13.188 219.854 12.748C220.573 12.2933 221.416 12.066 222.384 12.066C223.205 12.066 223.939 12.2493 224.584 12.616C225.229 12.9827 225.706 13.4887 226.014 14.134V12.264H228.17V22.098C228.17 23.7847 227.737 25.046 226.872 25.882C226.007 26.7327 224.745 27.158 223.088 27.158ZM222.912 20.998C223.851 20.998 224.599 20.6753 225.156 20.03C225.713 19.3847 225.992 18.5047 225.992 17.39C225.992 16.2753 225.713 15.4027 225.156 14.772C224.599 14.1267 223.851 13.804 222.912 13.804C221.973 13.804 221.225 14.1267 220.668 14.772C220.111 15.4027 219.832 16.2753 219.832 17.39C219.832 18.5047 220.111 19.3847 220.668 20.03C221.225 20.6753 221.973 20.998 222.912 20.998ZM231.289 23V12.264H233.445V14.046C233.811 13.4007 234.31 12.9093 234.941 12.572C235.586 12.2347 236.305 12.066 237.097 12.066C239.634 12.066 240.903 13.5033 240.903 16.378V23H238.681V16.51C238.681 15.586 238.497 14.9113 238.131 14.486C237.779 14.0607 237.221 13.848 236.459 13.848C235.564 13.848 234.845 14.134 234.303 14.706C233.775 15.2633 233.511 16.004 233.511 16.928V23H231.289Z" fill="#583FC5"/>
</svg>
