<svg width="169" height="22" viewBox="0 0 169 22" fill="none" xmlns="http://www.w3.org/2000/svg">
<path d="M0.848 17V1.49H2.762L8.504 12.204L14.224 1.49H16.094V17H14.048V5.626L9.186 14.624H7.8L2.916 5.67V17H0.848ZM19.5112 17V6.264H21.6672V8.178C22.2246 6.902 23.3832 6.19067 25.1432 6.044L25.8692 6L26.0232 7.892L24.6812 8.024C22.7306 8.21467 21.7552 9.21933 21.7552 11.038V17H19.5112ZM31.0428 17.198C30.2948 17.198 29.6275 17.0513 29.0408 16.758C28.4542 16.4647 27.9848 16.0687 27.6328 15.57C27.2955 15.0713 27.1268 14.5067 27.1268 13.876C27.1268 13.084 27.3248 12.4607 27.7208 12.006C28.1315 11.5513 28.7988 11.2213 29.7228 11.016C30.6615 10.8107 31.9228 10.708 33.5068 10.708H34.2548V10.136C34.2548 9.3 34.0788 8.69867 33.7268 8.332C33.3748 7.96533 32.7955 7.782 31.9888 7.782C31.3728 7.782 30.7568 7.87733 30.1408 8.068C29.5248 8.244 28.8942 8.53 28.2488 8.926L27.5668 7.364C28.1242 6.968 28.8208 6.65267 29.6568 6.418C30.4928 6.18333 31.2922 6.066 32.0548 6.066C33.5215 6.066 34.6068 6.418 35.3108 7.122C36.0148 7.81133 36.3668 8.89667 36.3668 10.378V17H34.2768V15.218C34.0128 15.834 33.6022 16.318 33.0448 16.67C32.4875 17.022 31.8202 17.198 31.0428 17.198ZM31.4828 15.614C32.2748 15.614 32.9348 15.3353 33.4628 14.778C33.9908 14.2207 34.2548 13.5167 34.2548 12.666V12.072H33.5288C32.4582 12.072 31.6148 12.1233 30.9988 12.226C30.3975 12.3287 29.9648 12.5047 29.7008 12.754C29.4515 12.9887 29.3268 13.3187 29.3268 13.744C29.3268 14.3013 29.5175 14.756 29.8988 15.108C30.2802 15.4453 30.8082 15.614 31.4828 15.614ZM31.3288 4.834L33.5948 0.389999H35.8608L32.8688 4.834H31.3288ZM39.0092 17V15.548L44.8612 7.98H39.0092V6.264H47.3032V7.738L41.4512 15.306H47.5452V17H39.0092ZM49.7183 17V1.49H51.9403V10.95H51.9843L56.6483 6.264H59.3983L54.2503 11.434L59.7943 17H57.0223L51.9843 12.094H51.9403V17H49.7183ZM65.4897 17.198C64.4043 17.198 63.4657 16.9707 62.6737 16.516C61.8817 16.0613 61.2657 15.4233 60.8257 14.602C60.4003 13.766 60.1877 12.776 60.1877 11.632C60.1877 10.488 60.4003 9.50533 60.8257 8.684C61.2657 7.848 61.8817 7.20267 62.6737 6.748C63.4657 6.29333 64.4043 6.066 65.4897 6.066C66.5457 6.066 67.4697 6.29333 68.2617 6.748C69.0537 7.20267 69.6697 7.848 70.1097 8.684C70.5497 9.50533 70.7697 10.488 70.7697 11.632C70.7697 12.776 70.5497 13.766 70.1097 14.602C69.6697 15.4233 69.0537 16.0613 68.2617 16.516C67.4697 16.9707 66.5457 17.198 65.4897 17.198ZM65.4897 15.482C66.399 15.482 67.1323 15.152 67.6897 14.492C68.247 13.832 68.5257 12.8787 68.5257 11.632C68.5257 10.3853 68.247 9.43933 67.6897 8.794C67.1323 8.134 66.399 7.804 65.4897 7.804C64.5657 7.804 63.825 8.134 63.2677 8.794C62.7103 9.43933 62.4317 10.3853 62.4317 11.632C62.4317 12.8787 62.7103 13.832 63.2677 14.492C63.825 15.152 64.5657 15.482 65.4897 15.482ZM76.2178 17L71.5978 6.264H73.9958L77.2738 14.426L80.6398 6.264H82.9058L78.2198 17H76.2178ZM87.7186 17.198C86.9706 17.198 86.3033 17.0513 85.7166 16.758C85.1299 16.4647 84.6606 16.0687 84.3086 15.57C83.9713 15.0713 83.8026 14.5067 83.8026 13.876C83.8026 13.084 84.0006 12.4607 84.3966 12.006C84.8073 11.5513 85.4746 11.2213 86.3986 11.016C87.3373 10.8107 88.5986 10.708 90.1826 10.708H90.9306V10.136C90.9306 9.3 90.7546 8.69867 90.4026 8.332C90.0506 7.96533 89.4713 7.782 88.6646 7.782C88.0486 7.782 87.4326 7.87733 86.8166 8.068C86.2006 8.244 85.5699 8.53 84.9246 8.926L84.2426 7.364C84.7999 6.968 85.4966 6.65267 86.3326 6.418C87.1686 6.18333 87.9679 6.066 88.7306 6.066C90.1973 6.066 91.2826 6.418 91.9866 7.122C92.6906 7.81133 93.0426 8.89667 93.0426 10.378V17H90.9526V15.218C90.6886 15.834 90.2779 16.318 89.7206 16.67C89.1633 17.022 88.4959 17.198 87.7186 17.198ZM88.1586 15.614C88.9506 15.614 89.6106 15.3353 90.1386 14.778C90.6666 14.2207 90.9306 13.5167 90.9306 12.666V12.072H90.2046C89.1339 12.072 88.2906 12.1233 87.6746 12.226C87.0733 12.3287 86.6406 12.5047 86.3766 12.754C86.1273 12.9887 86.0026 13.3187 86.0026 13.744C86.0026 14.3013 86.1933 14.756 86.5746 15.108C86.9559 15.4453 87.4839 15.614 88.1586 15.614ZM88.0046 4.834L90.2706 0.389999H92.5366L89.5446 4.834H88.0046Z" fill="white"/>
<path d="M102.124 17V1.49H107.602C110.154 1.49 112.12 2.15733 113.498 3.492C114.892 4.82667 115.588 6.74067 115.588 9.234C115.588 11.7273 114.892 13.6487 113.498 14.998C112.12 16.3327 110.154 17 107.602 17H102.124ZM104.412 15.086H107.47C111.298 15.086 113.212 13.1353 113.212 9.234C113.212 5.34733 111.298 3.404 107.47 3.404H104.412V15.086ZM123.442 17.198C121.682 17.198 120.296 16.7067 119.284 15.724C118.272 14.7267 117.766 13.37 117.766 11.654C117.766 10.554 117.986 9.586 118.426 8.75C118.88 7.89933 119.504 7.23933 120.296 6.77C121.088 6.30067 121.997 6.066 123.024 6.066C124.505 6.066 125.671 6.54267 126.522 7.496C127.372 8.43467 127.798 9.73267 127.798 11.39V12.138H119.922C120.083 14.3673 121.264 15.482 123.464 15.482C124.08 15.482 124.681 15.3867 125.268 15.196C125.869 15.0053 126.434 14.69 126.962 14.25L127.622 15.79C127.138 16.23 126.514 16.5747 125.752 16.824C124.989 17.0733 124.219 17.198 123.442 17.198ZM123.112 7.628C122.188 7.628 121.454 7.914 120.912 8.486C120.369 9.058 120.039 9.82067 119.922 10.774H125.928C125.884 9.77667 125.62 9.00667 125.136 8.464C124.652 7.90667 123.977 7.628 123.112 7.628ZM133.982 17.198C133.102 17.198 132.281 17.088 131.518 16.868C130.756 16.6333 130.118 16.3107 129.604 15.9L130.242 14.404C130.785 14.7853 131.379 15.0787 132.024 15.284C132.684 15.4893 133.344 15.592 134.004 15.592C134.782 15.592 135.368 15.4527 135.764 15.174C136.16 14.8953 136.358 14.5213 136.358 14.052C136.358 13.6707 136.226 13.3773 135.962 13.172C135.698 12.952 135.302 12.7833 134.774 12.666L132.684 12.248C130.836 11.8667 129.912 10.9133 129.912 9.388C129.912 8.376 130.316 7.56933 131.122 6.968C131.929 6.36667 132.985 6.066 134.29 6.066C135.038 6.066 135.75 6.176 136.424 6.396C137.114 6.616 137.686 6.946 138.14 7.386L137.502 8.882C137.062 8.50067 136.556 8.20733 135.984 8.002C135.412 7.79667 134.848 7.694 134.29 7.694C133.528 7.694 132.948 7.84067 132.552 8.134C132.156 8.41267 131.958 8.794 131.958 9.278C131.958 10.0113 132.442 10.4807 133.41 10.686L135.5 11.104C136.454 11.2947 137.172 11.6173 137.656 12.072C138.155 12.5267 138.404 13.1427 138.404 13.92C138.404 14.9467 138.001 15.7533 137.194 16.34C136.388 16.912 135.317 17.198 133.982 17.198ZM140.678 3.778V1.468H143.274V3.778H140.678ZM140.876 17V6.264H143.098V17H140.876ZM151.088 21.158C150.12 21.158 149.218 21.0407 148.382 20.806C147.546 20.586 146.805 20.234 146.16 19.75L146.842 18.166C147.487 18.606 148.147 18.9287 148.822 19.134C149.497 19.3393 150.201 19.442 150.934 19.442C152.987 19.442 154.014 18.4153 154.014 16.362V14.668C153.706 15.3133 153.222 15.8193 152.562 16.186C151.917 16.5527 151.191 16.736 150.384 16.736C149.416 16.736 148.573 16.516 147.854 16.076C147.135 15.6213 146.578 14.998 146.182 14.206C145.786 13.3993 145.588 12.4607 145.588 11.39C145.588 10.334 145.786 9.41 146.182 8.618C146.578 7.81133 147.135 7.188 147.854 6.748C148.573 6.29333 149.416 6.066 150.384 6.066C151.205 6.066 151.939 6.24933 152.584 6.616C153.229 6.98267 153.706 7.48867 154.014 8.134V6.264H156.17V16.098C156.17 17.7847 155.737 19.046 154.872 19.882C154.007 20.7327 152.745 21.158 151.088 21.158ZM150.912 14.998C151.851 14.998 152.599 14.6753 153.156 14.03C153.713 13.3847 153.992 12.5047 153.992 11.39C153.992 10.2753 153.713 9.40267 153.156 8.772C152.599 8.12667 151.851 7.804 150.912 7.804C149.973 7.804 149.225 8.12667 148.668 8.772C148.111 9.40267 147.832 10.2753 147.832 11.39C147.832 12.5047 148.111 13.3847 148.668 14.03C149.225 14.6753 149.973 14.998 150.912 14.998ZM159.289 17V6.264H161.445V8.046C161.811 7.40067 162.31 6.90933 162.941 6.572C163.586 6.23467 164.305 6.066 165.097 6.066C167.634 6.066 168.903 7.50333 168.903 10.378V17H166.681V10.51C166.681 9.586 166.497 8.91133 166.131 8.486C165.779 8.06067 165.221 7.848 164.459 7.848C163.564 7.848 162.845 8.134 162.303 8.706C161.775 9.26333 161.511 10.004 161.511 10.928V17H159.289Z" fill="#583FC5"/>
</svg>
