<svg width="34" height="27" viewBox="0 0 34 27" fill="none" xmlns="http://www.w3.org/2000/svg">
<path d="M28.9 0H5.10003C3.74743 0 2.45022 0.533369 1.49379 1.48277C0.537351 2.43217 3.05176e-05 3.71984 3.05176e-05 5.0625V21.9375C3.05176e-05 23.2802 0.537351 24.5678 1.49379 25.5172C2.45022 26.4666 3.74743 27 5.10003 27H28.9C30.2526 27 31.5498 26.4666 32.5063 25.5172C33.4627 24.5678 34 23.2802 34 21.9375V5.0625C34 3.71984 33.4627 2.43217 32.5063 1.48277C31.5498 0.533369 30.2526 0 28.9 0ZM28.203 3.375L18.207 13.2975C18.049 13.4557 17.861 13.5812 17.6538 13.6669C17.4467 13.7526 17.2245 13.7967 17 13.7967C16.7756 13.7967 16.5534 13.7526 16.3463 13.6669C16.1391 13.5812 15.9511 13.4557 15.793 13.2975L5.79703 3.375H28.203ZM30.6 21.9375C30.6 22.3851 30.4209 22.8143 30.1021 23.1307C29.7833 23.4472 29.3509 23.625 28.9 23.625H5.10003C4.64916 23.625 4.21676 23.4472 3.89795 23.1307C3.57914 22.8143 3.40003 22.3851 3.40003 21.9375V5.75437L13.396 15.6769C14.3523 16.6249 15.6485 17.1574 17 17.1574C18.3515 17.1574 19.6478 16.6249 20.604 15.6769L30.6 5.75437V21.9375Z" fill="white"/>
</svg>
