<svg width="1440" height="850" viewBox="0 0 1440 850" fill="none" xmlns="http://www.w3.org/2000/svg">
<g opacity="0.31">
<path d="M936.988 353.492L1023.87 407.662C1034.81 414.488 1040.29 417.901 1046.4 417.997C1052.5 418.093 1058.08 414.854 1069.24 408.376L1086.22 398.518" stroke="url(#paint0_linear_42_57)" stroke-width="2" stroke-linecap="round"/>
<path opacity="0.6" d="M771.034 448.689L1002.6 583.768" stroke="url(#paint1_linear_42_57)" stroke-width="2" stroke-linecap="round"/>
<path d="M706.711 123.214L846.79 38.7217C857.529 32.2443 862.898 29.0056 868.854 28.9226C874.81 28.8396 880.268 31.9275 891.183 38.1032L944.834 68.4583C955.453 74.4663 960.762 77.4703 966.572 77.4616C972.382 77.4528 977.682 74.4329 988.283 68.3929L1077.21 17.7236" stroke="url(#paint2_linear_42_57)" stroke-width="2" stroke-linecap="round"/>
<path d="M683.555 617.216L722.8 639.336C738.12 647.971 745.779 652.288 754.203 652.629C754.373 652.636 754.543 652.642 754.713 652.646C763.141 652.865 771.071 649.065 786.929 641.466V641.466C801.146 634.654 808.254 631.248 815.871 631.11C816.025 631.107 816.179 631.105 816.333 631.104C823.952 631.066 831.137 634.307 845.507 640.787L848.283 642.039C864.64 649.416 872.819 653.104 881.407 652.603C889.996 652.101 897.689 647.485 913.076 638.253L1020.32 573.907C1037.4 563.656 1045.95 558.53 1055.41 558.415C1064.87 558.299 1073.54 563.215 1090.87 573.046L1238.05 656.532C1256.19 666.826 1265.27 671.973 1275.13 671.643C1284.98 671.313 1293.69 665.571 1311.11 654.088L1449 563.184" stroke="url(#paint3_linear_42_57)" stroke-width="2" stroke-linecap="round"/>
<path d="M585.784 624.935L551.623 646.285C538.261 654.636 531.581 658.811 524.218 658.538C516.856 658.265 510.503 653.606 497.797 644.289L452.592 611.138C440.434 602.222 434.355 597.765 427.281 597.35C420.206 596.936 413.648 600.654 400.533 608.09L-24 848.779" stroke="url(#paint4_linear_42_57)" stroke-width="2" stroke-linecap="round"/>
<path opacity="0.6" d="M197.272 343.199L384.944 229.458C396.927 222.195 402.919 218.564 409.558 218.53C416.198 218.497 422.226 222.067 434.282 229.207L517.568 278.531C529.5 285.598 535.465 289.131 542.043 289.129C548.62 289.127 554.584 285.59 566.511 278.517L763.315 161.808" stroke="#A259FF" stroke-width="2" stroke-linecap="round"/>
<path d="M587.07 572.19L72.4849 275.017" stroke="url(#paint5_linear_42_57)" stroke-width="2" stroke-linecap="round"/>
<path d="M678.409 573.476L728.571 543.592C733.23 540.817 735.56 539.429 735.669 537.292C735.779 535.154 733.602 533.536 729.25 530.3L698.264 507.259C693.936 504.04 691.771 502.431 691.874 500.301C691.977 498.171 694.286 496.777 698.905 493.99L763.316 455.122" stroke="#7246EC" stroke-width="2" stroke-linecap="round"/>
<path d="M678.409 573.476L728.571 543.592C733.23 540.817 735.56 539.429 735.669 537.292C735.779 535.154 733.602 533.536 729.25 530.3L698.297 507.283C693.955 504.055 691.784 502.441 691.89 500.307C691.997 498.173 694.317 496.782 698.958 494.001L1001.37 312.793C1006.51 309.714 1009.08 308.174 1009.07 305.901C1009.07 303.628 1006.49 302.102 1001.34 299.048L498.304 1" stroke="url(#paint6_linear_42_57)" stroke-width="2" stroke-linecap="round"/>
<path d="M693.133 599.206C693.133 608.905 686.704 618.007 675.626 624.79C664.581 631.552 649.196 635.8 632.096 635.8C614.996 635.8 599.611 631.552 588.567 624.79C577.488 618.007 571.06 608.905 571.06 599.206C571.06 589.507 577.488 580.404 588.567 573.621C599.611 566.859 614.996 562.612 632.096 562.612C649.196 562.612 664.581 566.859 675.626 573.621C686.704 580.404 693.133 589.507 693.133 599.206Z" stroke="#7246EC" stroke-width="4"/>
<g filter="url(#filter0_f_42_57)">
<path d="M693.133 599.206C693.133 608.905 686.704 618.007 675.626 624.79C664.581 631.552 649.196 635.8 632.096 635.8C614.996 635.8 599.611 631.552 588.567 624.79C577.488 618.007 571.06 608.905 571.06 599.206C571.06 589.507 577.488 580.404 588.567 573.621C599.611 566.859 614.996 562.612 632.096 562.612C649.196 562.612 664.581 566.859 675.626 573.621C686.704 580.404 693.133 589.507 693.133 599.206Z" stroke="#7246EC" stroke-width="4"/>
</g>
<ellipse cx="773.312" cy="452.254" rx="20.5834" ry="14.1511" fill="#7246EC"/>
<g filter="url(#filter1_f_42_57)">
<ellipse cx="773.312" cy="452.254" rx="20.5834" ry="14.1511" fill="#7246EC"/>
</g>
<ellipse cx="193.412" cy="726.564" rx="20.5834" ry="14.1511" fill="#7246EC"/>
<g filter="url(#filter2_f_42_57)">
<ellipse cx="193.412" cy="726.564" rx="20.5834" ry="14.1511" fill="#7246EC"/>
</g>
<path d="M1174.27 604.351C1174.27 609.158 1171.35 613.755 1166.12 617.241C1160.9 620.718 1153.58 622.934 1145.4 622.934C1137.21 622.934 1129.89 620.718 1124.67 617.241C1119.44 613.755 1116.52 609.158 1116.52 604.351C1116.52 599.543 1119.44 594.946 1124.67 591.46C1129.89 587.983 1137.21 585.767 1145.4 585.767C1153.58 585.767 1160.9 587.983 1166.12 591.46C1171.35 594.946 1174.27 599.543 1174.27 604.351Z" stroke="#7246EC" stroke-width="4"/>
<g filter="url(#filter3_f_42_57)">
<path d="M1174.27 604.351C1174.27 609.158 1171.35 613.755 1166.12 617.241C1160.9 620.718 1153.58 622.934 1145.4 622.934C1137.21 622.934 1129.89 620.718 1124.67 617.241C1119.44 613.755 1116.52 609.158 1116.52 604.351C1116.52 599.543 1119.44 594.946 1124.67 591.46C1129.89 587.983 1137.21 585.767 1145.4 585.767C1153.58 585.767 1160.9 587.983 1166.12 591.46C1171.35 594.946 1174.27 599.543 1174.27 604.351Z" stroke="#7246EC" stroke-width="4"/>
</g>
<ellipse cx="821.207" cy="190.11" rx="41.1668" ry="25.7293" fill="#663AAE"/>
<ellipse cx="821.206" cy="190.11" rx="30.8751" ry="18.0105" fill="#3A1774"/>
<g filter="url(#filter4_f_42_57)">
<ellipse cx="821.206" cy="190.11" rx="30.8751" ry="18.0105" fill="#3A1774"/>
</g>
<ellipse cx="821.206" cy="190.11" rx="20.5834" ry="10.2917" fill="black"/>
<path d="M846.431 141.31L846.431 141.31C860.643 127.098 860.643 104.057 846.431 89.8453C832.22 75.6338 809.179 75.6338 794.967 89.8453C780.756 104.057 780.756 127.098 794.967 141.31L795.094 141.182L794.967 141.31C796.198 142.54 797.726 144.052 799.551 145.843L799.551 145.844L814.069 159.966L814.07 159.967C817.766 163.542 823.632 163.542 827.329 159.968C833.134 154.355 837.855 149.764 841.494 146.193L841.494 146.192L846.431 141.31ZM799.633 94.5108C811.267 82.876 830.131 82.876 841.766 94.5108L841.893 94.3835L841.766 94.5108C853.401 106.146 853.401 125.009 841.766 136.644C840.445 137.964 838.81 139.582 836.86 141.496L822.743 155.224C821.604 156.326 819.796 156.326 818.657 155.224C813.502 150.238 809.221 146.078 805.816 142.746C805.816 142.746 805.816 142.746 805.815 142.746L799.633 136.644C799.632 136.644 799.632 136.644 799.632 136.644C787.998 125.009 787.998 106.145 799.633 94.5108ZM833.362 116.722C833.362 109.729 827.692 104.059 820.699 104.059C813.706 104.059 808.037 109.729 808.037 116.722C808.037 123.715 813.706 129.384 820.699 129.384C827.692 129.384 833.362 123.715 833.362 116.722ZM814.635 116.722C814.635 113.373 817.35 110.657 820.699 110.657C824.048 110.657 826.764 113.373 826.764 116.722C826.764 120.071 824.048 122.786 820.699 122.786C817.35 122.786 814.635 120.071 814.635 116.722Z" fill="url(#paint7_linear_42_57)" stroke="url(#paint8_linear_42_57)" stroke-width="0.36"/>
</g>
<defs>
<filter id="filter0_f_42_57" x="565.06" y="556.612" width="134.073" height="85.188" filterUnits="userSpaceOnUse" color-interpolation-filters="sRGB">
<feFlood flood-opacity="0" result="BackgroundImageFix"/>
<feBlend mode="normal" in="SourceGraphic" in2="BackgroundImageFix" result="shape"/>
<feGaussianBlur stdDeviation="2" result="effect1_foregroundBlur_42_57"/>
</filter>
<filter id="filter1_f_42_57" x="748.729" y="434.103" width="49.1668" height="36.3022" filterUnits="userSpaceOnUse" color-interpolation-filters="sRGB">
<feFlood flood-opacity="0" result="BackgroundImageFix"/>
<feBlend mode="normal" in="SourceGraphic" in2="BackgroundImageFix" result="shape"/>
<feGaussianBlur stdDeviation="2" result="effect1_foregroundBlur_42_57"/>
</filter>
<filter id="filter2_f_42_57" x="168.829" y="708.413" width="49.1668" height="36.3022" filterUnits="userSpaceOnUse" color-interpolation-filters="sRGB">
<feFlood flood-opacity="0" result="BackgroundImageFix"/>
<feBlend mode="normal" in="SourceGraphic" in2="BackgroundImageFix" result="shape"/>
<feGaussianBlur stdDeviation="2" result="effect1_foregroundBlur_42_57"/>
</filter>
<filter id="filter3_f_42_57" x="1106.52" y="575.767" width="77.7502" height="57.167" filterUnits="userSpaceOnUse" color-interpolation-filters="sRGB">
<feFlood flood-opacity="0" result="BackgroundImageFix"/>
<feBlend mode="normal" in="SourceGraphic" in2="BackgroundImageFix" result="shape"/>
<feGaussianBlur stdDeviation="4" result="effect1_foregroundBlur_42_57"/>
</filter>
<filter id="filter4_f_42_57" x="782.331" y="164.099" width="77.7502" height="52.021" filterUnits="userSpaceOnUse" color-interpolation-filters="sRGB">
<feFlood flood-opacity="0" result="BackgroundImageFix"/>
<feBlend mode="normal" in="SourceGraphic" in2="BackgroundImageFix" result="shape"/>
<feGaussianBlur stdDeviation="4" result="effect1_foregroundBlur_42_57"/>
</filter>
<linearGradient id="paint0_linear_42_57" x1="939.561" y1="352.205" x2="1093.94" y2="397.231" gradientUnits="userSpaceOnUse">
<stop stop-color="#3A1774"/>
<stop offset="0.739583" stop-color="#663AAE"/>
<stop offset="1" stop-color="#A259FF"/>
</linearGradient>
<linearGradient id="paint1_linear_42_57" x1="775.027" y1="446.141" x2="1022.06" y2="502.575" gradientUnits="userSpaceOnUse">
<stop stop-color="#663AAE"/>
<stop offset="1" stop-color="#07BCCE"/>
</linearGradient>
<linearGradient id="paint2_linear_42_57" x1="1078.5" y1="17.7237" x2="714.43" y2="121.927" gradientUnits="userSpaceOnUse">
<stop stop-color="#7246EC"/>
<stop offset="0.213542" stop-color="#7246EC"/>
<stop offset="1" stop-color="#A259FF"/>
</linearGradient>
<linearGradient id="paint3_linear_42_57" x1="684.841" y1="614.643" x2="1449" y2="552.893" gradientUnits="userSpaceOnUse">
<stop stop-color="#3A1774"/>
<stop offset="0.71875" stop-color="#7246EC"/>
<stop offset="1" stop-color="#7246EC" stop-opacity="0"/>
</linearGradient>
<linearGradient id="paint4_linear_42_57" x1="587.07" y1="624.935" x2="-22.7135" y2="848.779" gradientUnits="userSpaceOnUse">
<stop stop-color="#7246EC"/>
<stop offset="0.723958" stop-color="#7246EC"/>
<stop offset="1" stop-color="#7246EC" stop-opacity="0"/>
</linearGradient>
<linearGradient id="paint5_linear_42_57" x1="72.4849" y1="275.017" x2="587.07" y2="573.477" gradientUnits="userSpaceOnUse">
<stop stop-color="#490B5F" stop-opacity="0"/>
<stop offset="0.208333" stop-color="#7931ED"/>
<stop offset="1" stop-color="#663AAE"/>
</linearGradient>
<linearGradient id="paint6_linear_42_57" x1="508.596" y1="2.28647" x2="755.597" y2="573.476" gradientUnits="userSpaceOnUse">
<stop stop-color="#7246EC"/>
<stop offset="0.28021" stop-color="#3A1774"/>
<stop offset="1" stop-color="#A259FF"/>
</linearGradient>
<linearGradient id="paint7_linear_42_57" x1="820.699" y1="79.3667" x2="820.699" y2="162.468" gradientUnits="userSpaceOnUse">
<stop stop-color="#A259FF"/>
<stop offset="1" stop-color="#663AAE"/>
</linearGradient>
<linearGradient id="paint8_linear_42_57" x1="820.699" y1="79.3667" x2="820.699" y2="162.468" gradientUnits="userSpaceOnUse">
<stop stop-color="#A259FF"/>
<stop offset="1" stop-color="#3A1774"/>
</linearGradient>
</defs>
</svg>
