<svg width="751" height="442" viewBox="0 0 751 442" fill="none" xmlns="http://www.w3.org/2000/svg">
<path d="M93.0371 422.781C173.007 350.848 284.965 178.709 93.0371 65.6177" stroke="#3A1774" stroke-opacity="0.14" stroke-width="3"/>
<path d="M749.313 65.6172C669.344 137.551 557.386 309.69 749.313 422.781" stroke="#3A1774" stroke-opacity="0.14" stroke-width="3"/>
<path d="M101.139 418.371C178.259 343.391 283.458 167.04 87.2895 61.4761" stroke="#3A1774" stroke-opacity="0.14" stroke-width="3"/>
<path d="M109.241 413.962C183.396 336.048 281.678 155.75 81.5637 57.8724" stroke="#3A1774" stroke-opacity="0.14" stroke-width="3"/>
<path d="M117.344 409.553C188.422 328.822 279.639 144.849 75.8796 54.8042" stroke="#3A1774" stroke-opacity="0.14" stroke-width="3"/>
<path d="M125.445 405.144C193.34 321.717 277.354 134.346 70.2568 52.2696" stroke="#3A1774" stroke-opacity="0.14" stroke-width="3"/>
<path d="M133.548 400.733C198.156 314.737 274.842 124.249 64.7181 50.2648" stroke="#3A1774" stroke-opacity="0.14" stroke-width="3"/>
<path d="M141.65 396.324C202.876 307.888 272.118 114.569 59.2828 48.7881" stroke="#3A1774" stroke-opacity="0.14" stroke-width="3"/>
<path d="M149.752 391.915C207.502 301.171 269.196 105.313 53.9705 47.8341" stroke="#3A1774" stroke-opacity="0.14" stroke-width="3"/>
<path d="M157.854 387.506C212.042 294.591 266.095 96.4877 48.8032 47.3977" stroke="#3A1774" stroke-opacity="0.14" stroke-width="3"/>
<path d="M165.956 383.096C216.5 288.149 262.831 88.0992 43.7989 47.4718" stroke="#3A1774" stroke-opacity="0.14" stroke-width="3"/>
<path d="M174.059 378.687C220.883 281.852 259.422 80.1556 38.9794 48.0517" stroke="#3A1774" stroke-opacity="0.14" stroke-width="3"/>
<path d="M182.161 374.277C225.196 275.7 255.885 72.6608 34.363 49.1289" stroke="#3A1774" stroke-opacity="0.14" stroke-width="3"/>
<path d="M190.263 369.868C229.443 269.696 252.236 65.6199 29.968 50.6952" stroke="#3A1774" stroke-opacity="0.14" stroke-width="3"/>
<path d="M198.365 365.458C233.632 263.842 248.494 59.0355 25.815 52.7405" stroke="#3A1774" stroke-opacity="0.14" stroke-width="3"/>
<path d="M206.468 361.049C237.767 258.142 244.678 52.9129 21.9216 55.2572" stroke="#3A1774" stroke-opacity="0.14" stroke-width="3"/>
<path d="M214.569 356.64C241.855 252.596 240.802 47.2539 18.3048 58.2339" stroke="#3A1774" stroke-opacity="0.14" stroke-width="3"/>
<path d="M222.672 352.23C245.903 247.207 236.889 42.0602 14.9841 61.6593" stroke="#3A1774" stroke-opacity="0.14" stroke-width="3"/>
<path d="M230.773 347.82C249.915 241.975 232.953 37.332 11.9749 65.5209" stroke="#3A1774" stroke-opacity="0.14" stroke-width="3"/>
<path d="M238.876 343.411C253.899 236.903 229.014 33.0718 9.29566 69.808" stroke="#3A1774" stroke-opacity="0.14" stroke-width="3"/>
<path d="M246.979 339.002C257.86 231.992 225.091 29.2785 6.9618 74.5066" stroke="#3A1774" stroke-opacity="0.14" stroke-width="3"/>
<path d="M255.08 334.593C261.804 227.241 221.199 25.951 4.98799 79.6031" stroke="#3A1774" stroke-opacity="0.14" stroke-width="3"/>
<path d="M263.183 330.183C265.739 222.651 217.359 23.0866 3.39126 85.0821" stroke="#3A1774" stroke-opacity="0.14" stroke-width="3"/>
<path d="M271.285 325.773C269.67 218.224 213.589 20.6852 2.18531 90.9308" stroke="#3A1774" stroke-opacity="0.14" stroke-width="3"/>
<path d="M279.387 321.364C273.602 213.958 209.904 18.7427 1.38315 97.1326" stroke="#3A1774" stroke-opacity="0.14" stroke-width="3"/>
<path d="M287.489 316.955C277.545 209.853 206.324 17.2549 1.00012 103.671" stroke="#3A1774" stroke-opacity="0.14" stroke-width="3"/>
<path d="M295.592 312.545C281.502 205.91 202.867 16.2183 1.04797 110.531" stroke="#3A1774" stroke-opacity="0.14" stroke-width="3"/>
<path d="M303.693 308.136C285.479 202.127 199.548 15.6269 1.53784 117.695" stroke="#3A1774" stroke-opacity="0.14" stroke-width="3"/>
<path d="M311.796 303.727C289.485 198.504 196.387 15.476 2.4832 125.145" stroke="#3A1774" stroke-opacity="0.14" stroke-width="3"/>
<path d="M319.897 299.317C293.523 195.039 193.398 15.7581 3.89279 132.863" stroke="#3A1774" stroke-opacity="0.14" stroke-width="3"/>
<path d="M328 294.908C297.602 191.73 190.6 16.4672 5.77867 140.832" stroke="#3A1774" stroke-opacity="0.14" stroke-width="3"/>
<path d="M336.103 290.498C301.727 188.577 188.01 17.5947 8.14921 149.033" stroke="#3A1774" stroke-opacity="0.14" stroke-width="3"/>
<path d="M344.204 286.089C305.902 185.578 185.641 19.1332 11.0121 157.447" stroke="#3A1774" stroke-opacity="0.14" stroke-width="3"/>
<path d="M352.307 281.679C310.136 182.729 183.511 21.0726 14.377 166.053" stroke="#3A1774" stroke-opacity="0.14" stroke-width="3"/>
<path d="M360.409 277.27C314.433 180.029 181.636 23.4045 18.2503 174.834" stroke="#3A1774" stroke-opacity="0.14" stroke-width="3"/>
<path d="M368.511 272.86C318.799 177.475 180.028 26.1178 22.6372 183.769" stroke="#3A1774" stroke-opacity="0.14" stroke-width="3"/>
<path d="M376.613 268.451C323.24 175.065 178.705 29.2026 27.5452 192.838" stroke="#3A1774" stroke-opacity="0.14" stroke-width="3"/>
<path d="M384.715 264.042C327.761 172.795 177.678 32.6469 32.9774 202.021" stroke="#3A1774" stroke-opacity="0.14" stroke-width="3"/>
<path d="M392.817 259.632C332.368 170.663 176.964 36.4391 38.9396 211.296" stroke="#3A1774" stroke-opacity="0.14" stroke-width="3"/>
<path d="M400.92 255.223C337.066 168.665 176.574 40.5676 45.434 220.645" stroke="#3A1774" stroke-opacity="0.14" stroke-width="3"/>
<path d="M409.021 250.813C341.86 166.796 176.521 45.019 52.4622 230.046" stroke="#3A1774" stroke-opacity="0.14" stroke-width="3"/>
<path d="M417.124 246.404C346.755 165.054 176.819 49.7794 60.0277 239.478" stroke="#3A1774" stroke-opacity="0.14" stroke-width="3"/>
<path d="M425.227 241.995C351.756 163.435 177.478 54.836 68.1302 248.92" stroke="#3A1774" stroke-opacity="0.14" stroke-width="3"/>
<path d="M433.328 237.585C356.867 161.933 178.509 60.1736 76.7688 258.352" stroke="#3A1774" stroke-opacity="0.14" stroke-width="3"/>
<path d="M441.431 233.176C362.093 160.545 179.924 65.7786 85.9448 267.753" stroke="#3A1774" stroke-opacity="0.14" stroke-width="3"/>
<path d="M449.533 228.766C367.439 159.267 181.732 71.6348 95.6554 277.102" stroke="#3A1774" stroke-opacity="0.14" stroke-width="3"/>
<path d="M457.635 224.357C372.908 158.093 183.942 77.7279 105.897 286.378" stroke="#3A1774" stroke-opacity="0.14" stroke-width="3"/>
<path d="M465.737 219.947C378.504 157.019 186.565 84.041 116.669 295.56" stroke="#3A1774" stroke-opacity="0.14" stroke-width="3"/>
<path d="M473.839 215.538C384.232 156.039 189.607 90.559 127.965 304.629" stroke="#3A1774" stroke-opacity="0.14" stroke-width="3"/>
<path d="M481.941 211.128C390.094 155.149 193.077 97.2646 139.782 313.564" stroke="#3A1774" stroke-opacity="0.14" stroke-width="3"/>
<path d="M490.044 206.719C396.095 154.343 196.982 104.142 152.114 322.345" stroke="#3A1774" stroke-opacity="0.14" stroke-width="3"/>
<path d="M498.146 202.31C402.237 153.616 201.326 111.173 164.953 330.952" stroke="#3A1774" stroke-opacity="0.14" stroke-width="3"/>
<path d="M506.248 197.9C408.523 152.962 206.118 118.342 178.295 339.366" stroke="#3A1774" stroke-opacity="0.14" stroke-width="3"/>
<path d="M514.351 193.491C414.957 152.376 211.361 125.629 192.129 347.566" stroke="#3A1774" stroke-opacity="0.14" stroke-width="3"/>
<path d="M522.452 189.081C421.539 151.851 217.059 133.019 206.447 355.535" stroke="#3A1774" stroke-opacity="0.14" stroke-width="3"/>
<path d="M530.555 184.672C428.274 151.383 223.218 140.494 221.242 363.254" stroke="#3A1774" stroke-opacity="0.14" stroke-width="3"/>
<path d="M538.656 180.262C435.161 150.964 229.837 148.035 236.501 370.703" stroke="#3A1774" stroke-opacity="0.14" stroke-width="3"/>
<path d="M546.759 175.853C442.206 150.59 236.922 155.624 252.215 377.867" stroke="#3A1774" stroke-opacity="0.14" stroke-width="3"/>
<path d="M554.861 171.443C449.407 150.253 244.474 163.244 268.372 384.727" stroke="#3A1774" stroke-opacity="0.14" stroke-width="3"/>
<path d="M562.963 167.034C456.766 149.949 252.491 170.876 284.959 391.266" stroke="#3A1774" stroke-opacity="0.14" stroke-width="3"/>
<path d="M571.065 162.625C464.286 149.671 260.976 178.503 301.966 397.468" stroke="#3A1774" stroke-opacity="0.14" stroke-width="3"/>
<path d="M579.168 158.215C471.967 149.411 269.927 186.105 319.377 403.316" stroke="#3A1774" stroke-opacity="0.14" stroke-width="3"/>
<path d="M587.27 153.806C479.808 149.165 279.343 193.666 337.177 408.796" stroke="#3A1774" stroke-opacity="0.14" stroke-width="3"/>
<path d="M595.372 149.396C487.811 148.926 289.222 201.166 355.355 413.892" stroke="#3A1774" stroke-opacity="0.14" stroke-width="3"/>
<path d="M603.475 144.987C495.976 148.687 299.563 208.589 373.894 418.59" stroke="#3A1774" stroke-opacity="0.14" stroke-width="3"/>
<path d="M611.576 140.578C504.302 148.444 310.359 215.916 392.778 422.877" stroke="#3A1774" stroke-opacity="0.14" stroke-width="3"/>
<path d="M619.679 136.168C512.79 148.188 321.609 223.129 411.991 426.739" stroke="#3A1774" stroke-opacity="0.14" stroke-width="3"/>
<path d="M627.78 131.759C521.438 147.914 333.307 230.213 431.516 430.165" stroke="#3A1774" stroke-opacity="0.14" stroke-width="3"/>
<path d="M635.883 127.35C530.247 147.616 345.448 237.148 451.337 433.141" stroke="#3A1774" stroke-opacity="0.14" stroke-width="3"/>
<path d="M643.985 122.94C539.215 147.287 358.027 243.917 471.435 435.657" stroke="#3A1774" stroke-opacity="0.14" stroke-width="3"/>
<path d="M652.087 118.531C548.34 146.922 371.034 250.505 491.792 437.704" stroke="#3A1774" stroke-opacity="0.14" stroke-width="3"/>
<path d="M660.189 114.121C557.621 146.514 384.466 256.894 512.391 439.27" stroke="#3A1774" stroke-opacity="0.14" stroke-width="3"/>
<path d="M668.292 109.711C567.057 146.057 398.312 263.068 533.213 440.346" stroke="#3A1774" stroke-opacity="0.14" stroke-width="3"/>
<path d="M676.394 105.302C576.644 145.546 412.563 269.012 554.236 440.926" stroke="#3A1774" stroke-opacity="0.14" stroke-width="3"/>
<path d="M684.496 100.893C586.382 144.974 427.212 274.71 575.445 441.001" stroke="#3A1774" stroke-opacity="0.14" stroke-width="3"/>
<path d="M692.598 96.4834C596.266 144.336 442.247 280.146 596.816 440.564" stroke="#3A1774" stroke-opacity="0.14" stroke-width="3"/>
<path d="M700.7 92.0737C606.297 143.626 457.659 285.306 618.333 439.61" stroke="#3A1774" stroke-opacity="0.14" stroke-width="3"/>
<path d="M708.803 87.6646C616.469 142.838 473.437 290.175 639.973 438.133" stroke="#3A1774" stroke-opacity="0.14" stroke-width="3"/>
<path d="M716.904 83.2554C626.78 141.968 489.568 294.74 661.716 436.129" stroke="#3A1774" stroke-opacity="0.14" stroke-width="3"/>
<path d="M725.007 78.8457C637.227 141.009 506.042 298.987 683.543 433.594" stroke="#3A1774" stroke-opacity="0.14" stroke-width="3"/>
<path d="M733.108 74.436C647.805 139.956 522.844 302.902 705.431 430.526" stroke="#3A1774" stroke-opacity="0.14" stroke-width="3"/>
<path d="M741.211 70.0269C658.512 138.805 539.964 306.474 727.362 426.922" stroke="#3A1774" stroke-opacity="0.14" stroke-width="3"/>
</svg>
