<svg width="20" height="21" viewBox="0 0 20 21" fill="none" xmlns="http://www.w3.org/2000/svg">
<path d="M10 0C8.2631 0.000462798 6.55625 0.453196 5.04745 1.31364C3.53865 2.17408 2.27991 3.41258 1.39512 4.90723C0.510329 6.40187 0.0299822 8.10116 0.00135866 9.83782C-0.0272649 11.5745 0.396822 13.2887 1.23188 14.8117L0.409972 17.6882C0.334635 17.952 0.331207 18.2311 0.400045 18.4967C0.468882 18.7623 0.607481 19.0046 0.80148 19.1986C0.995479 19.3926 1.23782 19.5312 1.5034 19.6C1.76897 19.6688 2.04812 19.6654 2.31192 19.59L5.18846 18.7682C6.52521 19.5017 8.01199 19.9198 9.53512 19.9906C11.0583 20.0614 12.5774 19.7829 13.9764 19.1765C15.3754 18.5702 16.6173 17.6519 17.607 16.492C18.5967 15.3321 19.3081 13.9612 19.6867 12.4842C20.0654 11.0072 20.1013 9.46317 19.7917 7.97016C19.4821 6.47714 18.8352 5.07469 17.9005 3.87002C16.9658 2.66535 15.768 1.69037 14.3986 1.01962C13.0293 0.348866 11.5248 0.000104605 10 0ZM10 18.4615C8.48043 18.4626 6.9887 18.0538 5.68191 17.2783C5.59183 17.2248 5.49174 17.1901 5.38779 17.1767C5.28385 17.1632 5.17825 17.1711 5.07747 17.1999L1.88928 18.1107L2.80011 14.9227C2.82891 14.8219 2.8368 14.7163 2.8233 14.6123C2.8098 14.5084 2.77519 14.4083 2.72161 14.3182C1.7686 12.7125 1.37339 10.8367 1.59756 8.98295C1.82174 7.12923 2.6527 5.4017 3.961 4.06946C5.26931 2.73722 6.9815 1.87508 8.83085 1.61735C10.6802 1.35962 12.5629 1.72076 14.1856 2.64451C15.8083 3.56827 17.0799 5.00277 17.8024 6.72456C18.5249 8.44635 18.6576 10.3587 18.1799 12.1638C17.7023 13.9689 16.641 15.5654 15.1615 16.7044C13.6819 17.8435 11.8672 18.4613 10 18.4615ZM11.1539 10C11.1539 10.2282 11.0862 10.4513 10.9594 10.641C10.8326 10.8308 10.6524 10.9787 10.4416 11.066C10.2308 11.1533 9.99877 11.1762 9.77494 11.1317C9.55112 11.0871 9.34552 10.9773 9.18415 10.8159C9.02279 10.6545 8.91289 10.4489 8.86837 10.2251C8.82385 10.0013 8.8467 9.76928 8.93403 9.55844C9.02136 9.3476 9.16926 9.16739 9.359 9.04061C9.54875 8.91382 9.77184 8.84615 10 8.84615C10.3061 8.84615 10.5996 8.96772 10.8159 9.1841C11.0323 9.40049 11.1539 9.69398 11.1539 10ZM6.53851 10C6.53851 10.2282 6.47084 10.4513 6.34405 10.641C6.21727 10.8308 6.03706 10.9787 5.82622 11.066C5.61538 11.1533 5.38338 11.1762 5.15956 11.1317C4.93574 11.0871 4.73014 10.9773 4.56877 10.8159C4.4074 10.6545 4.29751 10.4489 4.25299 10.2251C4.20847 10.0013 4.23132 9.76928 4.31865 9.55844C4.40598 9.3476 4.55387 9.16739 4.74362 9.04061C4.93337 8.91382 5.15646 8.84615 5.38466 8.84615C5.69068 8.84615 5.98417 8.96772 6.20056 9.1841C6.41694 9.40049 6.53851 9.69398 6.53851 10ZM15.7693 10C15.7693 10.2282 15.7016 10.4513 15.5748 10.641C15.448 10.8308 15.2678 10.9787 15.057 11.066C14.8461 11.1533 14.6142 11.1762 14.3903 11.1317C14.1665 11.0871 13.9609 10.9773 13.7995 10.8159C13.6382 10.6545 13.5283 10.4489 13.4838 10.2251C13.4392 10.0013 13.4621 9.76928 13.5494 9.55844C13.6367 9.3476 13.7846 9.16739 13.9744 9.04061C14.1641 8.91382 14.3872 8.84615 14.6154 8.84615C14.9214 8.84615 15.2149 8.96772 15.4313 9.1841C15.6477 9.40049 15.7693 9.69398 15.7693 10Z" fill="white"/>
</svg>
