<svg width="56" height="55" viewBox="0 0 56 55" fill="none" xmlns="http://www.w3.org/2000/svg">
<path d="M9.81961 4.43308e-06H45.3528C46.6326 -0.00123229 47.9001 0.256305 49.0827 0.757877C50.2653 1.25945 51.3399 1.99521 52.2448 2.92305C53.1498 3.85089 53.8674 4.95259 54.3566 6.16511C54.8458 7.37763 55.097 8.67716 55.0958 9.98932V45.0107C55.097 46.3228 54.8458 47.6224 54.3566 48.8349C53.8674 50.0474 53.1498 51.1491 52.2448 52.077C51.3399 53.0048 50.2653 53.7406 49.0827 54.2421C47.9001 54.7437 46.6326 55.0012 45.3528 55H9.81961C8.53981 55.0012 7.27232 54.7437 6.08971 54.2421C4.90709 53.7406 3.83255 53.0048 2.9276 52.077C2.02264 51.1491 1.30502 50.0474 0.815817 48.8349C0.326614 47.6224 0.0754277 46.3228 0.076634 45.0107V9.98932C0.0754277 8.67716 0.326614 7.37763 0.815817 6.16511C1.30502 4.95259 2.02264 3.85089 2.9276 2.92305C3.83255 1.99521 4.90709 1.25945 6.08971 0.757877C7.27232 0.256305 8.53981 -0.00123229 9.81961 4.43308e-06Z" fill="#00005B"/>
<path d="M13.1437 38.5705V14.3846C13.1437 14.22 13.2125 14.126 13.373 14.126C13.7627 14.126 14.1295 14.126 14.6567 14.1025C15.184 14.079 15.78 14.079 16.399 14.0555C17.018 14.032 17.6828 14.032 18.3935 14.0085C19.1041 13.985 19.7919 13.985 20.4796 13.985C22.3594 13.985 23.9183 14.22 25.2021 14.7136C26.3529 15.1143 27.4022 15.7727 28.274 16.641C29.0127 17.4008 29.5834 18.3146 29.9475 19.3205C30.2945 20.3 30.4729 21.3339 30.4747 22.376C30.4747 24.3974 30.0163 26.0662 29.0993 27.3824C28.178 28.6969 26.8918 29.6961 25.4084 30.2499C23.8495 30.8375 22.1302 31.0491 20.2503 31.0491C19.7002 31.0491 19.3334 31.0491 19.1041 31.0256C18.8749 31.0021 18.5539 31.0021 18.1184 31.0021V38.5469C18.1235 38.5856 18.121 38.625 18.111 38.6626C18.101 38.7003 18.0837 38.7355 18.0602 38.7662C18.0367 38.7969 18.0074 38.8224 17.9741 38.8413C17.9407 38.8601 17.904 38.872 17.8662 38.876H13.4188C13.2354 38.876 13.1437 38.782 13.1437 38.5705ZM18.1413 18.6623V26.5598C18.4622 26.5833 18.7602 26.6068 19.0353 26.6068H20.2503C21.1453 26.6079 22.0349 26.4651 22.8867 26.1837C23.6175 25.9634 24.2704 25.5307 24.7665 24.938C25.2479 24.3504 25.4772 23.5512 25.4772 22.517C25.4987 21.7826 25.3159 21.057 24.9499 20.4252C24.5677 19.8149 24.0055 19.3455 23.3452 19.0854C22.4846 18.7398 21.5637 18.5798 20.6401 18.6153C20.044 18.6153 19.5168 18.6153 19.0812 18.6388C18.7678 18.6178 18.4533 18.6257 18.1413 18.6623Z" fill="#9999FF"/>
<path d="M33.6842 20.0256H37.696C37.8047 20.0283 37.9097 20.0661 37.9962 20.1337C38.0826 20.2012 38.1461 20.295 38.1774 20.4017C38.2474 20.5908 38.2936 20.7883 38.315 20.9893C38.3608 21.2243 38.4067 21.4829 38.4296 21.7179C38.4525 21.953 38.4754 22.2585 38.4754 22.5641C39.1638 21.7402 39.9956 21.0548 40.9284 20.5427C41.994 19.9358 43.194 19.6202 44.4129 19.6261C44.4507 19.6208 44.489 19.6234 44.5258 19.6336C44.5625 19.6439 44.5968 19.6616 44.6268 19.6857C44.6567 19.7098 44.6816 19.7398 44.7 19.774C44.7184 19.8082 44.7299 19.8458 44.7339 19.8846V24.562C44.7339 24.75 44.6193 24.8205 44.3671 24.8205C43.5355 24.7926 42.7037 24.8716 41.8912 25.0555C41.229 25.1957 40.5834 25.4085 39.9655 25.6902C39.522 25.8952 39.1241 26.1912 38.7964 26.5598V38.547C38.7964 38.782 38.7047 38.8761 38.4984 38.8761H33.9822C33.9399 38.8834 33.8966 38.8818 33.855 38.8714C33.8133 38.861 33.7741 38.8421 33.7398 38.8157C33.7055 38.7893 33.6768 38.7561 33.6554 38.718C33.634 38.6798 33.6204 38.6377 33.6154 38.594V25.4786C33.6154 24.9145 33.6154 24.3269 33.5925 23.7158C33.5696 23.1047 33.5696 22.4936 33.5466 21.8825C33.5466 21.3419 33.5008 20.8248 33.4549 20.2842C33.4489 20.2564 33.4482 20.2277 33.453 20.1996C33.4578 20.1716 33.4679 20.1448 33.4828 20.1207C33.4977 20.0967 33.5171 20.0759 33.5399 20.0596C33.5626 20.0433 33.5883 20.0317 33.6154 20.0256C33.6154 20.0021 33.6613 20.0021 33.6842 20.0256Z" fill="#9999FF"/>
</svg>
