<svg width="56" height="55" viewBox="0 0 56 55" fill="none" xmlns="http://www.w3.org/2000/svg">
<path d="M9.76213 4.43308e-06H45.2953C46.5751 -0.00123229 47.8426 0.256305 49.0252 0.757877C50.2079 1.25945 51.2824 1.99521 52.1873 2.92305C53.0923 3.85089 53.8099 4.95259 54.2991 6.16511C54.7883 7.37763 55.0395 8.67716 55.0383 9.98932V45.0107C55.0395 46.3228 54.7883 47.6224 54.2991 48.8349C53.8099 50.0474 53.0923 51.1491 52.1873 52.077C51.2824 53.0048 50.2079 53.7406 49.0252 54.2421C47.8426 54.7437 46.5751 55.0012 45.2953 55H9.76213C8.48232 55.0012 7.21484 54.7437 6.03222 54.2421C4.84961 53.7406 3.77507 53.0048 2.87011 52.077C1.96515 51.1491 1.24754 50.0474 0.758333 48.8349C0.26913 47.6224 0.0179441 46.3228 0.0191503 45.0107V9.98932C0.0179441 8.67716 0.26913 7.37763 0.758333 6.16511C1.24754 4.95259 1.96515 3.85089 2.87011 2.92305C3.77507 1.99521 4.84961 1.25945 6.03222 0.757877C7.21484 0.256305 8.48232 -0.00123229 9.76213 4.43308e-06Z" fill="#001E36"/>
<path d="M12.3984 38.5706V14.3847C12.3984 14.2202 12.4672 14.1261 12.6277 14.1261C13.0174 14.1261 13.3842 14.1261 13.9115 14.1026C14.4387 14.0791 15.0348 14.0791 15.6537 14.0556C16.2727 14.0321 16.9375 14.0321 17.6482 14.0086C18.3589 13.9851 19.0466 13.9851 19.7343 13.9851C21.6142 13.9851 23.173 14.2201 24.4568 14.7137C25.6076 15.1144 26.657 15.7728 27.5287 16.6411C28.2674 17.4009 28.8382 18.3148 29.2022 19.3206C29.5492 20.3001 29.7276 21.334 29.7295 22.3761C29.7295 24.3975 29.271 26.0663 28.354 27.3825C27.4328 28.697 26.1465 29.6963 24.6631 30.2501C23.1043 30.8377 21.3849 31.0492 19.5051 31.0492C18.9549 31.0492 18.5881 31.0492 18.3589 31.0257C18.1296 31.0022 17.8087 31.0022 17.3731 31.0022V38.5471C17.3782 38.5857 17.3757 38.6251 17.3657 38.6627C17.3557 38.7004 17.3385 38.7356 17.3149 38.7663C17.2914 38.797 17.2621 38.8225 17.2288 38.8414C17.1955 38.8603 17.1588 38.8721 17.1209 38.8761H12.6735C12.4901 38.8761 12.3984 38.7821 12.3984 38.5706ZM17.396 18.6625V26.5599C17.717 26.5834 18.015 26.6069 18.2901 26.6069H19.5051C20.4 26.608 21.2896 26.4652 22.1414 26.1838C22.8722 25.9635 23.5252 25.5308 24.0212 24.9381C24.5027 24.3505 24.7319 23.5513 24.7319 22.5172C24.7535 21.7827 24.5706 21.0571 24.2046 20.4253C23.8224 19.815 23.2602 19.3457 22.5999 19.0855C21.7393 18.7399 20.8184 18.5799 19.8948 18.6154C19.2988 18.6154 18.7715 18.6154 18.3359 18.639C18.0226 18.6179 17.708 18.6258 17.396 18.6625Z" fill="#31A8FF"/>
<path d="M44.0345 25.1262C43.3423 24.7524 42.6011 24.4832 41.8337 24.327C40.991 24.1313 40.1302 24.0289 39.2662 24.0215C38.8022 24.0051 38.3385 24.0605 37.8907 24.186C37.6052 24.2469 37.3519 24.4145 37.18 24.6561C37.0642 24.8468 37.0008 25.0661 36.9966 25.2907C37.0073 25.5143 37.0877 25.7285 37.2259 25.9018C37.4432 26.1631 37.7079 26.3786 38.0053 26.5364C38.5326 26.8185 39.0828 27.077 39.633 27.3121C40.8715 27.7396 42.0565 28.3155 43.1634 29.0279C43.9162 29.5132 44.5388 30.1838 44.9744 30.9787C45.3428 31.7286 45.524 32.5604 45.5017 33.3997C45.5203 34.5106 45.2084 35.601 44.6076 36.5257C43.9682 37.464 43.076 38.1909 42.0401 38.6176C40.9168 39.1112 39.5413 39.3698 37.8907 39.3698C36.8441 39.3741 35.7998 39.2717 34.773 39.0642C33.9644 38.921 33.1781 38.668 32.4346 38.3121C32.3547 38.271 32.2883 38.2068 32.2434 38.1274C32.1986 38.0481 32.1774 37.957 32.1825 37.8655V33.7757C32.1805 33.7356 32.1878 33.6955 32.2037 33.6588C32.2196 33.622 32.2438 33.5896 32.2742 33.5642C32.3065 33.5449 32.344 33.5368 32.3811 33.541C32.4183 33.5452 32.4531 33.5616 32.4805 33.5877C33.3636 34.1215 34.3227 34.5101 35.3231 34.7394C36.2064 34.9751 37.1156 35.0936 38.0283 35.092C38.8994 35.092 39.5184 34.9745 39.931 34.7629C40.1151 34.6758 40.271 34.5366 40.3807 34.3617C40.4903 34.1869 40.549 33.9836 40.55 33.7757C40.55 33.4467 40.3666 33.1411 39.9998 32.8356C39.633 32.53 38.8765 32.1775 37.7532 31.7309C36.6008 31.3146 35.5064 30.7456 34.4979 30.0386C33.7795 29.5136 33.1843 28.8311 32.7556 28.0407C32.3897 27.2984 32.2086 26.4748 32.2283 25.6433C32.2317 24.6403 32.5011 23.6572 33.0078 22.7993C33.5901 21.8557 34.426 21.1048 35.4148 20.6369C36.4923 20.0728 37.8449 19.8142 39.4725 19.8142C40.4238 19.8145 41.3738 19.8852 42.3152 20.0257C42.992 20.1196 43.6545 20.3013 44.2867 20.5663C44.3874 20.6029 44.4699 20.679 44.5159 20.7779C44.5424 20.8696 44.5577 20.9644 44.5618 21.0599V24.8911C44.5621 24.9368 44.5519 24.9819 44.532 25.0228C44.5121 25.0636 44.483 25.0991 44.4472 25.1262C44.3138 25.1753 44.1679 25.1753 44.0345 25.1262Z" fill="#31A8FF"/>
</svg>
