<svg width="1199" height="1180" viewBox="0 0 1199 1180" fill="none" xmlns="http://www.w3.org/2000/svg">
<path d="M1063.8 1.23678C1063.62 2.79547 1045.35 159.397 1008.64 345.569C987.094 454.797 963.518 552.685 938.547 636.489C907.455 740.909 874.155 823.519 839.586 882.055C837.207 886.088 834.853 889.988 832.537 893.742C827.829 901.397 823.261 908.484 818.843 915.009C815.94 908.477 813.025 901.448 810.109 893.944C812.425 890.183 814.767 886.296 817.146 882.264C819.411 878.427 821.664 874.502 823.911 870.457C856.069 812.823 887.053 734.276 916.107 636.697C941.077 552.887 964.653 455.005 986.198 345.771C1022.92 159.605 1041.19 2.99741 1041.36 1.4324L1063.8 1.23047V1.23678Z" fill="url(#paint0_linear_27_162)" fill-opacity="0.26"/>
<path d="M1108.91 0.820312C1108.73 2.38531 1090.46 158.993 1053.74 345.152C1032.2 454.393 1008.61 552.269 983.654 636.079C952.563 740.492 919.256 823.109 884.687 881.645C872.287 902.621 860.858 919.874 850.326 933.473C845.764 939.367 841.372 944.573 837.137 949.092C834.02 944.567 830.928 939.38 827.842 933.593C832.184 927.983 836.677 921.761 841.321 914.908C847.947 905.158 854.876 894.14 862.139 881.853C896.708 823.317 930.009 740.707 961.113 636.293C986.071 552.484 1009.65 454.602 1031.2 345.367C1067.91 159.188 1086.18 2.58094 1086.35 1.02856L1108.9 0.820312H1108.91Z" fill="url(#paint1_linear_27_162)" fill-opacity="0.26"/>
<path d="M1154.01 0.410156C1153.83 1.96885 1135.56 158.57 1098.85 344.742C1077.3 453.983 1053.71 551.859 1028.76 635.669C997.664 740.082 964.357 822.693 929.788 881.229C906.319 920.966 886.29 947.35 869.302 960.785C865.011 964.186 860.909 966.761 856.997 968.515C853.557 966.799 850.175 964.262 846.818 960.943C850.913 957.699 855.173 953.705 859.615 948.953C873.637 934.003 889.445 911.551 907.241 881.431C941.81 822.895 975.11 740.278 1006.2 635.864C1031.17 552.055 1054.75 454.172 1076.29 344.944C1113.01 158.778 1131.28 2.17709 1131.46 0.618403L1154.01 0.410156Z" fill="url(#paint2_linear_27_162)" fill-opacity="0.26"/>
<path d="M1199 0C1198.82 1.55869 1180.55 158.166 1143.83 344.332C1122.29 453.567 1098.71 551.449 1073.74 635.258C1042.64 739.672 1009.34 822.289 974.776 880.825C939.91 939.834 912.649 969.399 891.666 970.869C891.187 970.901 890.707 970.92 890.234 970.926L867.794 971.128C868.267 971.128 868.747 971.103 869.226 971.071C890.209 969.594 917.47 940.036 952.335 881.027C986.904 822.491 1020.2 739.874 1051.3 635.46C1076.27 551.651 1099.85 453.769 1121.39 344.534C1158.11 158.368 1176.38 1.76063 1176.56 0.201936L1199 0Z" fill="url(#paint3_linear_27_162)" fill-opacity="0.26"/>
<path d="M754.88 972.163L732.604 972.365C731.474 972.371 730.357 972.308 729.266 972.15C692.122 966.799 662.21 865.882 620.801 726.211C592.006 629.099 556.169 508.228 505.672 375.884C498.359 356.726 490.603 340.129 482.456 326.214C479.351 320.914 476.196 316.004 472.997 311.486C477.256 306.936 481.491 302.758 485.693 298.953C488.987 302.664 492.231 306.784 495.43 311.284C507.073 327.666 518.022 349.235 528.106 375.676C578.609 508.026 614.44 628.891 643.241 726.003C681.849 856.264 710.479 952.815 744.285 969.582H744.291C746.739 970.787 749.201 971.589 751.706 971.942C752.734 972.093 753.801 972.169 754.874 972.169L754.88 972.163Z" fill="url(#paint4_linear_27_162)" fill-opacity="0.26"/>
<path d="M799.956 971.746L777.591 971.955C776.462 971.961 775.345 971.885 774.253 971.728C771.729 971.362 769.255 970.56 766.788 969.342C763.361 967.638 759.992 965.114 756.653 961.82C727.089 932.609 700.477 842.798 665.789 725.795C636.994 628.67 601.163 507.812 550.66 375.455C537.78 341.719 523.512 315.916 508.19 298.682C507.181 297.552 506.171 296.454 505.155 295.388C502.852 292.99 500.523 290.769 498.157 288.73C502.239 285.72 506.303 283.089 510.323 280.823C513.832 283 517.277 285.556 520.66 288.478C523.039 290.522 525.393 292.763 527.709 295.173C544.173 312.338 559.482 339.271 573.214 375.247C623.716 507.591 659.547 628.462 688.342 725.574C719.201 829.672 743.679 912.239 769.527 949.767C772.714 954.393 775.919 958.337 779.163 961.549C782.514 964.868 785.902 967.405 789.342 969.128C791.803 970.352 794.295 971.147 796.813 971.513C797.854 971.664 798.902 971.728 799.969 971.728L799.956 971.746Z" fill="url(#paint5_linear_27_162)" fill-opacity="0.26"/>
<path d="M845.089 971.336L822.699 971.538C821.569 971.557 820.452 971.481 819.361 971.324C816.837 970.958 814.35 970.156 811.889 968.938H811.883C808.444 967.222 805.067 964.679 801.717 961.359C798.454 958.128 795.236 954.172 792.03 949.508C788.938 945.009 785.858 939.847 782.785 934.092C760.244 891.843 738.037 816.944 710.896 725.385C682.101 628.273 646.264 507.408 595.767 375.058C582.036 339.088 566.726 312.149 550.262 294.984C544.627 289.115 538.815 284.319 532.82 280.609C529.343 278.438 525.797 276.639 522.206 275.207C526.099 273.699 529.961 272.563 533.779 271.793C537.471 272.481 541.118 273.547 544.703 274.973C554.503 278.873 563.887 285.493 572.81 294.782C589.274 311.94 604.583 338.88 618.315 374.85C668.818 507.2 704.649 628.064 733.443 725.189C756.975 804.563 776.79 871.422 796.334 915.324C799.312 922.039 802.291 928.204 805.276 933.802C808.361 939.601 811.46 944.775 814.577 949.3C817.77 953.957 820.995 957.92 824.251 961.157C827.602 964.477 830.991 967.014 834.436 968.73C836.898 969.954 839.378 970.749 841.902 971.115C842.943 971.267 844.009 971.343 845.082 971.343L845.089 971.336Z" fill="url(#paint6_linear_27_162)" fill-opacity="0.26"/>
<path d="M889.937 970.92L867.806 971.128C866.677 971.134 865.56 971.059 864.468 970.914C861.944 970.547 859.458 969.746 856.996 968.516C853.557 966.799 850.175 964.262 846.818 960.943C843.555 957.712 840.337 953.743 837.131 949.086C834.014 944.561 830.921 939.374 827.836 933.587C824.832 927.964 821.834 921.755 818.843 915.009C815.94 908.477 813.025 901.448 810.109 893.944C793.343 850.951 776.001 792.497 755.997 724.975C727.202 627.862 691.371 506.991 640.868 374.648C627.149 338.672 611.827 311.738 595.363 294.574C579.928 278.482 563.098 270.417 545.1 270.588L567.54 270.386C585.532 270.222 602.368 278.28 617.804 294.366C634.268 311.53 649.577 338.47 663.308 374.439C713.811 506.789 749.642 627.654 778.437 724.766C795.046 780.785 809.807 830.568 823.917 870.457C826.82 878.641 829.691 886.422 832.543 893.742C835.49 901.29 838.412 908.351 841.321 914.902C844.325 921.648 847.322 927.851 850.326 933.473C853.412 939.266 856.498 944.441 859.622 948.959C862.827 953.61 866.046 957.573 869.308 960.792C872.659 964.104 876.048 966.641 879.487 968.345C881.936 969.55 884.403 970.352 886.908 970.705C887.905 970.844 888.921 970.92 889.944 970.92H889.937Z" fill="url(#paint7_linear_27_162)" fill-opacity="0.26"/>
<path d="M421.099 272.802C400.666 276.898 379.065 291.481 356.783 316.275C334.664 340.88 311.139 376.301 286.831 421.56C246.21 497.191 202.554 601.661 157.049 732.067C79.7015 953.73 23.0017 1176.84 22.4401 1179.07L0 1179.28C0.555323 1177.05 57.2677 953.938 134.609 732.269C180.114 601.876 223.776 497.405 264.391 421.762C288.692 376.509 312.224 341.082 334.343 316.484C359.471 288.522 383.722 273.541 406.427 271.944C407.595 271.868 408.75 271.818 409.898 271.812C413.684 271.78 417.42 272.102 421.099 272.802Z" fill="url(#paint8_linear_27_162)" fill-opacity="0.26"/>
<path d="M466.118 272.405C462.3 273.168 458.438 274.311 454.545 275.819C450.645 277.314 446.701 279.189 442.732 281.416C429.461 288.869 415.805 300.379 401.89 315.872C379.765 340.464 356.234 375.897 331.932 421.15C291.318 496.787 247.662 601.257 202.157 731.657C124.809 953.326 68.1091 1176.44 67.5412 1178.67L44.9938 1178.88C45.5491 1176.65 102.261 953.528 179.609 731.866C225.108 601.459 268.77 496.989 309.384 421.358C333.686 376.105 357.218 340.678 379.336 316.074C397.46 295.924 415.117 282.508 432.073 276.002C435.941 274.513 439.785 273.383 443.577 272.613C446.215 272.083 448.827 271.723 451.421 271.54C452.589 271.458 453.743 271.414 454.892 271.408C458.684 271.376 462.433 271.704 466.125 272.405H466.118Z" fill="url(#paint9_linear_27_162)" fill-opacity="0.26"/>
<path d="M511.232 271.995C507.42 272.758 503.558 273.9 499.665 275.409C495.74 276.917 491.77 278.797 487.776 281.044C483.75 283.309 479.698 285.947 475.603 288.951C471.507 291.961 467.374 295.35 463.215 299.105C457.852 303.938 452.443 309.397 446.985 315.461C424.867 340.066 401.341 375.493 377.033 420.746C336.419 496.377 292.763 600.847 247.258 731.253C169.91 952.916 113.21 1176.04 112.642 1178.26L90.0949 1178.47C90.6502 1176.24 147.363 953.124 224.71 731.462C270.209 601.055 313.871 496.585 354.486 420.954C378.787 375.689 402.319 340.274 424.437 315.67C434.149 304.872 443.722 296.006 453.125 289.109C457.195 286.111 461.228 283.499 465.222 281.252C469.223 278.999 473.186 277.119 477.105 275.611C480.998 274.102 484.86 272.967 488.678 272.197C491.316 271.667 493.929 271.307 496.522 271.124C497.69 271.048 498.844 271.01 499.993 270.991C503.798 270.96 507.54 271.288 511.232 272.001V271.995Z" fill="url(#paint10_linear_27_162)" fill-opacity="0.26"/>
<path d="M567.534 270.379C566.379 270.386 565.218 270.43 564.057 270.506C561.476 270.689 558.889 271.036 556.27 271.572C552.458 272.336 548.596 273.471 544.703 274.967C540.778 276.475 536.815 278.356 532.82 280.602C528.8 282.855 524.743 285.487 520.654 288.49C516.533 291.52 512.374 294.921 508.19 298.688C503.962 302.506 499.709 306.703 495.424 311.278C494.276 312.508 493.127 313.764 491.972 315.045C488.83 318.547 485.649 322.264 482.456 326.202C463.133 349.929 442.858 381.507 422.014 420.329C381.4 495.961 337.744 600.431 292.239 730.837C214.891 952.499 158.191 1175.61 157.623 1177.84L135.19 1178.05C135.745 1175.82 192.451 952.708 269.799 731.039C315.304 600.645 358.96 496.175 399.574 420.531C423.888 375.279 447.414 339.852 469.532 315.247C470.687 313.966 471.836 312.71 472.99 311.48C477.25 306.93 481.484 302.752 485.687 298.947C489.871 295.167 494.03 291.759 498.15 288.737C502.233 285.726 506.297 283.095 510.317 280.83C514.311 278.583 518.268 276.702 522.2 275.194C526.093 273.686 529.955 272.55 533.773 271.78C536.411 271.25 539.023 270.891 541.617 270.708C542.772 270.632 543.933 270.581 545.088 270.575L567.528 270.373L567.534 270.379Z" fill="url(#paint11_linear_27_162)" fill-opacity="0.26"/>
<defs>
<linearGradient id="paint0_linear_27_162" x1="936.957" y1="1.23047" x2="936.957" y2="915.009" gradientUnits="userSpaceOnUse">
<stop stop-color="#3A1774"/>
<stop offset="1" stop-color="#171717" stop-opacity="0"/>
</linearGradient>
<linearGradient id="paint1_linear_27_162" x1="968.377" y1="0.820312" x2="968.377" y2="949.092" gradientUnits="userSpaceOnUse">
<stop stop-color="#3A1774"/>
<stop offset="1" stop-color="#171717" stop-opacity="0"/>
</linearGradient>
<linearGradient id="paint2_linear_27_162" x1="1000.42" y1="0.410156" x2="1000.42" y2="968.515" gradientUnits="userSpaceOnUse">
<stop stop-color="#3A1774"/>
<stop offset="1" stop-color="#171717" stop-opacity="0"/>
</linearGradient>
<linearGradient id="paint3_linear_27_162" x1="1033.4" y1="0" x2="1033.4" y2="971.128" gradientUnits="userSpaceOnUse">
<stop stop-color="#3A1774"/>
<stop offset="1" stop-color="#171717" stop-opacity="0"/>
</linearGradient>
<linearGradient id="paint4_linear_27_162" x1="613.938" y1="298.953" x2="613.938" y2="972.365" gradientUnits="userSpaceOnUse">
<stop stop-color="#3A1774"/>
<stop offset="1" stop-color="#171717" stop-opacity="0"/>
</linearGradient>
<linearGradient id="paint5_linear_27_162" x1="649.063" y1="280.823" x2="649.063" y2="971.955" gradientUnits="userSpaceOnUse">
<stop stop-color="#3A1774"/>
<stop offset="1" stop-color="#171717" stop-opacity="0"/>
</linearGradient>
<linearGradient id="paint6_linear_27_162" x1="683.647" y1="271.793" x2="683.647" y2="971.541" gradientUnits="userSpaceOnUse">
<stop stop-color="#3A1774"/>
<stop offset="1" stop-color="#171717" stop-opacity="0"/>
</linearGradient>
<linearGradient id="paint7_linear_27_162" x1="717.522" y1="270.383" x2="717.522" y2="971.128" gradientUnits="userSpaceOnUse">
<stop stop-color="#3A1774"/>
<stop offset="1" stop-color="#171717" stop-opacity="0"/>
</linearGradient>
<linearGradient id="paint8_linear_27_162" x1="210.55" y1="271.81" x2="210.55" y2="1179.28" gradientUnits="userSpaceOnUse">
<stop stop-color="#3A1774"/>
<stop offset="1" stop-color="#171717" stop-opacity="0"/>
</linearGradient>
<linearGradient id="paint9_linear_27_162" x1="255.559" y1="271.406" x2="255.559" y2="1178.88" gradientUnits="userSpaceOnUse">
<stop stop-color="#3A1774"/>
<stop offset="1" stop-color="#171717" stop-opacity="0"/>
</linearGradient>
<linearGradient id="paint10_linear_27_162" x1="300.663" y1="270.989" x2="300.663" y2="1178.47" gradientUnits="userSpaceOnUse">
<stop stop-color="#3A1774"/>
<stop offset="1" stop-color="#171717" stop-opacity="0"/>
</linearGradient>
<linearGradient id="paint11_linear_27_162" x1="351.362" y1="270.373" x2="351.362" y2="1178.05" gradientUnits="userSpaceOnUse">
<stop stop-color="#3A1774"/>
<stop offset="1" stop-color="#171717" stop-opacity="0"/>
</linearGradient>
</defs>
</svg>
