<svg width="21" height="82" viewBox="0 0 21 82" fill="none" xmlns="http://www.w3.org/2000/svg">
<path d="M10.5 8.60001V12.0834M20 20V10.5C20 7.98046 18.9991 5.56409 17.2175 3.78249C15.4359 2.00089 13.0196 1 10.5 1C7.98045 1 5.56409 2.00089 3.78249 3.78249C2.00089 5.56409 1 7.98046 1 10.5V20C1 22.5196 2.00089 24.936 3.78249 26.7176C5.56409 28.4992 7.98045 29.5 10.5 29.5C13.0196 29.5 15.4359 28.4992 17.2175 26.7176C18.9991 24.936 20 22.5196 20 20Z" stroke="white" stroke-width="2" stroke-linecap="round" stroke-linejoin="round"/>
<path d="M11 46.1082V81.1082" stroke="white" stroke-width="2"/>
</svg>
