<svg width="36" height="39" viewBox="0 0 36 39" fill="none" xmlns="http://www.w3.org/2000/svg">
<path d="M18 31.9091C18.356 31.9091 18.704 31.8051 19 31.6103C19.296 31.4155 19.5267 31.1387 19.663 30.8148C19.7992 30.4908 19.8348 30.1344 19.7654 29.7905C19.6959 29.4466 19.5245 29.1308 19.2728 28.8829C19.021 28.6349 18.7003 28.4661 18.3511 28.3977C18.002 28.3293 17.64 28.3644 17.3111 28.4986C16.9822 28.6327 16.7011 28.86 16.5033 29.1515C16.3055 29.443 16.2 29.7858 16.2 30.1364C16.2 30.6065 16.3896 31.0574 16.7272 31.3899C17.0647 31.7223 17.5226 31.9091 18 31.9091ZM27 31.9091C27.356 31.9091 27.704 31.8051 28 31.6103C28.296 31.4155 28.5267 31.1387 28.663 30.8148C28.7992 30.4908 28.8348 30.1344 28.7654 29.7905C28.6959 29.4466 28.5245 29.1308 28.2728 28.8829C28.021 28.6349 27.7003 28.4661 27.3511 28.3977C27.002 28.3293 26.64 28.3644 26.3111 28.4986C25.9822 28.6327 25.7011 28.86 25.5033 29.1515C25.3055 29.443 25.2 29.7858 25.2 30.1364C25.2 30.6065 25.3896 31.0574 25.7272 31.3899C26.0647 31.7223 26.5226 31.9091 27 31.9091ZM27 24.8182C27.356 24.8182 27.704 24.7142 28 24.5194C28.296 24.3246 28.5267 24.0478 28.663 23.7238C28.7992 23.3999 28.8348 23.0435 28.7654 22.6996C28.6959 22.3557 28.5245 22.0399 28.2728 21.7919C28.021 21.544 27.7003 21.3752 27.3511 21.3068C27.002 21.2384 26.64 21.2735 26.3111 21.4077C25.9822 21.5418 25.7011 21.7691 25.5033 22.0606C25.3055 22.3521 25.2 22.6948 25.2 23.0455C25.2 23.5156 25.3896 23.9665 25.7272 24.299C26.0647 24.6314 26.5226 24.8182 27 24.8182ZM18 24.8182C18.356 24.8182 18.704 24.7142 19 24.5194C19.296 24.3246 19.5267 24.0478 19.663 23.7238C19.7992 23.3999 19.8348 23.0435 19.7654 22.6996C19.6959 22.3557 19.5245 22.0399 19.2728 21.7919C19.021 21.544 18.7003 21.3752 18.3511 21.3068C18.002 21.2384 17.64 21.2735 17.3111 21.4077C16.9822 21.5418 16.7011 21.7691 16.5033 22.0606C16.3055 22.3521 16.2 22.6948 16.2 23.0455C16.2 23.5156 16.3896 23.9665 16.7272 24.299C17.0647 24.6314 17.5226 24.8182 18 24.8182ZM30.6 3.54545H28.8V1.77273C28.8 1.30257 28.6103 0.851671 28.2728 0.51922C27.9352 0.186769 27.4774 0 27 0C26.5226 0 26.0647 0.186769 25.7272 0.51922C25.3896 0.851671 25.2 1.30257 25.2 1.77273V3.54545H10.8V1.77273C10.8 1.30257 10.6103 0.851671 10.2728 0.51922C9.9352 0.186769 9.47736 0 8.99997 0C8.52258 0 8.06474 0.186769 7.72718 0.51922C7.38961 0.851671 7.19997 1.30257 7.19997 1.77273V3.54545H5.39997C3.9678 3.54545 2.59429 4.10576 1.58159 5.10311C0.568897 6.10047 -3.05176e-05 7.45317 -3.05176e-05 8.86364V33.6818C-3.05176e-05 35.0923 0.568897 36.445 1.58159 37.4423C2.59429 38.4397 3.9678 39 5.39997 39H30.6C32.0321 39 33.4057 38.4397 34.4183 37.4423C35.431 36.445 36 35.0923 36 33.6818V8.86364C36 7.45317 35.431 6.10047 34.4183 5.10311C33.4057 4.10576 32.0321 3.54545 30.6 3.54545ZM32.4 33.6818C32.4 34.152 32.2103 34.6029 31.8728 34.9353C31.5352 35.2678 31.0774 35.4545 30.6 35.4545H5.39997C4.92258 35.4545 4.46474 35.2678 4.12718 34.9353C3.78961 34.6029 3.59997 34.152 3.59997 33.6818V17.7273H32.4V33.6818ZM32.4 14.1818H3.59997V8.86364C3.59997 8.39348 3.78961 7.94258 4.12718 7.61013C4.46474 7.27768 4.92258 7.09091 5.39997 7.09091H7.19997V8.86364C7.19997 9.33379 7.38961 9.78469 7.72718 10.1171C8.06474 10.4496 8.52258 10.6364 8.99997 10.6364C9.47736 10.6364 9.9352 10.4496 10.2728 10.1171C10.6103 9.78469 10.8 9.33379 10.8 8.86364V7.09091H25.2V8.86364C25.2 9.33379 25.3896 9.78469 25.7272 10.1171C26.0647 10.4496 26.5226 10.6364 27 10.6364C27.4774 10.6364 27.9352 10.4496 28.2728 10.1171C28.6103 9.78469 28.8 9.33379 28.8 8.86364V7.09091H30.6C31.0774 7.09091 31.5352 7.27768 31.8728 7.61013C32.2103 7.94258 32.4 8.39348 32.4 8.86364V14.1818ZM8.99997 24.8182C9.35598 24.8182 9.70399 24.7142 10 24.5194C10.296 24.3246 10.5267 24.0478 10.663 23.7238C10.7992 23.3999 10.8348 23.0435 10.7654 22.6996C10.6959 22.3557 10.5245 22.0399 10.2728 21.7919C10.021 21.544 9.7003 21.3752 9.35113 21.3068C9.00197 21.2384 8.64005 21.2735 8.31114 21.4077C7.98223 21.5418 7.70111 21.7691 7.50332 22.0606C7.30554 22.3521 7.19997 22.6948 7.19997 23.0455C7.19997 23.5156 7.38961 23.9665 7.72718 24.299C8.06474 24.6314 8.52258 24.8182 8.99997 24.8182ZM8.99997 31.9091C9.35598 31.9091 9.70399 31.8051 10 31.6103C10.296 31.4155 10.5267 31.1387 10.663 30.8148C10.7992 30.4908 10.8348 30.1344 10.7654 29.7905C10.6959 29.4466 10.5245 29.1308 10.2728 28.8829C10.021 28.6349 9.7003 28.4661 9.35113 28.3977C9.00197 28.3293 8.64005 28.3644 8.31114 28.4986C7.98223 28.6327 7.70111 28.86 7.50332 29.1515C7.30554 29.443 7.19997 29.7858 7.19997 30.1364C7.19997 30.6065 7.38961 31.0574 7.72718 31.3899C8.06474 31.7223 8.52258 31.9091 8.99997 31.9091Z" fill="white"/>
</svg>
