<svg width="34" height="33" viewBox="0 0 34 33" fill="none" xmlns="http://www.w3.org/2000/svg">
<path d="M29.7858 18.2025C29.4105 18.2025 29.0181 18.0863 28.6427 18.0033C27.8826 17.8402 27.1357 17.6237 26.4077 17.3556C25.6162 17.0753 24.7462 17.0898 23.9651 17.3964C23.1839 17.703 22.5469 18.28 22.1765 19.0163L21.8012 19.7637C20.1394 18.8638 18.6124 17.7462 17.2629 16.4421C15.9232 15.1285 14.7751 13.6421 13.8506 12.0245L14.5672 11.5595C15.3236 11.1989 15.9164 10.5788 16.2314 9.81848C16.5463 9.05811 16.5613 8.21122 16.2733 7.44077C16.0024 6.73066 15.7802 6.00387 15.6079 5.26516C15.5226 4.89979 15.4544 4.51782 15.4032 4.13584C15.196 2.96603 14.5666 1.90666 13.6282 1.14852C12.6898 0.39037 11.5042 -0.0167303 10.2848 0.000526967H5.16646C4.43118 -0.0061934 3.70303 0.141382 3.0316 0.433208C2.36018 0.725033 1.76122 1.15426 1.27553 1.69166C0.789826 2.22906 0.428783 2.86202 0.216973 3.54745C0.00516372 4.23289 -0.0524387 4.9547 0.0480873 5.66375C0.957005 12.6213 4.22132 19.0859 9.3254 24.0362C14.4295 28.9866 21.0824 32.1406 28.2333 33H28.8816C30.1397 33.0018 31.3545 32.5525 32.2938 31.7378C32.8336 31.2679 33.2648 30.6918 33.5589 30.0477C33.853 29.4035 34.0033 28.706 34 28.0011V23.0188C33.9791 21.8652 33.5475 20.7544 32.779 19.876C32.0104 18.9977 30.9525 18.4062 29.7858 18.2025ZM30.6389 28.1672C30.6386 28.403 30.5867 28.636 30.4867 28.8508C30.3867 29.0655 30.2408 29.2571 30.0588 29.4127C29.8688 29.5738 29.6459 29.6941 29.4048 29.7656C29.1638 29.8372 28.9099 29.8584 28.6598 29.8279C22.2702 29.0304 16.3352 26.185 11.7909 21.7405C7.24656 17.2959 4.35163 11.5052 3.56271 5.28177C3.53555 5.0385 3.55935 4.79239 3.63266 4.55832C3.70597 4.32426 3.82727 4.10709 3.98924 3.91994C4.14912 3.74279 4.34592 3.60081 4.56655 3.50345C4.78718 3.40609 5.02659 3.35558 5.26883 3.35528H10.3872C10.784 3.34669 11.1714 3.47299 11.4828 3.71246C11.7942 3.95193 12.0101 4.28958 12.0933 4.66729C12.1616 5.12123 12.2469 5.56964 12.3492 6.01251C12.5463 6.88797 12.8086 7.74831 13.1341 8.5867L10.7455 9.6662C10.5413 9.75741 10.3576 9.88699 10.2049 10.0475C10.0523 10.208 9.93372 10.3963 9.85604 10.6015C9.77836 10.8068 9.74309 11.0249 9.75227 11.2435C9.76144 11.462 9.81487 11.6766 9.90949 11.875C12.3649 16.9948 16.5928 21.1102 21.8524 23.5004C22.2677 23.6665 22.7336 23.6665 23.149 23.5004C23.3618 23.4263 23.5573 23.3118 23.7243 23.1636C23.8912 23.0153 24.0262 22.8363 24.1215 22.6368L25.1793 20.3117C26.0613 20.6188 26.9615 20.8739 27.875 21.0757C28.33 21.1753 28.7906 21.2584 29.2569 21.3248C29.645 21.4058 29.9918 21.616 30.2379 21.9191C30.4839 22.2222 30.6136 22.5994 30.6048 22.9856L30.6389 28.1672Z" fill="white"/>
</svg>
