<svg width="445" height="198" viewBox="0 0 445 198" fill="none" xmlns="http://www.w3.org/2000/svg">
<g opacity="0.14" clip-path="url(#clip0_1082_172)">
<path d="M50.8406 0.00497437C55.5683 0.0296959 60.2664 0.102244 64.9348 0.222556C69.534 0.387366 74.0392 0.612358 78.4505 0.89748C82.3672 1.19579 86.1537 1.54016 89.81 1.93076C91.5787 2.14007 93.3055 2.36017 94.9902 2.5909C96.6288 2.83152 98.2204 3.07871 99.7649 3.33252C101.189 3.57973 101.496 4.17298 101.55 6.90224C101.592 8.65005 101.597 10.4029 101.55 12.1458C101.503 14.0419 101.08 14.7464 99.8416 14.8206C67.2831 14.8206 34.7262 14.8288 2.1709 14.8453H1.89396C0.623007 14.8008 0.0938556 14.1852 0.036984 12.3929C-0.0297782 10.1902 -0.0124695 7.97274 0.036984 5.76016C0.0617108 4.37576 0.590864 3.51786 1.46125 3.3547C3.82265 2.94185 6.30027 2.59326 8.87927 2.25457C11.9256 1.89858 15.0849 1.57487 18.357 1.28315C21.7232 1.0211 25.1701 0.789529 28.6978 0.58846C32.2897 0.42365 35.9312 0.285135 39.622 0.173064C43.3409 0.0956032 47.078 0.0495323 50.8332 0.0346994L50.8406 0.00497437Z" fill="#7C7B7B"/>
<path d="M445 188.2H4.91064V198H445V188.2Z" fill="#7C7B7B"/>
<path fill-rule="evenodd" clip-rule="evenodd" d="M230.957 84.7925V109.895H239.117V84.7925C238.577 83.1787 237.474 81.8133 236.009 80.9459C233.79 80.7119 232.107 81.994 230.96 84.7925M204.881 73.1733H265.753C267.507 73.7551 269.054 74.8329 270.207 76.276C271.361 77.7192 272.071 79.4658 272.251 81.3043V120.859H230.957V170.013C231.482 171.652 232.587 173.044 234.066 173.926C235.36 174.392 236.765 173.787 238.282 172.109L239.115 170.013V130.087L271.856 129.949L271.967 174.977C270.635 178.985 268.564 181.222 265.753 181.689H198.442V81.3043C199.367 76.8296 201.51 74.1259 204.871 73.1931" fill="#94E628"/>
<path fill-rule="evenodd" clip-rule="evenodd" d="M284.321 73.1857H351.632C353.381 73.7672 354.925 74.8425 356.077 76.2818C357.229 77.721 357.939 79.4628 358.123 81.2969V181.701H324.989V85.1436C323.878 82.3418 322.657 80.9409 321.327 80.9409C319.662 80.4745 318.257 81.4065 317.111 83.7369V181.696H284.321V73.1857Z" fill="#94E628"/>
<path fill-rule="evenodd" clip-rule="evenodd" d="M198.178 54.7977H370.392C369.096 45.5692 372.056 25.7228 379.271 22.9713L403.021 22.8328V54.7977H444.696V65.7741H403.021V170.025C403.587 171.624 404.684 172.981 406.13 173.869C407.462 174.382 408.868 173.799 410.348 172.121L411.236 170.025V112.55H444.419V173.521C443.456 178.041 441.292 180.768 437.926 181.701H370.392V65.7741H198.178V54.7977Z" fill="#94E628"/>
<path fill-rule="evenodd" clip-rule="evenodd" d="M108.419 2.76636H134.543C151.959 2.76636 163.746 3.61429 169.903 5.31019C173.172 6.32877 176.197 8.00697 178.791 10.2411C181.385 12.4752 183.494 15.2176 184.986 18.2988C188.873 25.2637 190.816 36.3737 190.816 51.6286C190.816 65.5567 189.442 74.9155 186.692 79.7048C183.942 84.4942 178.532 87.3685 170.461 88.3277C177.774 90.6119 182.687 93.6692 185.201 97.4994C187.435 100.68 189.03 104.264 189.899 108.053C190.763 116.847 191.071 125.687 190.819 134.52V181.703H156.468V122.275C156.468 112.701 155.874 106.773 154.686 104.491C153.497 102.208 150.382 101.067 145.339 101.067V181.703H108.419V2.76636ZM145.339 33.3766V73.156C148.385 73.4536 151.442 72.6932 153.993 71.0028C155.642 69.5673 156.466 64.9081 156.466 57.0252V47.1935C156.466 41.5207 155.669 37.8001 154.075 36.0317C152.481 34.2633 149.568 33.3791 145.337 33.3791" fill="#94E628"/>
<path fill-rule="evenodd" clip-rule="evenodd" d="M87.5672 16.7241H4.91064C4.91064 18.7018 4.91064 20.8502 4.91064 23.1518C4.91064 46.9883 4.91064 86.3476 4.91064 105.613C4.91064 130.499 4.91064 155.386 4.91064 180.272C4.91064 181.684 4.91064 181.704 6.32501 181.706H94.335C95.9175 181.706 95.9175 181.706 95.9175 180.144V96.199C95.9175 79.9891 95.9175 44.3504 95.9175 23.1418C95.9175 20.8081 95.9175 18.6524 95.9175 16.7143L87.5672 16.7241ZM13.2782 23.1518H87.5623C87.5499 44.1874 87.5623 79.5713 87.5623 95.5859V174.186C87.5623 175.783 87.5623 175.785 85.9229 175.785H14.972C13.293 175.785 13.2905 175.785 13.2905 174.119C13.2905 171.986 13.2683 169.852 13.2905 167.721C13.2905 166.994 13.063 166.732 12.3163 166.707C10.7709 166.653 10.2516 166.067 10.2467 164.483C10.2351 161.14 10.2351 157.799 10.2467 154.458C10.2467 152.883 10.7709 152.282 12.3237 152.282C13.4216 152.282 13.2807 151.612 13.2807 150.938C13.2807 139.276 13.2807 127.614 13.2807 115.954C13.2807 98.8138 13.2856 81.6801 13.2955 64.553C13.2955 63.5641 13.2089 62.956 11.9528 63.0203C11.7171 63.037 11.4806 63.0014 11.2603 62.9159C11.0401 62.8304 10.8415 62.6972 10.6788 62.5258C10.5162 62.3545 10.3935 62.1491 10.3196 61.9247C10.2458 61.7003 10.2225 61.4623 10.2516 61.2279C10.2236 57.6383 10.2236 54.0479 10.2516 50.4567C10.2219 50.2042 10.251 49.9482 10.3367 49.7087C10.4223 49.4693 10.5622 49.2529 10.7453 49.0765C10.9285 48.9001 11.15 48.7684 11.3925 48.6918C11.635 48.6151 11.8919 48.5956 12.1432 48.6347C13.1644 48.6644 13.3029 48.2071 13.293 47.3591C13.2732 45.7769 13.2584 32.3036 13.2609 23.1492" fill="#7C7B7B"/>
<path fill-rule="evenodd" clip-rule="evenodd" d="M59.5396 85.2251H69.2053C70.9712 69.6414 75.9758 54.599 83.8979 41.0626C83.8979 36.2888 83.8979 31.8241 83.8979 27.8785C70.3841 44.2292 61.9184 64.1565 59.5322 85.2326" fill="#94E628"/>
<path fill-rule="evenodd" clip-rule="evenodd" d="M71.5049 85.2227H83.893C83.893 72.8619 83.893 58.4145 83.893 45.5865C77.2602 57.8825 73.0561 71.3388 71.5049 85.2227Z" fill="#94E628"/>
<path fill-rule="evenodd" clip-rule="evenodd" d="M83.8902 101.099H70.7554C70.7636 101.593 70.7752 102.088 70.79 102.582C71.2217 119.884 75.7105 136.844 83.8952 152.095C83.8952 135.099 83.8952 118.104 83.8952 101.109" fill="#94E628"/>
<path fill-rule="evenodd" clip-rule="evenodd" d="M68.4831 101.099H58.7407C59.0163 126.236 67.8916 150.521 83.8903 169.914C83.8903 165.556 83.8903 161.198 83.8903 156.839C79.3418 149.097 75.7704 140.821 73.2578 132.201C70.2872 122.093 68.6847 111.633 68.493 101.099" fill="#94E628"/>
<path fill-rule="evenodd" clip-rule="evenodd" d="M42.038 101.099H32.2981C32.2882 101.611 32.275 102.123 32.2585 102.634C31.8019 121.642 26.5352 140.224 16.9502 156.646C16.9502 161.046 16.9502 165.447 16.9502 169.85C32.8782 150.446 41.7283 126.201 42.0454 101.101" fill="#94E628"/>
<path fill-rule="evenodd" clip-rule="evenodd" d="M30.0306 101.099H16.9551C16.9551 102.684 16.9551 104.194 16.9551 105.64C16.9551 121.132 16.9551 136.625 16.9551 152.117C25.3642 136.415 29.8542 118.914 30.0429 101.104" fill="#94E628"/>
<path fill-rule="evenodd" clip-rule="evenodd" d="M16.9453 85.2251H29.3087C27.7105 71.4183 23.5157 58.0379 16.9453 45.7892C16.9453 58.3972 16.9453 72.5084 16.9453 85.2251Z" fill="#94E628"/>
<path fill-rule="evenodd" clip-rule="evenodd" d="M31.5314 85.2226H41.2614C38.9013 64.1598 30.4415 44.2444 16.9204 27.9206C16.9204 31.8958 16.9204 36.3259 16.9352 41.023C21.4682 48.7436 25.0295 56.9948 27.5381 65.5888C29.424 72.0051 30.7607 78.5701 31.5339 85.2128" fill="#94E628"/>
<path fill-rule="evenodd" clip-rule="evenodd" d="M84.0165 86.8641H57.0643C57.1122 86.4109 57.1624 85.9586 57.2152 85.507C58.3746 75.2862 60.8839 65.2641 64.6777 55.7026C68.9242 44.9828 74.888 35.0258 82.3351 26.2222H18.4436C27.6141 37.0889 34.5346 49.6682 38.8037 63.2303C41.1058 70.4846 42.6991 77.9452 43.5611 85.507C43.6138 85.9586 43.6641 86.4109 43.7119 86.8641H16.8389V99.4574H44.3326C44.3326 100.005 44.326 100.551 44.3128 101.096H44.2955C44.2839 101.7 44.2674 102.303 44.246 102.906C43.8157 116.342 41.0608 129.601 36.1035 142.097C31.7684 153.029 25.6495 163.167 17.9961 172.097H82.3747C82.5082 172.097 82.659 172.121 82.7975 172.126C73.398 161.134 66.3141 148.359 61.9701 134.564C58.5327 123.731 56.6821 112.457 56.4759 101.094H56.4536C56.4437 100.547 56.4371 100 56.4338 99.4548H84.0165V86.8641ZM58.1845 31.2529C58.6246 31.2529 59.0549 31.3834 59.4209 31.6279C59.7868 31.8724 60.072 32.2199 60.2405 32.6265C60.4089 33.033 60.453 33.4805 60.3671 33.912C60.2813 34.3436 60.0693 34.7401 59.7581 35.0513C59.4469 35.3624 59.0503 35.5742 58.6186 35.6601C58.1869 35.7459 57.7395 35.7019 57.3329 35.5335C56.9262 35.3651 56.5787 35.0799 56.3341 34.714C56.0896 34.3481 55.9591 33.918 55.9591 33.4779C55.9591 32.8879 56.1935 32.3219 56.6109 31.9046C57.0282 31.4874 57.5943 31.2529 58.1845 31.2529ZM43.5586 31.2529C43.9987 31.2529 44.429 31.3834 44.795 31.6279C45.1609 31.8724 45.4462 32.2199 45.6146 32.6265C45.783 33.033 45.8271 33.4805 45.7412 33.912C45.6554 34.3436 45.4434 34.7401 45.1322 35.0513C44.821 35.3624 44.4244 35.5742 43.9928 35.6601C43.5611 35.7459 43.1136 35.7019 42.707 35.5335C42.3003 35.3651 41.9528 35.0799 41.7082 34.714C41.4637 34.3481 41.3332 33.918 41.3332 33.4779C41.3332 33.1858 41.3908 32.8964 41.5026 32.6265C41.6144 32.3565 41.7783 32.1112 41.985 31.9046C42.1916 31.698 42.437 31.5342 42.707 31.4224C42.977 31.3106 43.2664 31.2529 43.5586 31.2529ZM48.865 45.8758C48.6609 45.9207 48.4474 45.889 48.2651 45.787C48.0828 45.6849 47.9443 45.5195 47.8759 45.3221L46.7681 39.5941C46.7628 39.5579 46.7502 39.5231 46.7311 39.4919C46.712 39.4607 46.6868 39.4338 46.657 39.4125C46.6272 39.3913 46.5935 39.3764 46.5578 39.3685C46.522 39.3606 46.4851 39.36 46.4492 39.3667C46.3762 39.3875 46.314 39.4355 46.2754 39.5008C46.2368 39.5661 46.2246 39.6437 46.2414 39.7176L47.5841 46.652C47.5884 46.6706 47.5942 46.6888 47.6014 46.7065L47.7078 47.2503L48.321 50.4271H46.5308V56.5406C46.5526 56.8859 46.4378 57.2258 46.2111 57.4872C45.9844 57.7485 45.664 57.9102 45.3191 57.9374H45.1955C44.8506 57.9102 44.5302 57.7485 44.3035 57.4872C44.0769 57.2258 43.9621 56.8859 43.9839 56.5406V50.4271H43.4449V56.5406C43.4667 56.8859 43.3519 57.2258 43.1252 57.4872C42.8985 57.7485 42.5782 57.9102 42.2333 57.9374H42.0997C41.7548 57.9102 41.4344 57.7485 41.2078 57.4872C40.9811 57.2258 40.8663 56.8859 40.8881 56.5406V50.4271H38.8531L39.4639 47.2627L40.2502 43.1935L40.9326 39.7326C40.9503 39.6586 40.9388 39.5805 40.9006 39.5147C40.8624 39.4489 40.8004 39.4004 40.7274 39.379C40.6912 39.3716 40.6539 39.3716 40.6178 39.3792C40.5816 39.3868 40.5474 39.4016 40.5173 39.4229C40.4872 39.4443 40.4617 39.4715 40.4426 39.5031C40.4234 39.5346 40.4109 39.5699 40.4059 39.6064L39.4589 44.4246L39.313 45.1664C39.297 45.2841 39.2571 45.3972 39.1959 45.4991C39.1347 45.6009 39.0533 45.6892 38.9569 45.7586C38.8604 45.828 38.7508 45.877 38.6348 45.9027C38.5187 45.9284 38.3987 45.9302 38.2819 45.908C38.048 45.8377 37.8497 45.681 37.727 45.4698C37.6044 45.2586 37.5668 45.0087 37.6217 44.7707L38.8927 38.3753C38.9109 38.2842 38.9417 38.1959 38.9842 38.1132C39.2031 37.6101 39.5638 37.1816 40.0222 36.88C40.4806 36.5784 41.0169 36.4168 41.5656 36.4148H45.6233C46.1617 36.4335 46.6834 36.6065 47.1262 36.9134C47.569 37.2202 47.9142 37.6479 48.1207 38.1454C48.1552 38.2179 48.181 38.2942 48.1973 38.3728L49.5301 44.7534C49.5877 44.9914 49.5525 45.2424 49.4317 45.4555C49.311 45.6685 49.1136 45.8277 48.8798 45.9006M56.6168 57.9622C56.2719 57.9349 55.9515 57.7732 55.7248 57.5119C55.4982 57.2506 55.3833 56.9106 55.4052 56.5654V40.3876C55.4116 40.35 55.4097 40.3115 55.3997 40.2747C55.3896 40.2379 55.3717 40.2038 55.3471 40.1747C55.3225 40.1455 55.2918 40.1221 55.2572 40.106C55.2226 40.09 55.1849 40.0816 55.1468 40.0816C55.1087 40.0816 55.071 40.09 55.0364 40.106C55.0018 40.1221 54.9711 40.1455 54.9465 40.1747C54.9219 40.2038 54.904 40.2379 54.8939 40.2747C54.8839 40.3115 54.882 40.35 54.8884 40.3876V46.2268C54.9086 46.4826 54.8286 46.7363 54.6653 46.9342C54.502 47.1321 54.2681 47.2587 54.0131 47.2874H53.9908C53.7358 47.2587 53.502 47.1321 53.3386 46.9342C53.1753 46.7363 53.0953 46.4826 53.1155 46.2268V38.5632C53.1161 38.2789 53.1731 37.9974 53.2832 37.7353C53.3933 37.4731 53.5543 37.2354 53.7569 37.0359C53.9595 36.8363 54.1996 36.6788 54.4635 36.5727C54.7273 36.4665 55.0096 36.4138 55.2939 36.4174H61.1096C61.398 36.3981 61.6871 36.4401 61.9579 36.5407C62.2288 36.6413 62.4753 36.7981 62.6811 37.0009C62.8869 37.2036 63.0474 37.4477 63.1521 37.717C63.2567 37.9863 63.3031 38.2747 63.2881 38.5632V46.2268C63.3083 46.4826 63.2283 46.7363 63.065 46.9342C62.9016 47.1321 62.6678 47.2587 62.4127 47.2874H62.3682C62.1524 47.2699 61.9493 47.178 61.7937 47.0274C61.6381 46.8768 61.5397 46.6769 61.5152 46.4617V40.3876C61.5216 40.35 61.5197 40.3115 61.5096 40.2747C61.4996 40.2379 61.4817 40.2038 61.457 40.1747C61.4324 40.1455 61.4018 40.1221 61.3672 40.106C61.3326 40.09 61.2949 40.0816 61.2568 40.0816C61.2186 40.0816 61.1809 40.09 61.1464 40.106C61.1118 40.1221 61.0811 40.1455 61.0565 40.1747C61.0319 40.2038 61.0139 40.2379 61.0039 40.2747C60.9939 40.3115 60.992 40.35 60.9984 40.3876C60.9984 40.3876 61.0231 50.1032 61.0651 50.1576V56.5654C61.087 56.9106 60.9722 57.2506 60.7455 57.5119C60.5188 57.7732 60.1984 57.9349 59.8535 57.9622H59.72C59.3751 57.9349 59.0547 57.7732 58.828 57.5119C58.6014 57.2506 58.4865 56.9106 58.5084 56.5654V46.4494C58.5136 46.4109 58.5105 46.3717 58.4994 46.3345C58.4882 46.2974 58.4693 46.2631 58.4437 46.2339C58.4182 46.2047 58.3867 46.1813 58.3514 46.1652C58.316 46.1492 58.2777 46.1408 58.2389 46.1408C58.2001 46.1408 58.1617 46.1492 58.1264 46.1652C58.091 46.1813 58.0595 46.2047 58.034 46.2339C58.0085 46.2631 57.9895 46.2974 57.9784 46.3345C57.9672 46.3717 57.9641 46.4109 57.9694 46.4494V56.5406C57.9912 56.8859 57.8764 57.2258 57.6497 57.4872C57.423 57.7485 57.1026 57.9102 56.7577 57.9374L56.6168 57.9622Z" fill="#94E628"/>
<path fill-rule="evenodd" clip-rule="evenodd" d="M87.5672 16.7241H4.91064C4.91064 18.7018 4.91064 20.8502 4.91064 23.1518C4.91064 46.9883 4.91064 86.3476 4.91064 105.613C4.91064 130.499 4.91064 155.386 4.91064 180.272C4.91064 181.684 4.91064 181.704 6.32501 181.706H94.335C95.9175 181.706 95.9175 181.706 95.9175 180.144V96.199C95.9175 79.9891 95.9175 44.3504 95.9175 23.1418C95.9175 20.8081 95.9175 18.6524 95.9175 16.7143L87.5672 16.7241ZM13.2782 23.1518H87.5623C87.5499 44.1874 87.5623 79.5713 87.5623 95.5859V174.186C87.5623 175.783 87.5623 175.785 85.9229 175.785H14.972C13.293 175.785 13.2905 175.785 13.2905 174.119C13.2905 171.986 13.2683 169.852 13.2905 167.721C13.2905 166.994 13.063 166.732 12.3163 166.707C10.7709 166.653 10.2516 166.067 10.2467 164.483C10.2351 161.14 10.2351 157.799 10.2467 154.458C10.2467 152.883 10.7709 152.282 12.3237 152.282C13.4216 152.282 13.2807 151.612 13.2807 150.938C13.2807 139.276 13.2807 127.614 13.2807 115.954C13.2807 98.8138 13.2856 81.6801 13.2955 64.553C13.2955 63.5641 13.2089 62.956 11.9528 63.0203C11.7171 63.037 11.4806 63.0014 11.2603 62.9159C11.0401 62.8304 10.8415 62.6972 10.6788 62.5258C10.5162 62.3545 10.3935 62.1491 10.3196 61.9247C10.2458 61.7003 10.2225 61.4623 10.2516 61.2279C10.2236 57.6383 10.2236 54.0479 10.2516 50.4567C10.2219 50.2042 10.251 49.9482 10.3367 49.7087C10.4223 49.4693 10.5622 49.2529 10.7453 49.0765C10.9285 48.9001 11.15 48.7684 11.3925 48.6918C11.635 48.6151 11.8919 48.5956 12.1432 48.6347C13.1644 48.6644 13.3029 48.2071 13.293 47.3591C13.2732 45.7769 13.2584 32.3036 13.2609 23.1492" fill="#7C7B7B"/>
<path fill-rule="evenodd" clip-rule="evenodd" d="M59.5396 85.2251H69.2053C70.9712 69.6414 75.9758 54.599 83.8979 41.0626C83.8979 36.2888 83.8979 31.8241 83.8979 27.8785C70.3841 44.2292 61.9184 64.1565 59.5322 85.2326" fill="#94E628"/>
<path fill-rule="evenodd" clip-rule="evenodd" d="M71.5049 85.2227H83.893C83.893 72.8619 83.893 58.4145 83.893 45.5865C77.2602 57.8825 73.0561 71.3388 71.5049 85.2227Z" fill="#94E628"/>
<path fill-rule="evenodd" clip-rule="evenodd" d="M83.8902 101.099H70.7554C70.7636 101.593 70.7752 102.088 70.79 102.582C71.2217 119.884 75.7105 136.844 83.8952 152.095C83.8952 135.099 83.8952 118.104 83.8952 101.109" fill="#94E628"/>
<path fill-rule="evenodd" clip-rule="evenodd" d="M68.4831 101.099H58.7407C59.0163 126.236 67.8916 150.521 83.8903 169.914C83.8903 165.556 83.8903 161.198 83.8903 156.839C79.3418 149.097 75.7704 140.821 73.2578 132.201C70.2872 122.093 68.6847 111.633 68.493 101.099" fill="#94E628"/>
<path fill-rule="evenodd" clip-rule="evenodd" d="M42.038 101.099H32.2981C32.2882 101.611 32.275 102.123 32.2585 102.634C31.8019 121.642 26.5352 140.224 16.9502 156.646C16.9502 161.046 16.9502 165.447 16.9502 169.85C32.8782 150.446 41.7283 126.201 42.0454 101.101" fill="#94E628"/>
<path fill-rule="evenodd" clip-rule="evenodd" d="M30.0306 101.099H16.9551C16.9551 102.684 16.9551 104.194 16.9551 105.64C16.9551 121.132 16.9551 136.625 16.9551 152.117C25.3642 136.415 29.8542 118.914 30.0429 101.104" fill="#94E628"/>
<path fill-rule="evenodd" clip-rule="evenodd" d="M16.9453 85.2251H29.3087C27.7105 71.4183 23.5157 58.0379 16.9453 45.7892C16.9453 58.3972 16.9453 72.5084 16.9453 85.2251Z" fill="#94E628"/>
<path fill-rule="evenodd" clip-rule="evenodd" d="M31.5314 85.2226H41.2614C38.9013 64.1598 30.4415 44.2444 16.9204 27.9206C16.9204 31.8958 16.9204 36.3259 16.9352 41.023C21.4682 48.7436 25.0295 56.9948 27.5381 65.5888C29.424 72.0051 30.7607 78.5701 31.5339 85.2128" fill="#94E628"/>
<path fill-rule="evenodd" clip-rule="evenodd" d="M84.0165 86.8641H57.0643C57.1122 86.4109 57.1624 85.9586 57.2152 85.507C58.3746 75.2862 60.8839 65.2641 64.6777 55.7026C68.9242 44.9828 74.888 35.0258 82.3351 26.2222H18.4436C27.6141 37.0889 34.5346 49.6682 38.8037 63.2303C41.1058 70.4846 42.6991 77.9452 43.5611 85.507C43.6138 85.9586 43.6641 86.4109 43.7119 86.8641H16.8389V99.4574H44.3326C44.3326 100.005 44.326 100.551 44.3128 101.096H44.2955C44.2839 101.7 44.2674 102.303 44.246 102.906C43.8157 116.342 41.0608 129.601 36.1035 142.097C31.7684 153.029 25.6495 163.167 17.9961 172.097H82.3747C82.5082 172.097 82.659 172.121 82.7975 172.126C73.398 161.134 66.3141 148.359 61.9701 134.564C58.5327 123.731 56.6821 112.457 56.4759 101.094H56.4536C56.4437 100.547 56.4371 100 56.4338 99.4548H84.0165V86.8641ZM58.1845 31.2529C58.6246 31.2529 59.0549 31.3834 59.4209 31.6279C59.7868 31.8724 60.072 32.2199 60.2405 32.6265C60.4089 33.033 60.453 33.4805 60.3671 33.912C60.2813 34.3436 60.0693 34.7401 59.7581 35.0513C59.4469 35.3624 59.0503 35.5742 58.6186 35.6601C58.1869 35.7459 57.7395 35.7019 57.3329 35.5335C56.9262 35.3651 56.5787 35.0799 56.3341 34.714C56.0896 34.3481 55.9591 33.918 55.9591 33.4779C55.9591 32.8879 56.1935 32.3219 56.6109 31.9046C57.0282 31.4874 57.5943 31.2529 58.1845 31.2529ZM43.5586 31.2529C43.9987 31.2529 44.429 31.3834 44.795 31.6279C45.1609 31.8724 45.4462 32.2199 45.6146 32.6265C45.783 33.033 45.8271 33.4805 45.7412 33.912C45.6554 34.3436 45.4434 34.7401 45.1322 35.0513C44.821 35.3624 44.4244 35.5742 43.9928 35.6601C43.5611 35.7459 43.1136 35.7019 42.707 35.5335C42.3003 35.3651 41.9528 35.0799 41.7082 34.714C41.4637 34.3481 41.3332 33.918 41.3332 33.4779C41.3332 33.1858 41.3908 32.8964 41.5026 32.6265C41.6144 32.3565 41.7783 32.1112 41.985 31.9046C42.1916 31.698 42.437 31.5342 42.707 31.4224C42.977 31.3106 43.2664 31.2529 43.5586 31.2529ZM48.865 45.8758C48.6609 45.9207 48.4474 45.889 48.2651 45.787C48.0828 45.6849 47.9443 45.5195 47.8759 45.3221L46.7681 39.5941C46.7628 39.5579 46.7502 39.5231 46.7311 39.4919C46.712 39.4607 46.6868 39.4338 46.657 39.4125C46.6272 39.3913 46.5935 39.3764 46.5578 39.3685C46.522 39.3606 46.4851 39.36 46.4492 39.3667C46.3762 39.3875 46.314 39.4355 46.2754 39.5008C46.2368 39.5661 46.2246 39.6437 46.2414 39.7176L47.5841 46.652C47.5884 46.6706 47.5942 46.6888 47.6014 46.7065L47.7078 47.2503L48.321 50.4271H46.5308V56.5406C46.5526 56.8859 46.4378 57.2258 46.2111 57.4872C45.9844 57.7485 45.664 57.9102 45.3191 57.9374H45.1955C44.8506 57.9102 44.5302 57.7485 44.3035 57.4872C44.0769 57.2258 43.9621 56.8859 43.9839 56.5406V50.4271H43.4449V56.5406C43.4667 56.8859 43.3519 57.2258 43.1252 57.4872C42.8985 57.7485 42.5782 57.9102 42.2333 57.9374H42.0997C41.7548 57.9102 41.4344 57.7485 41.2078 57.4872C40.9811 57.2258 40.8663 56.8859 40.8881 56.5406V50.4271H38.8531L39.4639 47.2627L40.2502 43.1935L40.9326 39.7326C40.9503 39.6586 40.9388 39.5805 40.9006 39.5147C40.8624 39.4489 40.8004 39.4004 40.7274 39.379C40.6912 39.3716 40.6539 39.3716 40.6178 39.3792C40.5816 39.3868 40.5474 39.4016 40.5173 39.4229C40.4872 39.4443 40.4617 39.4715 40.4426 39.5031C40.4234 39.5346 40.4109 39.5699 40.4059 39.6064L39.4589 44.4246L39.313 45.1664C39.297 45.2841 39.2571 45.3972 39.1959 45.4991C39.1347 45.6009 39.0533 45.6892 38.9569 45.7586C38.8604 45.828 38.7508 45.877 38.6348 45.9027C38.5187 45.9284 38.3987 45.9302 38.2819 45.908C38.048 45.8377 37.8497 45.681 37.727 45.4698C37.6044 45.2586 37.5668 45.0087 37.6217 44.7707L38.8927 38.3753C38.9109 38.2842 38.9417 38.1959 38.9842 38.1132C39.2031 37.6101 39.5638 37.1816 40.0222 36.88C40.4806 36.5784 41.0169 36.4168 41.5656 36.4148H45.6233C46.1617 36.4335 46.6834 36.6065 47.1262 36.9134C47.569 37.2202 47.9142 37.6479 48.1207 38.1454C48.1552 38.2179 48.181 38.2942 48.1973 38.3728L49.5301 44.7534C49.5877 44.9914 49.5525 45.2424 49.4317 45.4555C49.311 45.6685 49.1136 45.8277 48.8798 45.9006M56.6168 57.9622C56.2719 57.9349 55.9515 57.7732 55.7248 57.5119C55.4982 57.2506 55.3833 56.9106 55.4052 56.5654V40.3876C55.4116 40.35 55.4097 40.3115 55.3997 40.2747C55.3896 40.2379 55.3717 40.2038 55.3471 40.1747C55.3225 40.1455 55.2918 40.1221 55.2572 40.106C55.2226 40.09 55.1849 40.0816 55.1468 40.0816C55.1087 40.0816 55.071 40.09 55.0364 40.106C55.0018 40.1221 54.9711 40.1455 54.9465 40.1747C54.9219 40.2038 54.904 40.2379 54.8939 40.2747C54.8839 40.3115 54.882 40.35 54.8884 40.3876V46.2268C54.9086 46.4826 54.8286 46.7363 54.6653 46.9342C54.502 47.1321 54.2681 47.2587 54.0131 47.2874H53.9908C53.7358 47.2587 53.502 47.1321 53.3386 46.9342C53.1753 46.7363 53.0953 46.4826 53.1155 46.2268V38.5632C53.1161 38.2789 53.1731 37.9974 53.2832 37.7353C53.3933 37.4731 53.5543 37.2354 53.7569 37.0359C53.9595 36.8363 54.1996 36.6788 54.4635 36.5727C54.7273 36.4665 55.0096 36.4138 55.2939 36.4174H61.1096C61.398 36.3981 61.6871 36.4401 61.9579 36.5407C62.2288 36.6413 62.4753 36.7981 62.6811 37.0009C62.8869 37.2036 63.0474 37.4477 63.1521 37.717C63.2567 37.9863 63.3031 38.2747 63.2881 38.5632V46.2268C63.3083 46.4826 63.2283 46.7363 63.065 46.9342C62.9016 47.1321 62.6678 47.2587 62.4127 47.2874H62.3682C62.1524 47.2699 61.9493 47.178 61.7937 47.0274C61.6381 46.8768 61.5397 46.6769 61.5152 46.4617V40.3876C61.5216 40.35 61.5197 40.3115 61.5096 40.2747C61.4996 40.2379 61.4817 40.2038 61.457 40.1747C61.4324 40.1455 61.4018 40.1221 61.3672 40.106C61.3326 40.09 61.2949 40.0816 61.2568 40.0816C61.2186 40.0816 61.1809 40.09 61.1464 40.106C61.1118 40.1221 61.0811 40.1455 61.0565 40.1747C61.0319 40.2038 61.0139 40.2379 61.0039 40.2747C60.9939 40.3115 60.992 40.35 60.9984 40.3876C60.9984 40.3876 61.0231 50.1032 61.0651 50.1576V56.5654C61.087 56.9106 60.9722 57.2506 60.7455 57.5119C60.5188 57.7732 60.1984 57.9349 59.8535 57.9622H59.72C59.3751 57.9349 59.0547 57.7732 58.828 57.5119C58.6014 57.2506 58.4865 56.9106 58.5084 56.5654V46.4494C58.5136 46.4109 58.5105 46.3717 58.4994 46.3345C58.4882 46.2974 58.4693 46.2631 58.4437 46.2339C58.4182 46.2047 58.3867 46.1813 58.3514 46.1652C58.316 46.1492 58.2777 46.1408 58.2389 46.1408C58.2001 46.1408 58.1617 46.1492 58.1264 46.1652C58.091 46.1813 58.0595 46.2047 58.034 46.2339C58.0085 46.2631 57.9895 46.2974 57.9784 46.3345C57.9672 46.3717 57.9641 46.4109 57.9694 46.4494V56.5406C57.9912 56.8859 57.8764 57.2258 57.6497 57.4872C57.423 57.7485 57.1026 57.9102 56.7577 57.9374L56.6168 57.9622Z" fill="#94E628"/>
</g>
<defs>
<clipPath id="clip0_1082_172">
<rect width="445" height="198" fill="white"/>
</clipPath>
</defs>
</svg>
