<svg width="56" height="55" viewBox="0 0 56 55" fill="none" xmlns="http://www.w3.org/2000/svg">
<path d="M9.80045 4.43308e-06H45.3337C46.6135 -0.00123229 47.8809 0.256305 49.0636 0.757877C50.2462 1.25945 51.3207 1.99521 52.2257 2.92305C53.1306 3.85089 53.8482 4.95259 54.3374 6.16511C54.8266 7.37763 55.0778 8.67716 55.0766 9.98932V45.0107C55.0778 46.3228 54.8266 47.6224 54.3374 48.8349C53.8482 50.0474 53.1306 51.1491 52.2257 52.077C51.3207 53.0048 50.2462 53.7406 49.0636 54.2421C47.8809 54.7437 46.6135 55.0012 45.3337 55H9.80045C8.52064 55.0012 7.25316 54.7437 6.07054 54.2421C4.88793 53.7406 3.81339 53.0048 2.90843 52.077C2.00347 51.1491 1.28586 50.0474 0.796652 48.8349C0.307449 47.6224 0.0562627 46.3228 0.0574689 45.0107V9.98932C0.0562627 8.67716 0.307449 7.37763 0.796652 6.16511C1.28586 4.95259 2.00347 3.85089 2.90843 2.92305C3.81339 1.99521 4.88793 1.25945 6.07054 0.757877C7.25316 0.256305 8.52064 -0.00123229 9.80045 4.43308e-06Z" fill="#470137"/>
<path d="M28.9885 14.4553L22.1111 26.0899L29.447 38.4297C29.4953 38.5148 29.5116 38.6151 29.4928 38.7117C29.4699 38.8057 29.3782 38.7352 29.2407 38.7587H23.9909C23.6241 38.7587 23.3719 38.7352 23.2115 38.5002C22.73 37.513 22.2257 36.5493 21.7443 35.5621C21.2629 34.575 20.7356 33.6113 20.1854 32.6006C19.6352 31.5899 19.085 30.5792 18.5348 29.545H18.489C18.0076 30.5557 17.4803 31.5664 16.953 32.5771C16.4258 33.5878 15.8985 34.5985 15.3942 35.5856C14.8898 36.5728 14.3396 37.5835 13.8124 38.5472C13.7207 38.7822 13.5373 38.8057 13.2851 38.8057H8.24167C8.14997 38.8057 8.0812 38.8527 8.0812 38.7352C8.07097 38.6912 8.06976 38.6455 8.07765 38.601C8.08554 38.5565 8.10236 38.5142 8.12705 38.4767L15.2566 26.4895L8.31044 14.4318C8.24167 14.3378 8.21874 14.2438 8.26459 14.1968C8.29254 14.1633 8.328 14.1372 8.36793 14.1208C8.40786 14.1044 8.45106 14.0982 8.49384 14.1027H13.6977C13.8062 14.1052 13.9139 14.1209 14.0187 14.1498C14.1105 14.2004 14.1891 14.273 14.2479 14.3613C14.6835 15.372 15.1878 16.3827 15.7151 17.3933C16.2424 18.404 16.7926 19.3912 17.3657 20.3784C17.9388 21.3656 18.4202 22.3527 18.9016 23.3634H18.9475C19.4289 22.3292 19.9332 21.3186 20.4376 20.3314C20.9419 19.3442 21.4692 18.357 21.9965 17.3698C22.5237 16.3827 23.0281 15.372 23.5324 14.4083C23.5498 14.3158 23.5985 14.2325 23.67 14.1733C23.7607 14.1219 23.8663 14.1052 23.968 14.1262H28.8051C28.8322 14.12 28.8602 14.1193 28.8876 14.1242C28.9149 14.1291 28.9411 14.1395 28.9645 14.1548C28.9879 14.1701 29.0082 14.19 29.0241 14.2133C29.04 14.2366 29.0513 14.263 29.0573 14.2908C29.0802 14.3143 29.0343 14.4083 28.9885 14.4553Z" fill="#FF61F6"/>
<path d="M39.5797 39.2521C37.8804 39.2807 36.1964 38.9193 34.6509 38.1944C33.213 37.505 32.0079 36.3922 31.1893 34.9979C30.341 33.5641 29.9284 31.7778 29.9284 29.6389C29.9052 27.8995 30.3408 26.1859 31.1893 24.6795C32.0592 23.1484 33.3193 21.889 34.8343 21.0363C36.439 20.1197 38.3647 19.6731 40.6342 19.6731C40.795 19.6712 40.9558 19.6791 41.1156 19.6966C41.322 19.7201 41.5512 19.7201 41.8263 19.7436V12.3162C41.8263 12.1517 41.8951 12.0577 42.0555 12.0577H46.7092C46.7606 12.0506 46.8128 12.0635 46.8552 12.094C46.8977 12.1245 46.9274 12.1703 46.9385 12.2222V34.6453C46.9385 35.0684 46.9614 35.5385 46.9843 36.0556C47.0073 36.5726 47.0531 37.0192 47.076 37.4188C47.0809 37.4982 47.0614 37.5771 47.0203 37.6446C46.9792 37.712 46.9185 37.7646 46.8468 37.7949C45.646 38.3123 44.3927 38.6907 43.1101 38.9231C41.9449 39.1385 40.7636 39.2486 39.5797 39.2521ZM41.8263 34.5513V24.2094C41.6222 24.1589 41.4156 24.1197 41.2073 24.0919C40.9552 24.0684 40.703 24.0449 40.4508 24.0449C39.5522 24.0345 38.6641 24.244 37.8603 24.656C37.077 25.0562 36.4062 25.6549 35.9117 26.3953C35.4074 27.1474 35.1552 28.1581 35.1552 29.3803C35.1352 30.2053 35.2675 31.0267 35.5449 31.8013C35.7667 32.4277 36.1187 32.9971 36.5766 33.4701C37.0185 33.9025 37.552 34.2243 38.1354 34.4103C38.7495 34.6165 39.392 34.7196 40.0382 34.7158C40.382 34.7158 40.703 34.6923 41.001 34.6688C41.2811 34.6893 41.5623 34.6493 41.8263 34.5513Z" fill="#FF61F6"/>
</svg>
