<svg width="20" height="17" viewBox="0 0 20 17" fill="none" xmlns="http://www.w3.org/2000/svg">
<path d="M8.9 10.9854L13.1 8.56049C13.5 8.32955 13.5 7.7522 13.1 7.52126L8.9 5.09639C8.5 4.86545 8 5.15413 8 5.61601L8 10.4657C8 10.9276 8.5 11.2163 8.9 10.9854Z" fill="white"/>
<path fill-rule="evenodd" clip-rule="evenodd" d="M10 0.0408783C7.77593 0.0408783 5.41126 0.192429 3.7315 0.328744C1.89351 0.477899 0.416401 1.9003 0.236676 3.75196C0.116542 4.98969 0 6.56688 0 8.04088C0 9.51488 0.116542 11.0921 0.236676 12.3298C0.416401 14.1815 1.89351 15.6039 3.7315 15.753C5.41126 15.8893 7.77594 16.0409 10 16.0409C12.2241 16.0409 14.5887 15.8893 16.2685 15.753C18.1065 15.6039 19.5836 14.1815 19.7633 12.3298C19.8835 11.0921 20 9.51488 20 8.04088C20 6.56688 19.8835 4.98969 19.7633 3.75196C19.5836 1.9003 18.1065 0.477899 16.2685 0.328744C14.5887 0.192429 12.2241 0.0408783 10 0.0408783ZM3.89327 2.32219C5.55034 2.18772 7.85406 2.04088 10 2.04088C12.1459 2.04088 14.4497 2.18772 16.1067 2.32219C16.996 2.39436 17.6881 3.07337 17.7727 3.94518C17.89 5.15376 18 6.659 18 8.04088C18 9.42276 17.89 10.928 17.7727 12.1366C17.6881 13.0084 16.996 13.6874 16.1067 13.7596C14.4497 13.894 12.1459 14.0409 10 14.0409C7.85406 14.0409 5.55034 13.894 3.89327 13.7596C3.00396 13.6874 2.31194 13.0084 2.22732 12.1366C2.11002 10.928 2 9.42276 2 8.04088C2 6.659 2.11002 5.15376 2.22732 3.94518C2.31194 3.07337 3.00396 2.39436 3.89327 2.32219Z" fill="white"/>
</svg>
