<svg width="21" height="18" viewBox="0 0 21 18" fill="none" xmlns="http://www.w3.org/2000/svg">
<path d="M20.5437 2.81778C20.3514 1.607 19.2445 0.548917 18.0194 0.408489C13.0199 -0.136322 7.97591 -0.136163 2.97641 0.408966C1.75583 0.548821 0.64884 1.60685 0.455585 2.82218C-0.152102 6.79234 -0.15186 10.8319 0.456301 14.802C0.648792 16.0128 1.75583 17.0708 2.98061 17.2111C5.47782 17.4835 7.98798 17.6199 10.5 17.6197C13.012 17.6199 15.5222 17.4835 18.0194 17.2111L18.0234 17.2106C19.2443 17.0709 20.3513 16.0129 20.5444 14.7974C21.1521 10.8273 21.1519 6.78782 20.5437 2.81778ZM18.9979 14.5563C18.9176 15.0622 18.3587 15.5959 17.8472 15.6554C12.9641 16.1875 8.03769 16.1876 3.15457 15.6556C2.64268 15.597 2.08254 15.0628 2.00277 14.5608C1.41931 10.7506 1.41907 6.8737 2.00206 3.06339C2.08259 2.55689 2.64272 2.0226 3.15046 1.96437C8.03428 1.43205 12.9615 1.43189 17.8453 1.96389C18.3574 2.0226 18.9176 2.55684 18.9972 3.0588C19.5807 6.86908 19.5809 10.746 18.9979 14.5563ZM14.0644 8.15868L9.36894 5.02838C9.25108 4.94981 9.11411 4.9047 8.97263 4.89786C8.83115 4.89102 8.69047 4.92271 8.56559 4.98955C8.44071 5.05638 8.3363 5.15586 8.26351 5.27736C8.19073 5.39887 8.15228 5.53786 8.15228 5.6795V11.9401C8.15227 12.0817 8.19071 12.2207 8.2635 12.3423C8.33629 12.4638 8.44069 12.5632 8.56558 12.6301C8.69046 12.6969 8.83115 12.7286 8.97263 12.7218C9.11411 12.7149 9.25108 12.6698 9.36894 12.5912L14.0644 9.46093C14.1716 9.38947 14.2595 9.29265 14.3203 9.17906C14.3811 9.06548 14.4129 8.93863 14.4129 8.8098C14.4129 8.68097 14.3811 8.55413 14.3203 8.44054C14.2595 8.32695 14.1716 8.23013 14.0644 8.15868ZM9.71743 10.4778V7.14177L12.2195 8.8098L9.71743 10.4778Z" fill="white"/>
</svg>
