<svg width="18" height="10" viewBox="0 0 18 10" fill="none" xmlns="http://www.w3.org/2000/svg">
<path d="M0.505098 9.53448C0.825024 9.83264 1.2578 10 1.7089 10C2.16 10 2.59278 9.83264 2.9127 9.53448L9.04271 3.86739L15.0873 9.53448C15.4073 9.83264 15.84 10 16.2911 10C16.7422 10 17.175 9.83264 17.4949 9.53448C17.655 9.38566 17.782 9.2086 17.8687 9.01352C17.9554 8.81844 18 8.60919 18 8.39786C18 8.18652 17.9554 7.97728 17.8687 7.7822C17.782 7.58712 17.655 7.41006 17.4949 7.26124L10.255 0.473535C10.0963 0.323488 9.90746 0.204393 9.69938 0.123119C9.4913 0.0418436 9.26812 -7.63367e-07 9.04271 -7.83073e-07C8.81729 -8.02779e-07 8.59411 0.0418435 8.38603 0.123119C8.17795 0.204393 7.9891 0.323487 7.83037 0.473535L0.505099 7.26124C0.345057 7.41006 0.218027 7.58712 0.131338 7.7822C0.0446493 7.97728 1.54173e-05 8.18652 1.53989e-05 8.39786C1.53804e-05 8.60919 0.0446492 8.81843 0.131338 9.01352C0.218027 9.2086 0.345057 9.38565 0.505098 9.53448Z" fill="#663AAE"/>
</svg>
