<svg width="34" height="34" viewBox="0 0 34 34" fill="none" xmlns="http://www.w3.org/2000/svg">
<path d="M28.6906 0.333313H5.33975C4.01267 0.333313 2.73995 0.860097 1.80156 1.79778C0.863178 2.73546 0.335999 4.00723 0.335999 5.33331V28.6666C0.335999 29.9927 0.863178 31.2645 1.80156 32.2022C2.73995 33.1399 4.01267 33.6666 5.33975 33.6666H28.6906C30.0177 33.6666 31.2904 33.1399 32.2288 32.2022C33.1672 31.2645 33.6943 29.9927 33.6943 28.6666V5.33331C33.6943 4.00723 33.1672 2.73546 32.2288 1.79778C31.2904 0.860097 30.0177 0.333313 28.6906 0.333313ZM23.8369 3.66665L17.1653 10.3333H10.1934L16.8651 3.66665H23.8369ZM3.67183 5.33331C3.67183 4.89129 3.84756 4.46736 4.16035 4.1548C4.47315 3.84224 4.89739 3.66665 5.33975 3.66665H12.1615L5.48986 10.3333H3.67183V5.33331ZM30.3585 28.6666C30.3585 29.1087 30.1828 29.5326 29.87 29.8452C29.5572 30.1577 29.1329 30.3333 28.6906 30.3333H5.33975C4.89739 30.3333 4.47315 30.1577 4.16035 29.8452C3.84756 29.5326 3.67183 29.1087 3.67183 28.6666V13.6666H30.3585V28.6666ZM30.3585 10.3333H21.8688L28.5405 3.66665H28.6906C29.1329 3.66665 29.5572 3.84224 29.87 4.1548C30.1828 4.46736 30.3585 4.89129 30.3585 5.33331V10.3333Z" fill="white"/>
</svg>
