<svg width="43" height="43" viewBox="0 0 43 43" fill="none" xmlns="http://www.w3.org/2000/svg">
<path d="M6.63431 34.25H15.6522C15.9321 34.2516 16.2096 34.198 16.4687 34.0923C16.7279 33.9865 16.9636 33.8307 17.1623 33.6337L31.8802 18.9075L37.9205 13C38.1198 12.8024 38.2781 12.5674 38.3861 12.3085C38.494 12.0495 38.5496 11.7718 38.5496 11.4912C38.5496 11.2107 38.494 10.933 38.3861 10.674C38.2781 10.4151 38.1198 10.18 37.9205 9.98249L28.9026 0.866242C28.7049 0.667069 28.4696 0.508982 28.2105 0.401098C27.9513 0.293215 27.6733 0.237671 27.3925 0.237671C27.1117 0.237671 26.8337 0.293215 26.5746 0.401098C26.3154 0.508982 26.0802 0.667069 25.8824 0.866242L19.8847 6.87999L5.12423 21.6062C4.92711 21.8048 4.77116 22.0403 4.66531 22.2992C4.55947 22.5581 4.50582 22.8353 4.50744 23.115V32.125C4.50744 32.6886 4.73152 33.2291 5.13038 33.6276C5.52925 34.0261 6.07022 34.25 6.63431 34.25ZM27.3925 5.37124L33.4115 11.385L30.3914 14.4025L24.3724 8.38874L27.3925 5.37124ZM8.76117 23.9862L21.3735 11.385L27.3925 17.3987L14.7802 30H8.76117V23.9862ZM40.6642 38.5H2.38057C1.81649 38.5 1.27552 38.7239 0.876652 39.1224C0.477788 39.5209 0.253708 40.0614 0.253708 40.625C0.253708 41.1886 0.477788 41.7291 0.876652 42.1276C1.27552 42.5261 1.81649 42.75 2.38057 42.75H40.6642C41.2282 42.75 41.7692 42.5261 42.1681 42.1276C42.5669 41.7291 42.791 41.1886 42.791 40.625C42.791 40.0614 42.5669 39.5209 42.1681 39.1224C41.7692 38.7239 41.2282 38.5 40.6642 38.5Z" fill="white"/>
</svg>
