<svg width="35" height="27" viewBox="0 0 35 27" fill="none" xmlns="http://www.w3.org/2000/svg">
<path d="M17.9738 13.8391C18.7969 13.1271 19.4571 12.2464 19.9096 11.2569C20.3621 10.2674 20.5962 9.19211 20.5962 8.10415C20.5962 6.05977 19.7836 4.09912 18.3372 2.65353C16.8907 1.20794 14.9289 0.395813 12.8833 0.395813C10.8377 0.395813 8.87588 1.20794 7.42943 2.65353C5.98297 4.09912 5.17036 6.05977 5.17036 8.10415C5.17035 9.19211 5.40453 10.2674 5.85701 11.2569C6.30948 12.2464 6.96967 13.1271 7.79276 13.8391C5.63335 14.8164 3.80126 16.3945 2.51554 18.3848C1.22982 20.3751 0.544873 22.6934 0.542603 25.0625C0.542603 25.4714 0.705125 25.8635 0.994416 26.1526C1.28371 26.4417 1.67607 26.6041 2.08519 26.6041C2.49431 26.6041 2.88667 26.4417 3.17596 26.1526C3.46525 25.8635 3.62778 25.4714 3.62778 25.0625C3.62778 22.6092 4.60291 20.2565 6.33865 18.5217C8.0744 16.787 10.4286 15.8125 12.8833 15.8125C15.338 15.8125 17.6922 16.787 19.4279 18.5217C21.1637 20.2565 22.1388 22.6092 22.1388 25.0625C22.1388 25.4714 22.3013 25.8635 22.5906 26.1526C22.8799 26.4417 23.2723 26.6041 23.6814 26.6041C24.0905 26.6041 24.4829 26.4417 24.7722 26.1526C25.0615 25.8635 25.224 25.4714 25.224 25.0625C25.2217 22.6934 24.5368 20.3751 23.251 18.3848C21.9653 16.3945 20.1332 14.8164 17.9738 13.8391ZM12.8833 12.7291C11.968 12.7291 11.0733 12.4579 10.3122 11.9497C9.55122 11.4415 8.95807 10.7192 8.6078 9.87406C8.25754 9.02895 8.16589 8.09902 8.34446 7.20185C8.52302 6.30469 8.96377 5.4806 9.61097 4.83378C10.2582 4.18696 11.0828 3.74647 11.9805 3.56802C12.8782 3.38956 13.8086 3.48115 14.6543 3.8312C15.4999 4.18126 16.2226 4.77406 16.7311 5.53463C17.2396 6.29521 17.5111 7.18941 17.5111 8.10415C17.5111 9.33077 17.0235 10.5072 16.1556 11.3745C15.2877 12.2419 14.1107 12.7291 12.8833 12.7291ZM27.9081 13.2225C28.8953 12.1114 29.5402 10.7389 29.7651 9.27017C29.99 7.8014 29.7853 6.29897 29.1757 4.94373C28.5662 3.58849 27.5777 2.43821 26.3292 1.63134C25.0808 0.824473 23.6256 0.395416 22.1388 0.395813C21.7297 0.395813 21.3373 0.558238 21.048 0.847357C20.7587 1.13648 20.5962 1.5286 20.5962 1.93748C20.5962 2.34636 20.7587 2.73848 21.048 3.0276C21.3373 3.31672 21.7297 3.47915 22.1388 3.47915C23.3662 3.47915 24.5433 3.96642 25.4111 4.83378C26.279 5.70113 26.7666 6.87752 26.7666 8.10415C26.7644 8.91389 26.5495 9.70887 26.1435 10.4096C25.7374 11.1103 25.1544 11.6922 24.4527 12.0971C24.224 12.2289 24.033 12.4172 23.8979 12.644C23.7629 12.8707 23.6883 13.1283 23.6814 13.3921C23.6749 13.6538 23.7353 13.9128 23.8567 14.1448C23.9782 14.3768 24.1567 14.574 24.3756 14.7179L24.9772 15.1187L25.1777 15.2266C27.0371 16.108 28.6058 17.5021 29.699 19.2447C30.7922 20.9873 31.3643 23.0058 31.3481 25.0625C31.3481 25.4714 31.5106 25.8635 31.7999 26.1526C32.0892 26.4417 32.4815 26.6041 32.8906 26.6041C33.2998 26.6041 33.6921 26.4417 33.9814 26.1526C34.2707 25.8635 34.4332 25.4714 34.4332 25.0625C34.4458 22.6967 33.8529 20.367 32.7109 18.2947C31.5688 16.2224 29.9155 14.4763 27.9081 13.2225Z" fill="white"/>
</svg>
