<svg width="43" height="43" viewBox="0 0 43 43" fill="none" xmlns="http://www.w3.org/2000/svg">
<path d="M36.4105 0.25H6.63434C4.9421 0.25 3.31917 0.92165 2.12257 2.11719C0.925978 3.31274 0.253738 4.93425 0.253738 6.625V27.875C0.253738 29.5658 0.925978 31.1873 2.12257 32.3828C3.31917 33.5784 4.9421 34.25 6.63434 34.25H12.2493L11.0157 36.375C10.6423 37.0211 10.4458 37.754 10.4458 38.5C10.4458 39.246 10.6423 39.9789 11.0157 40.625C11.3922 41.2767 11.9352 41.8169 12.5892 42.1902C13.2431 42.5636 13.9845 42.7567 14.7377 42.75H28.4772C29.2232 42.7492 29.9558 42.5525 30.6016 42.1795C31.2475 41.8065 31.7838 41.2704 32.1567 40.625C32.5301 39.9789 32.7266 39.246 32.7266 38.5C32.7266 37.754 32.5301 37.0211 32.1567 36.375L30.9019 34.25H36.4105C38.1027 34.25 39.7256 33.5784 40.9222 32.3828C42.1188 31.1873 42.791 29.5658 42.791 27.875V6.625C42.791 4.93425 42.1188 3.31274 40.9222 2.11719C39.7256 0.92165 38.1027 0.25 36.4105 0.25ZM14.6526 38.5L17.2687 34.25H25.7761L28.3284 38.5H14.6526ZM38.5373 27.875C38.5373 28.4386 38.3132 28.9791 37.9144 29.3776C37.5155 29.7761 36.9745 30 36.4105 30H6.63434C6.07026 30 5.52928 29.7761 5.13041 29.3776C4.73155 28.9791 4.50747 28.4386 4.50747 27.875V25.75H38.5373V27.875ZM38.5373 21.5H4.50747V6.625C4.50747 6.06141 4.73155 5.52091 5.13041 5.1224C5.52928 4.72388 6.07026 4.5 6.63434 4.5H36.4105C36.9745 4.5 37.5155 4.72388 37.9144 5.1224C38.3132 5.52091 38.5373 6.06141 38.5373 6.625V21.5Z" fill="#D9D9D9"/>
</svg>
