<svg width="1372" height="2250" viewBox="0 0 1372 2250" fill="none" xmlns="http://www.w3.org/2000/svg">
<path d="M1314.36 1972.98C1090.73 1732.81 555.574 1396.57 203.992 1972.98" stroke="#3A1774" stroke-opacity="0.33" stroke-width="3"/>
<path d="M203.992 1.99976C427.621 242.171 962.775 578.411 1314.36 1.99966" stroke="#3A1774" stroke-opacity="0.33" stroke-width="3"/>
<path d="M1300.65 1948.64C1067.55 1717.03 519.301 1401.09 191.12 1990.24" stroke="#3A1774" stroke-opacity="0.33" stroke-width="3"/>
<path d="M1286.94 1924.31C1044.72 1701.6 484.201 1406.44 179.914 2007.43" stroke="#3A1774" stroke-opacity="0.33" stroke-width="3"/>
<path d="M1273.23 1899.98C1022.25 1686.51 450.311 1412.56 170.376 2024.51" stroke="#3A1774" stroke-opacity="0.33" stroke-width="3"/>
<path d="M1259.52 1875.65C1000.17 1671.74 417.657 1419.42 162.495 2041.39" stroke="#3A1774" stroke-opacity="0.33" stroke-width="3"/>
<path d="M1245.82 1851.31C978.468 1657.28 386.27 1426.97 156.265 2058.03" stroke="#3A1774" stroke-opacity="0.33" stroke-width="3"/>
<path d="M1232.11 1826.98C957.172 1643.1 356.175 1435.15 151.673 2074.35" stroke="#3A1774" stroke-opacity="0.33" stroke-width="3"/>
<path d="M1218.4 1802.65C936.291 1629.21 327.399 1443.92 148.707 2090.3" stroke="#3A1774" stroke-opacity="0.33" stroke-width="3"/>
<path d="M1204.69 1778.31C915.833 1615.57 299.961 1453.24 147.348 2105.82" stroke="#3A1774" stroke-opacity="0.33" stroke-width="3"/>
<path d="M1190.98 1753.98C895.81 1602.18 273.886 1463.04 147.582 2120.85" stroke="#3A1774" stroke-opacity="0.33" stroke-width="3"/>
<path d="M1177.27 1729.65C876.23 1589.02 249.189 1473.28 149.383 2135.33" stroke="#3A1774" stroke-opacity="0.33" stroke-width="3"/>
<path d="M1163.57 1705.31C857.104 1576.07 225.889 1483.9 152.732 2149.19" stroke="#3A1774" stroke-opacity="0.33" stroke-width="3"/>
<path d="M1149.86 1680.98C838.438 1563.31 203.998 1494.86 157.6 2162.39" stroke="#3A1774" stroke-opacity="0.33" stroke-width="3"/>
<path d="M1136.15 1656.65C820.242 1550.73 183.532 1506.1 163.962 2174.86" stroke="#3A1774" stroke-opacity="0.33" stroke-width="3"/>
<path d="M1122.44 1632.31C802.52 1538.31 164.497 1517.56 171.785 2186.56" stroke="#3A1774" stroke-opacity="0.33" stroke-width="3"/>
<path d="M1108.73 1607.98C785.279 1526.03 146.903 1529.2 181.038 2197.42" stroke="#3A1774" stroke-opacity="0.33" stroke-width="3"/>
<path d="M1095.03 1583.65C768.525 1513.88 130.755 1540.95 191.686 2207.39" stroke="#3A1774" stroke-opacity="0.33" stroke-width="3"/>
<path d="M1081.32 1559.31C752.263 1501.83 116.06 1552.77 203.694 2216.43" stroke="#3A1774" stroke-opacity="0.33" stroke-width="3"/>
<path d="M1067.61 1534.98C736.494 1489.87 102.814 1564.6 217.021 2224.47" stroke="#3A1774" stroke-opacity="0.33" stroke-width="3"/>
<path d="M1053.9 1510.65C721.224 1477.97 91.0206 1576.38 231.628 2231.48" stroke="#3A1774" stroke-opacity="0.33" stroke-width="3"/>
<path d="M1040.19 1486.32C706.454 1466.12 80.6743 1588.07 247.471 2237.41" stroke="#3A1774" stroke-opacity="0.33" stroke-width="3"/>
<path d="M1026.49 1461.98C692.187 1454.31 71.7728 1599.6 264.507 2242.21" stroke="#3A1774" stroke-opacity="0.33" stroke-width="3"/>
<path d="M1012.78 1437.65C678.421 1442.5 64.3053 1610.93 282.688 2245.83" stroke="#3A1774" stroke-opacity="0.33" stroke-width="3"/>
<path d="M999.069 1413.32C665.16 1430.69 58.2663 1621.99 301.968 2248.24" stroke="#3A1774" stroke-opacity="0.33" stroke-width="3"/>
<path d="M985.36 1388.98C652.399 1418.85 53.6411 1632.74 322.296 2249.39" stroke="#3A1774" stroke-opacity="0.33" stroke-width="3"/>
<path d="M971.653 1364.65C640.141 1406.97 50.4182 1643.13 343.623 2249.25" stroke="#3A1774" stroke-opacity="0.33" stroke-width="3"/>
<path d="M957.944 1340.32C628.38 1395.02 48.5798 1653.09 365.892 2247.77" stroke="#3A1774" stroke-opacity="0.33" stroke-width="3"/>
<path d="M944.236 1315.98C617.116 1382.99 48.1107 1662.59 389.054 2244.93" stroke="#3A1774" stroke-opacity="0.33" stroke-width="3"/>
<path d="M930.528 1291.65C606.343 1370.86 48.9881 1671.56 413.049 2240.7" stroke="#3A1774" stroke-opacity="0.33" stroke-width="3"/>
<path d="M916.82 1267.32C596.058 1358.61 51.1925 1679.97 437.824 2235.04" stroke="#3A1774" stroke-opacity="0.33" stroke-width="3"/>
<path d="M903.111 1242.99C586.255 1346.23 54.6973 1687.75 463.318 2227.92" stroke="#3A1774" stroke-opacity="0.33" stroke-width="3"/>
<path d="M889.404 1218.65C576.93 1333.68 59.4803 1694.86 489.475 2219.32" stroke="#3A1774" stroke-opacity="0.33" stroke-width="3"/>
<path d="M875.695 1194.32C568.073 1320.97 65.5097 1701.26 516.232 2209.21" stroke="#3A1774" stroke-opacity="0.33" stroke-width="3"/>
<path d="M861.987 1169.99C559.68 1308.06 72.7592 1706.89 543.531 2197.58" stroke="#3A1774" stroke-opacity="0.33" stroke-width="3"/>
<path d="M848.278 1145.65C551.741 1294.95 81.1943 1711.72 571.307 2184.41" stroke="#3A1774" stroke-opacity="0.33" stroke-width="3"/>
<path d="M834.571 1121.32C544.249 1281.61 90.7848 1715.69 599.502 2169.67" stroke="#3A1774" stroke-opacity="0.33" stroke-width="3"/>
<path d="M820.862 1096.99C537.192 1268.04 101.492 1718.78 628.049 2153.35" stroke="#3A1774" stroke-opacity="0.33" stroke-width="3"/>
<path d="M807.153 1072.65C530.562 1254.2 113.282 1720.92 656.886 2135.45" stroke="#3A1774" stroke-opacity="0.33" stroke-width="3"/>
<path d="M793.446 1048.32C524.35 1240.09 126.117 1722.09 685.95 2115.94" stroke="#3A1774" stroke-opacity="0.33" stroke-width="3"/>
<path d="M779.738 1023.99C518.542 1225.69 139.955 1722.25 715.176 2094.83" stroke="#3A1774" stroke-opacity="0.33" stroke-width="3"/>
<path d="M766.029 999.655C513.126 1210.99 154.755 1721.36 744.498 2072.11" stroke="#3A1774" stroke-opacity="0.33" stroke-width="3"/>
<path d="M752.322 975.322C508.091 1195.97 170.475 1719.38 773.853 2047.78" stroke="#3A1774" stroke-opacity="0.33" stroke-width="3"/>
<path d="M738.612 950.989C503.422 1180.62 187.068 1716.28 803.174 2021.83" stroke="#3A1774" stroke-opacity="0.33" stroke-width="3"/>
<path d="M724.905 926.656C499.109 1164.93 204.493 1712.03 832.401 1994.28" stroke="#3A1774" stroke-opacity="0.33" stroke-width="3"/>
<path d="M711.196 902.323C495.134 1148.87 222.7 1706.6 861.463 1965.11" stroke="#3A1774" stroke-opacity="0.33" stroke-width="3"/>
<path d="M697.489 877.99C491.485 1132.45 241.642 1699.96 890.302 1934.35" stroke="#3A1774" stroke-opacity="0.33" stroke-width="3"/>
<path d="M683.78 853.657C488.144 1115.64 261.269 1692.09 918.849 1902" stroke="#3A1774" stroke-opacity="0.33" stroke-width="3"/>
<path d="M670.072 829.323C485.099 1098.44 281.532 1682.95 947.043 1868.08" stroke="#3A1774" stroke-opacity="0.33" stroke-width="3"/>
<path d="M656.363 804.991C482.332 1080.83 302.379 1672.53 974.82 1832.59" stroke="#3A1774" stroke-opacity="0.33" stroke-width="3"/>
<path d="M642.656 780.658C479.827 1062.81 323.759 1660.8 1002.12 1795.55" stroke="#3A1774" stroke-opacity="0.33" stroke-width="3"/>
<path d="M628.947 756.324C477.566 1044.36 345.618 1647.75 1028.88 1756.99" stroke="#3A1774" stroke-opacity="0.33" stroke-width="3"/>
<path d="M615.24 731.991C475.534 1025.48 367.904 1633.36 1055.03 1716.92" stroke="#3A1774" stroke-opacity="0.33" stroke-width="3"/>
<path d="M601.531 707.658C473.71 1006.16 390.561 1617.62 1080.53 1675.38" stroke="#3A1774" stroke-opacity="0.33" stroke-width="3"/>
<path d="M587.822 683.326C472.079 986.396 413.534 1600.5 1105.3 1632.37" stroke="#3A1774" stroke-opacity="0.33" stroke-width="3"/>
<path d="M574.114 658.992C470.623 966.17 436.772 1582.01 1129.3 1587.94" stroke="#3A1774" stroke-opacity="0.33" stroke-width="3"/>
<path d="M560.405 634.659C469.321 945.482 460.215 1562.13 1152.46 1542.11" stroke="#3A1774" stroke-opacity="0.33" stroke-width="3"/>
<path d="M546.698 610.326C468.159 924.328 483.81 1540.85 1174.73 1494.92" stroke="#3A1774" stroke-opacity="0.33" stroke-width="3"/>
<path d="M532.989 585.993C467.112 902.7 507.498 1518.17 1196.05 1446.4" stroke="#3A1774" stroke-opacity="0.33" stroke-width="3"/>
<path d="M519.281 561.66C466.166 880.596 531.226 1494.09 1216.38 1396.58" stroke="#3A1774" stroke-opacity="0.33" stroke-width="3"/>
<path d="M505.574 537.327C465.3 858.013 554.935 1468.61 1235.66 1345.51" stroke="#3A1774" stroke-opacity="0.33" stroke-width="3"/>
<path d="M491.865 512.994C464.494 834.948 578.57 1441.73 1253.84 1293.22" stroke="#3A1774" stroke-opacity="0.33" stroke-width="3"/>
<path d="M478.157 488.662C463.73 811.399 602.075 1413.45 1270.88 1239.76" stroke="#3A1774" stroke-opacity="0.33" stroke-width="3"/>
<path d="M464.448 464.328C462.985 787.363 625.392 1383.78 1286.72 1185.16" stroke="#3A1774" stroke-opacity="0.33" stroke-width="3"/>
<path d="M450.74 439.994C462.244 762.841 648.468 1352.72 1301.33 1129.49" stroke="#3A1774" stroke-opacity="0.33" stroke-width="3"/>
<path d="M437.032 415.662C461.486 737.835 671.247 1320.3 1314.66 1072.77" stroke="#3A1774" stroke-opacity="0.33" stroke-width="3"/>
<path d="M423.323 391.329C460.69 712.343 693.673 1286.51 1326.66 1015.07" stroke="#3A1774" stroke-opacity="0.33" stroke-width="3"/>
<path d="M409.616 366.996C459.84 686.369 715.693 1251.38 1337.31 956.431" stroke="#3A1774" stroke-opacity="0.33" stroke-width="3"/>
<path d="M395.908 342.663C458.914 659.915 737.253 1214.92 1346.57 896.905" stroke="#3A1774" stroke-opacity="0.33" stroke-width="3"/>
<path d="M382.199 318.329C457.891 632.983 758.298 1177.14 1354.39 836.544" stroke="#3A1774" stroke-opacity="0.33" stroke-width="3"/>
<path d="M368.492 293.996C456.757 605.578 778.779 1138.07 1360.75 775.405" stroke="#3A1774" stroke-opacity="0.33" stroke-width="3"/>
<path d="M354.783 269.664C455.488 577.705 798.642 1097.74 1365.62 713.542" stroke="#3A1774" stroke-opacity="0.33" stroke-width="3"/>
<path d="M341.074 245.332C454.067 549.368 817.836 1056.16 1368.97 651.011" stroke="#3A1774" stroke-opacity="0.33" stroke-width="3"/>
<path d="M327.366 220.998C452.479 520.573 836.316 1013.35 1370.77 587.869" stroke="#3A1774" stroke-opacity="0.33" stroke-width="3"/>
<path d="M313.657 196.665C450.7 491.328 854.028 969.36 1371 524.175" stroke="#3A1774" stroke-opacity="0.33" stroke-width="3"/>
<path d="M299.95 172.332C448.717 461.641 870.929 924.204 1369.64 459.99" stroke="#3A1774" stroke-opacity="0.33" stroke-width="3"/>
<path d="M286.241 147.999C446.508 431.517 886.969 877.917 1366.68 395.371" stroke="#3A1774" stroke-opacity="0.33" stroke-width="3"/>
<path d="M272.534 123.666C444.06 400.967 902.108 830.533 1362.09 330.38" stroke="#3A1774" stroke-opacity="0.33" stroke-width="3"/>
<path d="M258.826 99.3318C441.354 370 916.299 782.085 1355.86 265.078" stroke="#3A1774" stroke-opacity="0.33" stroke-width="3"/>
<path d="M245.117 74.9993C438.372 338.627 929.501 732.611 1347.97 199.527" stroke="#3A1774" stroke-opacity="0.33" stroke-width="3"/>
<path d="M231.408 50.6665C435.099 306.857 941.673 682.147 1338.43 133.789" stroke="#3A1774" stroke-opacity="0.33" stroke-width="3"/>
<path d="M217.701 26.333C431.522 274.7 952.777 630.733 1327.23 67.9257" stroke="#3A1774" stroke-opacity="0.33" stroke-width="3"/>
</svg>
